<svg width="114" height="78" viewBox="0 0 114 78" fill="none" xmlns="http://www.w3.org/2000/svg">
<path d="M0 14.6514L14.7661 10.6922L18.6599 25.2147L3.8938 29.1738L0 14.6514Z" fill="black"/>
<path d="M33.0642 54.8246C31.8924 57.1025 30.2925 58.9313 28.2647 60.3109C26.0745 61.7898 23.6879 62.7197 21.105 63.1005C18.5468 63.522 16.8263 63.6263 15.9434 63.4135L17.2438 58.018C20.2451 57.911 22.6205 57.0995 24.3698 55.5836C26.1518 54.0755 27.539 51.6938 28.5311 48.4384L20.0455 46.3932L23.5684 31.7764L38.6757 35.4174L35.6257 48.0723C35.0898 50.2959 34.236 52.5466 33.0642 54.8246Z" fill="black"/>
<path d="M48.3831 14.8613L49.4831 20.774L43.4712 21.8925L42.3712 15.9798L48.3831 14.8613ZM40.7064 7.03135L39.6064 1.11865L45.6184 0.000195915L46.7184 5.9129L40.7064 7.03135Z" fill="black"/>
<path d="M60.9141 45.2446C59.8664 45.1839 59.1732 45.0712 58.8344 44.9064L59.8053 42.91C61.198 43.1535 62.3541 42.9452 63.2735 42.2852C63.8467 41.8757 64.4345 41.1592 65.037 40.1357L61.8972 38.6087L64.5276 33.2002L70.1175 35.9188L67.8402 40.6013C67.4342 41.4361 66.9075 42.2422 66.2602 43.0196C65.607 43.809 64.825 44.3863 63.9144 44.7513C62.9619 45.1409 61.9618 45.3053 60.9141 45.2446ZM74.0076 27.6894L68.5083 25.0149L71.1387 19.6064L76.6379 22.2809L74.0076 27.6894Z" fill="black"/>
<path d="M87.9117 11.5531C88.3744 9.13416 90.2498 7.07641 93.5379 5.3798C95.6781 4.27547 97.7982 3.71898 99.8982 3.71035C101.998 3.70171 103.656 4.87512 104.871 7.23058L109.498 16.198C109.819 16.8198 110.22 17.5669 110.7 18.4393C111.082 19.0904 111.418 19.4923 111.709 19.6451C111.999 19.7978 112.352 19.8656 112.767 19.8482L113.156 20.6015L107.596 23.4703C107.237 23.1559 106.938 22.8408 106.699 22.5249C106.461 22.209 106.209 21.8391 105.945 21.4153C105.635 22.5445 105.158 23.6156 104.515 24.6287C103.742 25.83 102.662 26.7885 101.275 27.5042C99.5052 28.4172 97.7814 28.6708 96.1033 28.2649C94.4311 27.8409 93.1168 26.7022 92.1606 24.8489C90.9205 22.4456 90.9495 20.2278 92.2475 18.1955C92.9615 17.0852 94.2402 15.8955 96.0835 14.6265L97.7121 13.5136C98.595 12.9066 99.1934 12.4086 99.5074 12.0195C100.076 11.3323 100.191 10.6599 99.8518 10.0022C99.4385 9.20115 98.8737 8.79613 98.1575 8.78718C97.4471 8.76011 96.5538 9.02419 95.4777 9.57945C94.2701 10.2026 93.5695 10.9426 93.3757 11.7995C93.2453 12.427 93.3147 13.1482 93.5838 13.9632L88.6517 16.5081C87.877 14.7428 87.6304 13.0911 87.9117 11.5531ZM98.8026 23.3293C99.4845 23.4771 100.172 23.3721 100.866 23.0143C101.966 22.4467 102.809 21.6025 103.397 20.4818C103.996 19.3549 103.873 17.9274 103.027 16.1991L102.046 14.298C101.828 14.6678 101.585 15.0048 101.318 15.3091C101.057 15.5953 100.667 15.9402 100.149 16.3439L99.1123 17.1514C98.1349 17.898 97.484 18.5291 97.1596 19.0447C96.611 19.9182 96.5897 20.8451 97.0956 21.8256C97.546 22.6984 98.115 23.1997 98.8026 23.3293Z" fill="black"/>
<path d="M96.7862 73.0299C93.9188 73.9432 90.9156 73.6747 87.7766 72.2245C83.8925 70.4301 81.4146 67.7736 80.3428 64.255C79.2766 60.7241 79.7507 56.7785 81.7652 52.4181C83.9433 47.7035 86.8861 44.6538 90.5938 43.2691C93.8193 42.0619 97.1298 42.2426 100.525 43.8113C105.069 45.9104 107.703 48.9353 108.427 52.8861C108.814 55.0955 108.661 57.0627 107.968 58.7877L102.325 56.1808C102.557 54.7168 102.538 53.5224 102.268 52.5977C101.784 50.9511 100.534 49.6623 98.5191 48.7313C96.4671 47.7833 94.4651 47.8662 92.5129 48.9799C90.5663 50.0815 88.8934 52.1468 87.494 55.1759C86.0946 58.205 85.6679 60.7645 86.2141 62.8546C86.778 64.9382 88.0249 66.4257 89.9548 67.3173C91.9334 68.2314 93.7409 68.2809 95.3773 67.4659C96.273 67.0349 97.2318 66.2107 98.2537 64.9932L103.842 67.5747C101.993 70.2926 99.6413 72.111 96.7862 73.0299Z" fill="black"/>
</svg>
