<svg width="185" height="229" viewBox="0 0 185 229" fill="none" xmlns="http://www.w3.org/2000/svg">
<g clip-path="url(#clip0_2_826)">
<path d="M185 221.619H177.6V229H185V221.619Z" fill="#35788C"/>
<path d="M177.6 221.619H170.2V229H177.6V221.619Z" fill="#2B6C85"/>
<path d="M170.2 221.619H162.8V229H170.2V221.619Z" fill="#2C6E84"/>
<path d="M162.8 221.619H155.4V229H162.8V221.619Z" fill="#2E7288"/>
<path d="M155.4 221.619H148V229H155.4V221.619Z" fill="#2F738A"/>
<path d="M148 221.619H140.6V229H148V221.619Z" fill="#2D7089"/>
<path d="M140.6 221.619H133.2V229H140.6V221.619Z" fill="#2A6C85"/>
<path d="M133.2 221.619H125.8V229H133.2V221.619Z" fill="#2A6B85"/>
<path d="M125.8 221.619H118.4V229H125.8V221.619Z" fill="#2C6C85"/>
<path d="M118.4 221.619H111V229H118.4V221.619Z" fill="#33748C"/>
<path d="M111 221.619H103.6V229H111V221.619Z" fill="#33768E"/>
<path d="M103.6 221.619H96.2V229H103.6V221.619Z" fill="#31778F"/>
<path d="M96.2 221.619H88.8V229H96.2V221.619Z" fill="#317790"/>
<path d="M88.8 221.619H81.4V229H88.8V221.619Z" fill="#357E97"/>
<path d="M81.4 221.619H74V229H81.4V221.619Z" fill="#3B829B"/>
<path d="M74 221.619H66.6V229H74V221.619Z" fill="#377E97"/>
<path d="M66.6 221.619H59.2V229H66.6V221.619Z" fill="#337993"/>
<path d="M59.2 221.619H51.8V229H59.2V221.619Z" fill="#357A93"/>
<path d="M51.8 221.619H44.4V229H51.8V221.619Z" fill="#357D96"/>
<path d="M44.4 221.619H37V229H44.4V221.619Z" fill="#4098AF"/>
<path d="M37 221.619H29.6V229H37V221.619Z" fill="#469FB6"/>
<path d="M29.6 221.619H22.2V229H29.6V221.619Z" fill="#469FB6"/>
<path d="M22.2 221.619H14.8V229H22.2V221.619Z" fill="#5FADC7"/>
<path d="M14.8 221.619H7.39999V229H14.8V221.619Z" fill="#377E99"/>
<path d="M7.4 221.619H0V229H7.4V221.619Z" fill="#79ABB9"/>
<path d="M177.6 214.193H170.2V221.575H177.6V214.193Z" fill="#32758C"/>
<path d="M170.2 214.193H162.8V221.575H170.2V214.193Z" fill="#2D667A"/>
<path d="M162.8 214.193H155.4V221.575H162.8V214.193Z" fill="#295B6E"/>
<path d="M155.4 214.193H148V221.575H155.4V214.193Z" fill="#295D6E"/>
<path d="M148 214.193H140.6V221.575H148V214.193Z" fill="#347990"/>
<path d="M140.6 214.193H133.2V221.575H140.6V214.193Z" fill="#357A91"/>
<path d="M133.2 214.193H125.8V221.575H133.2V214.193Z" fill="#3A8098"/>
<path d="M125.8 214.193H118.4V221.575H125.8V214.193Z" fill="#378199"/>
<path d="M118.4 214.193H111V221.575H118.4V214.193Z" fill="#377B93"/>
<path d="M111 214.193H103.6V221.575H111V214.193Z" fill="#397F95"/>
<path d="M103.6 214.193H96.2V221.575H103.6V214.193Z" fill="#509FB4"/>
<path d="M96.2 214.193H88.8V221.575H96.2V214.193Z" fill="#4FA2B6"/>
<path d="M88.8 214.193H81.4V221.575H88.8V214.193Z" fill="#47A5B8"/>
<path d="M81.4 214.193H74V221.575H81.4V214.193Z" fill="#50A6BC"/>
<path d="M74 214.193H66.6V221.575H74V214.193Z" fill="#48A1B7"/>
<path d="M66.6 214.193H59.2V221.575H66.6V214.193Z" fill="#4AA5BD"/>
<path d="M59.2 214.193H51.8V221.575H59.2V214.193Z" fill="#59B1C7"/>
<path d="M51.8 214.193H44.4V221.575H51.8V214.193Z" fill="#4A9BAF"/>
<path d="M44.4 214.193H37V221.575H44.4V214.193Z" fill="#347F9A"/>
<path d="M37 214.193H29.6V221.575H37V214.193Z" fill="#4EA6BD"/>
<path d="M29.6 214.193H22.2V221.575H29.6V214.193Z" fill="#4DA6BE"/>
<path d="M22.2 214.193H14.8V221.575H22.2V214.193Z" fill="#47A4BB"/>
<path d="M14.8 214.193H7.39999V221.575H14.8V214.193Z" fill="#69BDD9"/>
<path d="M177.6 206.812H170.2V214.193H177.6V206.812Z" fill="#2A6171"/>
<path d="M170.2 206.812H162.8V214.193H170.2V206.812Z" fill="#307186"/>
<path d="M162.8 206.812H155.4V214.193H162.8V206.812Z" fill="#295B6D"/>
<path d="M155.4 206.812H148V214.193H155.4V206.812Z" fill="#307186"/>
<path d="M148 206.812H140.6V214.193H148V206.812Z" fill="#317C94"/>
<path d="M140.6 206.812H133.2V214.193H140.6V206.812Z" fill="#468297"/>
<path d="M133.2 206.812H125.8V214.193H133.2V206.812Z" fill="#2B6F84"/>
<path d="M125.8 206.812H118.4V214.193H125.8V206.812Z" fill="#37849B"/>
<path d="M118.4 206.812H111V214.193H118.4V206.812Z" fill="#3E849D"/>
<path d="M111 206.812H103.6V214.193H111V206.812Z" fill="#4A9DB1"/>
<path d="M103.6 206.812H96.2V214.193H103.6V206.812Z" fill="#51A9BE"/>
<path d="M96.2 206.812H88.8V214.193H96.2V206.812Z" fill="#51AABE"/>
<path d="M88.8 206.812H81.4V214.193H88.8V206.812Z" fill="#52ACC3"/>
<path d="M81.4 206.812H74V214.193H81.4V206.812Z" fill="#51B0C6"/>
<path d="M74 206.812H66.6V214.193H74V206.812Z" fill="#51B1CA"/>
<path d="M66.6 206.812H59.2V214.193H66.6V206.812Z" fill="#56B3CB"/>
<path d="M59.2 206.812H51.8V214.193H59.2V206.812Z" fill="#5EB8D1"/>
<path d="M51.8 206.812H44.4V214.193H51.8V206.812Z" fill="#55B8D1"/>
<path d="M44.4 206.812H37V214.193H44.4V206.812Z" fill="#50B6CF"/>
<path d="M37 206.812H29.6V214.193H37V206.812Z" fill="#418FAA"/>
<path d="M29.6 206.812H22.2V214.193H29.6V206.812Z" fill="#50ABC3"/>
<path d="M22.2 206.812H14.8V214.193H22.2V206.812Z" fill="#4AABBF"/>
<path d="M14.8 206.812H7.39999V214.193H14.8V206.812Z" fill="#76C6E3"/>
<path d="M177.6 199.43H170.2V206.812H177.6V199.43Z" fill="#2C6173"/>
<path d="M170.2 199.43H162.8V206.812H170.2V199.43Z" fill="#327287"/>
<path d="M162.8 199.43H155.4V206.812H162.8V199.43Z" fill="#2C5A6D"/>
<path d="M155.4 199.43H148V206.812H155.4V199.43Z" fill="#327B91"/>
<path d="M148 199.43H140.6V206.812H148V199.43Z" fill="#337E96"/>
<path d="M140.6 199.43H133.2V206.812H140.6V199.43Z" fill="#205C6B"/>
<path d="M133.2 199.43H125.8V206.812H133.2V199.43Z" fill="#3D7184"/>
<path d="M125.8 199.43H118.4V206.812H125.8V199.43Z" fill="#37839E"/>
<path d="M118.4 199.43H111V206.812H118.4V199.43Z" fill="#39819C"/>
<path d="M111 199.43H103.6V206.812H111V199.43Z" fill="#307B96"/>
<path d="M103.6 199.43H96.2V206.812H103.6V199.43Z" fill="#4FA1B5"/>
<path d="M96.2 199.43H88.8V206.812H96.2V199.43Z" fill="#57AFC1"/>
<path d="M88.8 199.43H81.4V206.812H88.8V199.43Z" fill="#55B1C5"/>
<path d="M81.4 199.43H74V206.812H81.4V199.43Z" fill="#52B6CA"/>
<path d="M74 199.43H66.6V206.812H74V199.43Z" fill="#6CC4DD"/>
<path d="M66.6 199.43H59.2V206.812H66.6V199.43Z" fill="#59B8D1"/>
<path d="M59.2 199.43H51.8V206.812H59.2V199.43Z" fill="#56B6D1"/>
<path d="M51.8 199.43H44.4V206.812H51.8V199.43Z" fill="#58B9D2"/>
<path d="M44.4 199.43H37V206.812H44.4V199.43Z" fill="#56BBD1"/>
<path d="M37 199.43H29.6V206.812H37V199.43Z" fill="#5EB6CE"/>
<path d="M29.6 199.43H22.2V206.812H29.6V199.43Z" fill="#57A7C1"/>
<path d="M22.2 199.43H14.8V206.812H22.2V199.43Z" fill="#4DAFC3"/>
<path d="M14.8 199.43H7.39999V206.812H14.8V199.43Z" fill="#7BCBE3"/>
<path d="M177.6 192.049H170.2V199.43H177.6V192.049Z" fill="#2A6779"/>
<path d="M170.2 192.049H162.8V199.43H170.2V192.049Z" fill="#35798F"/>
<path d="M162.8 192.049H155.4V199.43H162.8V192.049Z" fill="#337C91"/>
<path d="M155.4 192.049H148V199.43H155.4V192.049Z" fill="#317E95"/>
<path d="M148 192.049H140.6V199.43H148V192.049Z" fill="#215C6E"/>
<path d="M140.6 192.049H133.2V199.43H140.6V192.049Z" fill="#1D5D6E"/>
<path d="M133.2 192.049H125.8V199.43H133.2V192.049Z" fill="#358CA3"/>
<path d="M125.8 192.049H118.4V199.43H125.8V192.049Z" fill="#2F879D"/>
<path d="M118.4 192.049H111V199.43H118.4V192.049Z" fill="#3687A2"/>
<path d="M111 192.049H103.6V199.43H111V192.049Z" fill="#2E7E98"/>
<path d="M103.6 192.049H96.2V199.43H103.6V192.049Z" fill="#5DAEC2"/>
<path d="M96.2 192.049H88.8V199.43H96.2V192.049Z" fill="#419AB0"/>
<path d="M88.8 192.049H81.4V199.43H88.8V192.049Z" fill="#5CBCCE"/>
<path d="M81.4 192.049H74V199.43H81.4V192.049Z" fill="#8AD4F2"/>
<path d="M74 192.049H66.6V199.43H74V192.049Z" fill="#8CE1FA"/>
<path d="M66.6 192.049H59.2V199.43H66.6V192.049Z" fill="#6DCAE8"/>
<path d="M59.2 192.049H51.8V199.43H59.2V192.049Z" fill="#61C0DC"/>
<path d="M51.8 192.049H44.4V199.43H51.8V192.049Z" fill="#64BFD4"/>
<path d="M44.4 192.049H37V199.43H44.4V192.049Z" fill="#61BED2"/>
<path d="M37 192.049H29.6V199.43H37V192.049Z" fill="#61BFD7"/>
<path d="M29.6 192.049H22.2V199.43H29.6V192.049Z" fill="#55BCD0"/>
<path d="M22.2 192.049H14.8V199.43H22.2V192.049Z" fill="#51B1CA"/>
<path d="M14.8 192.049H7.39999V199.43H14.8V192.049Z" fill="#5CB5CC"/>
<path d="M170.2 184.668H162.8V192.049H170.2V184.668Z" fill="#306A7C"/>
<path d="M162.8 184.668H155.4V192.049H162.8V184.668Z" fill="#3B7E93"/>
<path d="M155.4 184.668H148V192.049H155.4V184.668Z" fill="#2F6679"/>
<path d="M148 184.668H140.6V192.049H148V184.668Z" fill="#235F6F"/>
<path d="M140.6 184.668H133.2V192.049H140.6V184.668Z" fill="#1D5C6F"/>
<path d="M133.2 184.668H125.8V192.049H133.2V184.668Z" fill="#328297"/>
<path d="M125.8 184.668H118.4V192.049H125.8V184.668Z" fill="#347B97"/>
<path d="M118.4 184.668H111V192.049H118.4V184.668Z" fill="#4A8499"/>
<path d="M111 184.668H103.6V192.049H111V184.668Z" fill="#45879D"/>
<path d="M103.6 184.668H96.2V192.049H103.6V184.668Z" fill="#459DB3"/>
<path d="M96.2 184.668H88.8V192.049H96.2V184.668Z" fill="#61C0D2"/>
<path d="M88.8 184.668H81.4V192.049H88.8V184.668Z" fill="#5EC6D8"/>
<path d="M81.4 184.668H74V192.049H81.4V184.668Z" fill="#93DEFB"/>
<path d="M74 184.668H66.6V192.049H74V184.668Z" fill="#8EE3FD"/>
<path d="M66.6 184.668H59.2V192.049H66.6V184.668Z" fill="#6AC8E8"/>
<path d="M59.2 184.668H51.8V192.049H59.2V184.668Z" fill="#67C6E2"/>
<path d="M51.8 184.668H44.4V192.049H51.8V184.668Z" fill="#67C5E0"/>
<path d="M44.4 184.668H37V192.049H44.4V184.668Z" fill="#48ADC7"/>
<path d="M37 184.668H29.6V192.049H37V184.668Z" fill="#4AADC2"/>
<path d="M29.6 184.668H22.2V192.049H29.6V184.668Z" fill="#63BAD1"/>
<path d="M22.2 184.668H14.8V192.049H22.2V184.668Z" fill="#52B6CE"/>
<path d="M14.8 184.668H7.39999V192.049H14.8V184.668Z" fill="#5DB8CA"/>
<path d="M170.2 177.286H162.8V184.668H170.2V177.286Z" fill="#368397"/>
<path d="M162.8 177.286H155.4V184.668H162.8V177.286Z" fill="#326678"/>
<path d="M155.4 177.286H148V184.668H155.4V177.286Z" fill="#3C7487"/>
<path d="M148 177.286H140.6V184.668H148V177.286Z" fill="#285F6E"/>
<path d="M140.6 177.286H133.2V184.668H140.6V177.286Z" fill="#235F6E"/>
<path d="M133.2 177.286H125.8V184.668H133.2V177.286Z" fill="#165B6E"/>
<path d="M125.8 177.286H118.4V184.668H125.8V177.286Z" fill="#125569"/>
<path d="M118.4 177.286H111V184.668H118.4V177.286Z" fill="#318196"/>
<path d="M111 177.286H103.6V184.668H111V177.286Z" fill="#287193"/>
<path d="M103.6 177.286H96.2V184.668H103.6V177.286Z" fill="#3E7E98"/>
<path d="M96.2 177.286H88.8V184.668H96.2V177.286Z" fill="#2B819C"/>
<path d="M88.8 177.286H81.4V184.668H88.8V177.286Z" fill="#67C7DA"/>
<path d="M81.4 177.286H74V184.668H81.4V177.286Z" fill="#9AE1F5"/>
<path d="M74 177.286H66.6V184.668H74V177.286Z" fill="#96E6FD"/>
<path d="M66.6 177.286H59.2V184.668H66.6V177.286Z" fill="#5FC5E4"/>
<path d="M59.2 177.286H51.8V184.668H59.2V177.286Z" fill="#68CBE6"/>
<path d="M51.8 177.286H44.4V184.668H51.8V177.286Z" fill="#6BC8E5"/>
<path d="M44.4 177.286H37V184.668H44.4V177.286Z" fill="#4DB2C7"/>
<path d="M37 177.286H29.6V184.668H37V177.286Z" fill="#4EB2C5"/>
<path d="M29.6 177.286H22.2V184.668H29.6V177.286Z" fill="#4CAEC4"/>
<path d="M22.2 177.286H14.8V184.668H22.2V177.286Z" fill="#5FBBD4"/>
<path d="M170.2 169.905H162.8V177.286H170.2V169.905Z" fill="#388395"/>
<path d="M162.8 169.905H155.4V177.286H162.8V169.905Z" fill="#2D697B"/>
<path d="M155.4 169.905H148V177.286H155.4V169.905Z" fill="#376F83"/>
<path d="M148 169.905H140.6V177.286H148V169.905Z" fill="#2A5F6E"/>
<path d="M140.6 169.905H133.2V177.286H140.6V169.905Z" fill="#235F6E"/>
<path d="M133.2 169.905H125.8V177.286H133.2V169.905Z" fill="#1B5B69"/>
<path d="M125.8 169.905H118.4V177.286H125.8V169.905Z" fill="#296579"/>
<path d="M118.4 169.905H111V177.286H118.4V169.905Z" fill="#308FA7"/>
<path d="M111 169.905H103.6V177.286H111V169.905Z" fill="#3A8CA2"/>
<path d="M103.6 169.905H96.2V177.286H103.6V169.905Z" fill="#398BA2"/>
<path d="M96.2 169.905H88.8V177.286H96.2V169.905Z" fill="#4291A7"/>
<path d="M88.8 169.905H81.4V177.286H88.8V169.905Z" fill="#69C5D8"/>
<path d="M81.4 169.905H74V177.286H81.4V169.905Z" fill="#70CBE9"/>
<path d="M74 169.905H66.6V177.286H74V169.905Z" fill="#97E5FB"/>
<path d="M66.6 169.905H59.2V177.286H66.6V169.905Z" fill="#66C8E9"/>
<path d="M59.2 169.905H51.8V177.286H59.2V169.905Z" fill="#69CCE7"/>
<path d="M51.8 169.905H44.4V177.286H51.8V169.905Z" fill="#67C6E4"/>
<path d="M44.4 169.905H37V177.286H44.4V169.905Z" fill="#4FB4C7"/>
<path d="M37 169.905H29.6V177.286H37V169.905Z" fill="#4BB3C7"/>
<path d="M29.6 169.905H22.2V177.286H29.6V169.905Z" fill="#60BBD1"/>
<path d="M22.2 169.905H14.8V177.286H22.2V169.905Z" fill="#61BDD6"/>
<path d="M162.8 162.523H155.4V169.905H162.8V162.523Z" fill="#378397"/>
<path d="M155.4 162.523H148V169.905H155.4V162.523Z" fill="#306C81"/>
<path d="M148 162.523H140.6V169.905H148V162.523Z" fill="#2A5F6F"/>
<path d="M140.6 162.523H133.2V169.905H140.6V162.523Z" fill="#20626F"/>
<path d="M133.2 162.523H125.8V169.905H133.2V162.523Z" fill="#3D7E95"/>
<path d="M125.8 162.523H118.4V169.905H125.8V162.523Z" fill="#3A8DA5"/>
<path d="M118.4 162.523H111V169.905H118.4V162.523Z" fill="#78B3C2"/>
<path d="M111 162.523H103.6V169.905H111V162.523Z" fill="#1E7F9E"/>
<path d="M103.6 162.523H96.2V169.905H103.6V162.523Z" fill="#68CBDB"/>
<path d="M96.2 162.523H88.8V169.905H96.2V162.523Z" fill="#5FC2D7"/>
<path d="M88.8 162.523H81.4V169.905H88.8V162.523Z" fill="#5CBED5"/>
<path d="M81.4 162.523H74V169.905H81.4V162.523Z" fill="#55B3CC"/>
<path d="M74 162.523H66.6V169.905H74V162.523Z" fill="#9AE2F6"/>
<path d="M66.6 162.523H59.2V169.905H66.6V162.523Z" fill="#60CCEC"/>
<path d="M59.2 162.523H51.8V169.905H59.2V162.523Z" fill="#6ACEE8"/>
<path d="M51.8 162.523H44.4V169.905H51.8V162.523Z" fill="#5DBBD6"/>
<path d="M44.4 162.523H37V169.905H44.4V162.523Z" fill="#49B2C7"/>
<path d="M37 162.523H29.6V169.905H37V162.523Z" fill="#70C9E6"/>
<path d="M29.6 162.523H22.2V169.905H29.6V162.523Z" fill="#69C8E4"/>
<path d="M22.2 162.523H14.8V169.905H22.2V162.523Z" fill="#5BBCD6"/>
<path d="M162.8 155.098H155.4V162.479H162.8V155.098Z" fill="#84AFBA"/>
<path d="M155.4 155.098H148V162.479H155.4V155.098Z" fill="#387587"/>
<path d="M148 155.098H140.6V162.479H148V155.098Z" fill="#27606E"/>
<path d="M140.6 155.098H133.2V162.479H140.6V155.098Z" fill="#2F798F"/>
<path d="M133.2 155.098H125.8V162.479H133.2V155.098Z" fill="#2B839E"/>
<path d="M125.8 155.098H118.4V162.479H125.8V155.098Z" fill="#29809A"/>
<path d="M118.4 155.098H111V162.479H118.4V155.098Z" fill="#3CA4B5"/>
<path d="M111 155.098H103.6V162.479H111V155.098Z" fill="#6EC6DB"/>
<path d="M103.6 155.098H96.2V162.479H103.6V155.098Z" fill="#59C0D7"/>
<path d="M96.2 155.098H88.8V162.479H96.2V155.098Z" fill="#59BED6"/>
<path d="M88.8 155.098H81.4V162.479H88.8V155.098Z" fill="#5DBDD4"/>
<path d="M81.4 155.098H74V162.479H81.4V155.098Z" fill="#4EBBCE"/>
<path d="M74 155.098H66.6V162.479H74V155.098Z" fill="#ABE2F5"/>
<path d="M66.6 155.098H59.2V162.479H66.6V155.098Z" fill="#63D0EB"/>
<path d="M59.2 155.098H51.8V162.479H59.2V155.098Z" fill="#6AD0E7"/>
<path d="M51.8 155.098H44.4V162.479H51.8V155.098Z" fill="#4FB2CD"/>
<path d="M44.4 155.098H37V162.479H44.4V155.098Z" fill="#6FC9E6"/>
<path d="M37 155.098H29.6V162.479H37V155.098Z" fill="#6ACBE7"/>
<path d="M29.6 155.098H22.2V162.479H29.6V155.098Z" fill="#89DCF4"/>
<path d="M22.2 155.098H14.8V162.479H22.2V155.098Z" fill="#76C9DE"/>
<path d="M162.8 147.717H155.4V155.098H162.8V147.717Z" fill="#7DADB8"/>
<path d="M155.4 147.717H148V155.098H155.4V147.717Z" fill="#306A7B"/>
<path d="M148 147.717H140.6V155.098H148V147.717Z" fill="#2F606E"/>
<path d="M140.6 147.717H133.2V155.098H140.6V147.717Z" fill="#2F89A2"/>
<path d="M133.2 147.717H125.8V155.098H133.2V147.717Z" fill="#32839C"/>
<path d="M125.8 147.717H118.4V155.098H125.8V147.717Z" fill="#4EAFC2"/>
<path d="M118.4 147.717H111V155.098H118.4V147.717Z" fill="#5DC2D5"/>
<path d="M111 147.717H103.6V155.098H111V147.717Z" fill="#4CB7CC"/>
<path d="M103.6 147.717H96.2V155.098H103.6V147.717Z" fill="#4FB7CE"/>
<path d="M96.2 147.717H88.8V155.098H96.2V147.717Z" fill="#54B9D0"/>
<path d="M88.8 147.717H81.4V155.098H88.8V147.717Z" fill="#5ABFD6"/>
<path d="M81.4 147.717H74V155.098H81.4V147.717Z" fill="#4BB8D2"/>
<path d="M74 147.717H66.6V155.098H74V147.717Z" fill="#80CEE0"/>
<path d="M66.6 147.717H59.2V155.098H66.6V147.717Z" fill="#5BBEDD"/>
<path d="M59.2 147.717H51.8V155.098H59.2V147.717Z" fill="#6DCDE6"/>
<path d="M51.8 147.717H44.4V155.098H51.8V147.717Z" fill="#69C2DF"/>
<path d="M44.4 147.717H37V155.098H44.4V147.717Z" fill="#6BCEE9"/>
<path d="M37 147.717H29.6V155.098H37V147.717Z" fill="#80D7EE"/>
<path d="M29.6 147.717H22.2V155.098H29.6V147.717Z" fill="#9AE7FB"/>
<path d="M22.2 147.717H14.8V155.098H22.2V147.717Z" fill="#96DBE9"/>
<path d="M162.8 140.335H155.4V147.717H162.8V140.335Z" fill="#649FAD"/>
<path d="M155.4 140.335H148V147.717H155.4V140.335Z" fill="#316B7A"/>
<path d="M148 140.335H140.6V147.717H148V140.335Z" fill="#2F616F"/>
<path d="M140.6 140.335H133.2V147.717H140.6V140.335Z" fill="#31879D"/>
<path d="M133.2 140.335H125.8V147.717H133.2V140.335Z" fill="#489EB4"/>
<path d="M125.8 140.335H118.4V147.717H125.8V140.335Z" fill="#59BBCC"/>
<path d="M118.4 140.335H111V147.717H118.4V140.335Z" fill="#58C0D7"/>
<path d="M111 140.335H103.6V147.717H111V140.335Z" fill="#55C1D6"/>
<path d="M103.6 140.335H96.2V147.717H103.6V140.335Z" fill="#54C4D7"/>
<path d="M96.2 140.335H88.8V147.717H96.2V140.335Z" fill="#50C1D4"/>
<path d="M88.8 140.335H81.4V147.717H88.8V140.335Z" fill="#55C0D6"/>
<path d="M81.4 140.335H74V147.717H81.4V140.335Z" fill="#60BFDB"/>
<path d="M74 140.335H66.6V147.717H74V140.335Z" fill="#76CEE6"/>
<path d="M66.6 140.335H59.2V147.717H66.6V140.335Z" fill="#6CCFEA"/>
<path d="M59.2 140.335H51.8V147.717H59.2V140.335Z" fill="#69CDE7"/>
<path d="M51.8 140.335H44.4V147.717H51.8V140.335Z" fill="#6ECDE9"/>
<path d="M44.4 140.335H37V147.717H44.4V140.335Z" fill="#66D0EC"/>
<path d="M37 140.335H29.6V147.717H37V140.335Z" fill="#97E1F7"/>
<path d="M29.6 140.335H22.2V147.717H29.6V140.335Z" fill="#9AE7FC"/>
<path d="M22.2 140.335H14.8V147.717H22.2V140.335Z" fill="#A5E3F2"/>
<path d="M162.8 132.954H155.4V140.335H162.8V132.954Z" fill="#398398"/>
<path d="M155.4 132.954H148V140.335H155.4V132.954Z" fill="#408497"/>
<path d="M148 132.954H140.6V140.335H148V132.954Z" fill="#2E6371"/>
<path d="M140.6 132.954H133.2V140.335H140.6V132.954Z" fill="#3C869A"/>
<path d="M133.2 132.954H125.8V140.335H133.2V132.954Z" fill="#5DB9CA"/>
<path d="M125.8 132.954H118.4V140.335H125.8V132.954Z" fill="#59BCCE"/>
<path d="M118.4 132.954H111V140.335H118.4V132.954Z" fill="#7ECCDD"/>
<path d="M111 132.954H103.6V140.335H111V132.954Z" fill="#A5E5F5"/>
<path d="M103.6 132.954H96.2V140.335H103.6V132.954Z" fill="#98DCF1"/>
<path d="M96.2 132.954H88.8V140.335H96.2V132.954Z" fill="#6FC9E5"/>
<path d="M88.8 132.954H81.4V140.335H88.8V132.954Z" fill="#75D0E7"/>
<path d="M81.4 132.954H74V140.335H81.4V132.954Z" fill="#89D7EF"/>
<path d="M74 132.954H66.6V140.335H74V132.954Z" fill="#6CD1E9"/>
<path d="M66.6 132.954H59.2V140.335H66.6V132.954Z" fill="#6ACCE9"/>
<path d="M59.2 132.954H51.8V140.335H59.2V132.954Z" fill="#6BC7E6"/>
<path d="M51.8 132.954H44.4V140.335H51.8V132.954Z" fill="#65CAE8"/>
<path d="M44.4 132.954H37V140.335H44.4V132.954Z" fill="#63CDE8"/>
<path d="M37 132.954H29.6V140.335H37V132.954Z" fill="#A3E7FB"/>
<path d="M29.6 132.954H22.2V140.335H29.6V132.954Z" fill="#9BE9FB"/>
<path d="M22.2 132.954H14.8V140.335H22.2V132.954Z" fill="#70CBDD"/>
<path d="M162.8 125.572H155.4V132.954H162.8V125.572Z" fill="#387E92"/>
<path d="M155.4 125.572H148V132.954H155.4V125.572Z" fill="#3E8497"/>
<path d="M148 125.572H140.6V132.954H148V125.572Z" fill="#2B6371"/>
<path d="M140.6 125.572H133.2V132.954H140.6V125.572Z" fill="#326B79"/>
<path d="M133.2 125.572H125.8V132.954H133.2V125.572Z" fill="#58B4C7"/>
<path d="M125.8 125.572H118.4V132.954H125.8V125.572Z" fill="#5ABDCD"/>
<path d="M118.4 125.572H111V132.954H118.4V125.572Z" fill="#5BC2D5"/>
<path d="M111 125.572H103.6V132.954H111V125.572Z" fill="#A3E7F9"/>
<path d="M103.6 125.572H96.2V132.954H103.6V125.572Z" fill="#72D3EE"/>
<path d="M96.2 125.572H88.8V132.954H96.2V125.572Z" fill="#6FD1EE"/>
<path d="M88.8 125.572H81.4V132.954H88.8V125.572Z" fill="#4A99B4"/>
<path d="M74 125.572H66.6V132.954H74V125.572Z" fill="#A6DDF1"/>
<path d="M81.4 125.572H74V132.954H81.4V125.572Z" fill="#A6DDF1"/>
<path d="M66.6 125.572H59.2V132.954H66.6V125.572Z" fill="#6CCFEA"/>
<path d="M59.2 125.572H51.8V132.954H59.2V125.572Z" fill="#6CCCE7"/>
<path d="M51.8 125.572H44.4V132.954H51.8V125.572Z" fill="#66CCE7"/>
<path d="M44.4 125.572H37V132.954H44.4V125.572Z" fill="#7CD0E9"/>
<path d="M37 125.572H29.6V132.954H37V125.572Z" fill="#A3E9FA"/>
<path d="M29.6 125.572H22.2V132.954H29.6V125.572Z" fill="#9EEBFA"/>
<path d="M22.2 125.572H14.8V132.954H22.2V125.572Z" fill="#59C1D6"/>
<path d="M155.4 118.191H148V125.572H155.4V118.191Z" fill="#3B8394"/>
<path d="M148 118.191H140.6V125.572H148V118.191Z" fill="#2C6473"/>
<path d="M140.6 118.191H133.2V125.572H140.6V118.191Z" fill="#2A6271"/>
<path d="M133.2 118.191H125.8V125.572H133.2V118.191Z" fill="#3E8DA3"/>
<path d="M125.8 118.191H118.4V125.572H125.8V118.191Z" fill="#50ABBD"/>
<path d="M118.4 118.191H111V125.572H118.4V118.191Z" fill="#60C4D8"/>
<path d="M111 118.191H103.6V125.572H111V118.191Z" fill="#69CCDF"/>
<path d="M103.6 118.191H96.2V125.572H103.6V118.191Z" fill="#8EDDF1"/>
<path d="M96.2 118.191H88.8V125.572H96.2V118.191Z" fill="#6ED0E9"/>
<path d="M88.8 118.191H81.4V125.572H88.8V118.191Z" fill="#2D788B"/>
<path d="M81.4 118.191H74V125.572H81.4V118.191Z" fill="#A9E5F9"/>
<path d="M74 118.191H66.6V125.572H74V118.191Z" fill="#6ACFE9"/>
<path d="M66.6 118.191H59.2V125.572H66.6V118.191Z" fill="#74D4ED"/>
<path d="M59.2 118.191H51.8V125.572H59.2V118.191Z" fill="#5AB2CA"/>
<path d="M51.8 118.191H44.4V125.572H51.8V118.191Z" fill="#71D0E8"/>
<path d="M44.4 118.191H37V125.572H44.4V118.191Z" fill="#6ACFEB"/>
<path d="M37 118.191H29.6V125.572H37V118.191Z" fill="#92E1F2"/>
<path d="M29.6 118.191H22.2V125.572H29.6V118.191Z" fill="#AAEBFA"/>
<path d="M22.2 118.191H14.8V125.572H22.2V118.191Z" fill="#99D7E4"/>
<path d="M155.4 110.809H148V118.191H155.4V110.809Z" fill="#418896"/>
<path d="M148 110.809H140.6V118.191H148V110.809Z" fill="#2E6572"/>
<path d="M140.6 110.809H133.2V118.191H140.6V110.809Z" fill="#2B6370"/>
<path d="M133.2 110.809H125.8V118.191H133.2V110.809Z" fill="#377687"/>
<path d="M125.8 110.809H118.4V118.191H125.8V110.809Z" fill="#3F8FA5"/>
<path d="M118.4 110.809H111V118.191H118.4V110.809Z" fill="#63C5D9"/>
<path d="M111 110.809H103.6V118.191H111V110.809Z" fill="#66C9DD"/>
<path d="M103.6 110.809H96.2V118.191H103.6V110.809Z" fill="#7CD7ED"/>
<path d="M96.2 110.809H88.8V118.191H96.2V110.809Z" fill="#66C4DB"/>
<path d="M88.8 110.809H81.4V118.191H88.8V110.809Z" fill="#3D8A9D"/>
<path d="M81.4 110.809H74V118.191H81.4V110.809Z" fill="#A4E5FA"/>
<path d="M74 110.809H66.6V118.191H74V110.809Z" fill="#66D1E9"/>
<path d="M66.6 110.809H59.2V118.191H66.6V110.809Z" fill="#71D3EC"/>
<path d="M59.2 110.809H51.8V118.191H59.2V110.809Z" fill="#50A6C0"/>
<path d="M51.8 110.809H44.4V118.191H51.8V110.809Z" fill="#73CAE2"/>
<path d="M44.4 110.809H37V118.191H44.4V110.809Z" fill="#67D0E9"/>
<path d="M37 110.809H29.6V118.191H37V110.809Z" fill="#75D4E7"/>
<path d="M29.6 110.809H22.2V118.191H29.6V110.809Z" fill="#9BDCED"/>
<path d="M155.4 103.428H148V110.809H155.4V103.428Z" fill="#52B5C5"/>
<path d="M148 103.428H140.6V110.809H148V103.428Z" fill="#4194A7"/>
<path d="M140.6 103.428H133.2V110.809H140.6V103.428Z" fill="#2C6371"/>
<path d="M133.2 103.428H125.8V110.809H133.2V103.428Z" fill="#2C6572"/>
<path d="M125.8 103.428H118.4V110.809H125.8V103.428Z" fill="#2D6876"/>
<path d="M118.4 103.428H111V110.809H118.4V103.428Z" fill="#4191A8"/>
<path d="M111 103.428H103.6V110.809H111V103.428Z" fill="#67C8DF"/>
<path d="M103.6 103.428H96.2V110.809H103.6V103.428Z" fill="#3A8B9F"/>
<path d="M96.2 103.428H88.8V110.809H96.2V103.428Z" fill="#59ADC6"/>
<path d="M88.8 103.428H81.4V110.809H88.8V103.428Z" fill="#2E798B"/>
<path d="M81.4 103.428H74V110.809H81.4V103.428Z" fill="#A0E9FC"/>
<path d="M74 103.428H66.6V110.809H74V103.428Z" fill="#7BD7EE"/>
<path d="M66.6 103.428H59.2V110.809H66.6V103.428Z" fill="#75D2E8"/>
<path d="M59.2 103.428H51.8V110.809H59.2V103.428Z" fill="#3C8CA1"/>
<path d="M51.8 103.428H44.4V110.809H51.8V103.428Z" fill="#35879E"/>
<path d="M44.4 103.428H37V110.809H44.4V103.428Z" fill="#71CFE3"/>
<path d="M37 103.428H29.6V110.809H37V103.428Z" fill="#62CBDD"/>
<path d="M29.6 103.428H22.2V110.809H29.6V103.428Z" fill="#61C2D7"/>
<path d="M155.4 96.0463H148V103.428H155.4V96.0463Z" fill="#4697A8"/>
<path d="M148 96.0463H140.6V103.428H148V96.0463Z" fill="#4D9FAC"/>
<path d="M140.6 96.0463H133.2V103.428H140.6V96.0463Z" fill="#3A7B8F"/>
<path d="M133.2 96.0463H125.8V103.428H133.2V96.0463Z" fill="#2C6672"/>
<path d="M125.8 96.0463H118.4V103.428H125.8V96.0463Z" fill="#2B6572"/>
<path d="M118.4 96.0463H111V103.428H118.4V96.0463Z" fill="#347384"/>
<path d="M111 96.0463H103.6V103.428H111V96.0463Z" fill="#65BED6"/>
<path d="M103.6 96.0463H96.2V103.428H103.6V96.0463Z" fill="#3A899D"/>
<path d="M96.2 96.0463H88.8V103.428H96.2V96.0463Z" fill="#4090A8"/>
<path d="M88.8 96.0463H81.4V103.428H88.8V96.0463Z" fill="#37869A"/>
<path d="M81.4 96.0463H74V103.428H81.4V96.0463Z" fill="#9EECFD"/>
<path d="M74 96.0463H66.6V103.428H74V96.0463Z" fill="#95DFEF"/>
<path d="M66.6 96.0463H59.2V103.428H66.6V96.0463Z" fill="#64BCD3"/>
<path d="M59.2 96.0463H51.8V103.428H59.2V96.0463Z" fill="#2F859B"/>
<path d="M51.8 96.0463H44.4V103.428H51.8V96.0463Z" fill="#3285A0"/>
<path d="M44.4 96.0463H37V103.428H44.4V96.0463Z" fill="#67D0E0"/>
<path d="M37 96.0463H29.6V103.428H37V96.0463Z" fill="#5EC7D9"/>
<path d="M148 88.6212H140.6V96.0027H148V88.6212Z" fill="#4795AA"/>
<path d="M140.6 88.6212H133.2V96.0027H140.6V88.6212Z" fill="#4693A5"/>
<path d="M133.2 88.6212H125.8V96.0027H133.2V88.6212Z" fill="#4D899C"/>
<path d="M125.8 88.6212H118.4V96.0027H125.8V88.6212Z" fill="#2C6776"/>
<path d="M118.4 88.6212H111V96.0027H118.4V88.6212Z" fill="#296471"/>
<path d="M111 88.6212H103.6V96.0027H111V88.6212Z" fill="#40899E"/>
<path d="M103.6 88.6212H96.2V96.0027H103.6V88.6212Z" fill="#3B889C"/>
<path d="M96.2 88.6212H88.8V96.0027H96.2V88.6212Z" fill="#3A899F"/>
<path d="M88.8 88.6212H81.4V96.0027H88.8V88.6212Z" fill="#54A6B9"/>
<path d="M81.4 88.6212H74V96.0027H81.4V88.6212Z" fill="#A9EEFC"/>
<path d="M74 88.6212H66.6V96.0027H74V88.6212Z" fill="#70D0E6"/>
<path d="M66.6 88.6212H59.2V96.0027H66.6V88.6212Z" fill="#5EB2C7"/>
<path d="M59.2 88.6212H51.8V96.0027H59.2V88.6212Z" fill="#69C8DA"/>
<path d="M51.8 88.6212H44.4V96.0027H51.8V88.6212Z" fill="#67D1DE"/>
<path d="M44.4 88.6212H37V96.0027H44.4V88.6212Z" fill="#4EA7BA"/>
<path d="M140.6 81.2397H133.2V88.6212H140.6V81.2397Z" fill="#4F9BAD"/>
<path d="M133.2 81.2397H125.8V88.6212H133.2V81.2397Z" fill="#427F8F"/>
<path d="M125.8 81.2397H118.4V88.6212H125.8V81.2397Z" fill="#48869A"/>
<path d="M118.4 81.2397H111V88.6212H118.4V81.2397Z" fill="#296371"/>
<path d="M111 81.2397H103.6V88.6212H111V81.2397Z" fill="#38798A"/>
<path d="M103.6 81.2397H96.2V88.6212H103.6V81.2397Z" fill="#3B889C"/>
<path d="M96.2 81.2397H88.8V88.6212H96.2V81.2397Z" fill="#39889F"/>
<path d="M88.8 81.2397H81.4V88.6212H88.8V81.2397Z" fill="#73CBE1"/>
<path d="M81.4 81.2397H74V88.6212H81.4V81.2397Z" fill="#A0E9F9"/>
<path d="M74 81.2397H66.6V88.6212H74V81.2397Z" fill="#5EBCD0"/>
<path d="M66.6 81.2397H59.2V88.6212H66.6V81.2397Z" fill="#6ACDE0"/>
<path d="M59.2 81.2397H51.8V88.6212H59.2V81.2397Z" fill="#6ACEDE"/>
<path d="M51.8 81.2397H44.4V88.6212H51.8V81.2397Z" fill="#4FB2C5"/>
<path d="M44.4 81.2397H37V88.6212H44.4V81.2397Z" fill="#5FC0D3"/>
<path d="M118.4 73.8583H111V81.2397H118.4V73.8583Z" fill="#358295"/>
<path d="M111 73.8583H103.6V81.2397H111V73.8583Z" fill="#2C616F"/>
<path d="M103.6 73.8583H96.2V81.2397H103.6V73.8583Z" fill="#3A889C"/>
<path d="M96.2 73.8583H88.8V81.2397H96.2V73.8583Z" fill="#4896A9"/>
<path d="M88.8 73.8583H81.4V81.2397H88.8V73.8583Z" fill="#5BB6CF"/>
<path d="M81.4 73.8583H74V81.2397H81.4V73.8583Z" fill="#6DCDE5"/>
<path d="M74 73.8583H66.6V81.2397H74V73.8583Z" fill="#57B1C3"/>
<path d="M66.6 73.8583H59.2V81.2397H66.6V73.8583Z" fill="#64C5D8"/>
<path d="M59.2 73.8583H51.8V81.2397H59.2V73.8583Z" fill="#459CB2"/>
<path d="M51.8 73.8583H44.4V81.2397H51.8V73.8583Z" fill="#51B9C9"/>
<path d="M111 66.4768H103.6V73.8583H111V66.4768Z" fill="#2D7183"/>
<path d="M103.6 66.4768H96.2V73.8583H103.6V66.4768Z" fill="#34798A"/>
<path d="M96.2 66.4768H88.8V73.8583H96.2V66.4768Z" fill="#3B889A"/>
<path d="M88.8 66.4768H81.4V73.8583H88.8V66.4768Z" fill="#55AEC4"/>
<path d="M81.4 66.4768H74V73.8583H81.4V66.4768Z" fill="#4B9DB5"/>
<path d="M74 66.4768H66.6V73.8583H74V66.4768Z" fill="#54B0C1"/>
<path d="M66.6 66.4768H59.2V73.8583H66.6V66.4768Z" fill="#4896A5"/>
<path d="M59.2 66.4768H51.8V73.8583H59.2V66.4768Z" fill="#56BED1"/>
<path d="M103.6 59.0953H96.2V66.4768H103.6V59.0953Z" fill="#35899A"/>
<path d="M96.2 59.0953H88.8V66.4768H96.2V59.0953Z" fill="#2D7684"/>
<path d="M88.8 59.0953H81.4V66.4768H88.8V59.0953Z" fill="#3E96AB"/>
<path d="M81.4 59.0953H74V66.4768H81.4V59.0953Z" fill="#5597A8"/>
<path d="M74 59.0953H66.6V66.4768H74V59.0953Z" fill="#4EAEC4"/>
<path d="M96.2 51.7139H88.8V59.0954H96.2V51.7139Z" fill="#316677"/>
<path d="M88.8 51.7139H81.4V59.0954H88.8V51.7139Z" fill="#286272"/>
<path d="M81.4 51.7139H74V59.0954H81.4V51.7139Z" fill="#37869B"/>
<path d="M103.6 44.3325H96.2V51.7139H103.6V44.3325Z" fill="#347B8B"/>
<path d="M96.2 44.3325H88.8V51.7139H96.2V44.3325Z" fill="#67BBD2"/>
<path d="M88.8 44.3325H81.4V51.7139H88.8V44.3325Z" fill="#246171"/>
<path d="M81.4 44.3325H74V51.7139H81.4V44.3325Z" fill="#A2D0D6"/>
<path d="M118.4 36.951H111V44.3324H118.4V36.951Z" fill="#226475"/>
<path d="M111 36.951H103.6V44.3324H111V36.951Z" fill="#246777"/>
<path d="M103.6 36.951H96.2V44.3324H103.6V36.951Z" fill="#70C5E2"/>
<path d="M96.2 36.951H88.8V44.3324H96.2V36.951Z" fill="#4D9FB6"/>
<path d="M88.8 36.951H81.4V44.3324H88.8V36.951Z" fill="#378DA0"/>
<path d="M81.4 36.951H74V44.3324H81.4V36.951Z" fill="#41A3B6"/>
<path d="M133.2 29.5258H125.8V36.9073H133.2V29.5258Z" fill="#378499"/>
<path d="M125.8 29.5258H118.4V36.9073H125.8V29.5258Z" fill="#318598"/>
<path d="M118.4 29.5258H111V36.9073H118.4V29.5258Z" fill="#247084"/>
<path d="M111 29.5258H103.6V36.9073H111V29.5258Z" fill="#377B8D"/>
<path d="M103.6 29.5258H96.2V36.9073H103.6V29.5258Z" fill="#7ED9F4"/>
<path d="M96.2 29.5258H88.8V36.9073H96.2V29.5258Z" fill="#3A8CA2"/>
<path d="M88.8 29.5258H81.4V36.9073H88.8V29.5258Z" fill="#48A9BD"/>
<path d="M81.4 29.5258H74V36.9073H81.4V29.5258Z" fill="#51B8C8"/>
<path d="M133.2 22.1444H125.8V29.5259H133.2V22.1444Z" fill="#378599"/>
<path d="M125.8 22.1444H118.4V29.5259H125.8V22.1444Z" fill="#34869A"/>
<path d="M118.4 22.1444H111V29.5259H118.4V22.1444Z" fill="#36889C"/>
<path d="M111 22.1444H103.6V29.5259H111V22.1444Z" fill="#396476"/>
<path d="M103.6 22.1444H96.2V29.5259H103.6V22.1444Z" fill="#89D9F0"/>
<path d="M96.2 22.1444H88.8V29.5259H96.2V22.1444Z" fill="#4090A5"/>
<path d="M88.8 22.1444H81.4V29.5259H88.8V22.1444Z" fill="#4CA7BB"/>
<path d="M81.4 22.1444H74V29.5259H81.4V22.1444Z" fill="#59B5C5"/>
<path d="M133.2 14.7629H125.8V22.1444H133.2V14.7629Z" fill="#347A8D"/>
<path d="M125.8 14.7629H118.4V22.1444H125.8V14.7629Z" fill="#378598"/>
<path d="M118.4 14.7629H111V22.1444H118.4V14.7629Z" fill="#378092"/>
<path d="M111 14.7629H103.6V22.1444H111V14.7629Z" fill="#437B90"/>
<path d="M103.6 14.7629H96.2V22.1444H103.6V14.7629Z" fill="#8BD8F1"/>
<path d="M96.2 14.7629H88.8V22.1444H96.2V14.7629Z" fill="#3C93AD"/>
<path d="M88.8 14.7629H81.4V22.1444H88.8V14.7629Z" fill="#4CAABC"/>
<path d="M81.4 14.7629H74V22.1444H81.4V14.7629Z" fill="#7ECBD6"/>
<path d="M125.8 7.38147H118.4V14.7629H125.8V7.38147Z" fill="#2D5C6E"/>
<path d="M118.4 7.38147H111V14.7629H118.4V7.38147Z" fill="#2A7F92"/>
<path d="M111 7.38147H103.6V14.7629H111V7.38147Z" fill="#5B9DB6"/>
<path d="M103.6 7.38147H96.2V14.7629H103.6V7.38147Z" fill="#7CD1E9"/>
<path d="M96.2 7.38147H88.8V14.7629H96.2V7.38147Z" fill="#3590AD"/>
<path d="M88.8 7.38147H81.4V14.7629H88.8V7.38147Z" fill="#43A8BC"/>
<path d="M81.4 7.38147H74V14.7629H81.4V7.38147Z" fill="#A4DBE1"/>
<path d="M118.4 0H111V7.38146H118.4V0Z" fill="#69A1AF"/>
<path d="M111 0H103.6V7.38146H111V0Z" fill="#9FD7EE"/>
<path d="M103.6 0H96.2V7.38146H103.6V0Z" fill="#5CA5BC"/>
<path d="M96.2 0H88.8V7.38146H96.2V0Z" fill="#60899A"/>
<path d="M88.8 0H81.4V7.38146H88.8V0Z" fill="#6A8C99"/>
</g>
<defs>
<clipPath id="clip0_2_826">
<rect width="185" height="229" fill="white"/>
</clipPath>
</defs>
</svg>
