<svg width="187" height="237" viewBox="0 0 187 237" fill="none" xmlns="http://www.w3.org/2000/svg">
<g clip-path="url(#clip0_2_2123)">
<path d="M170.538 228.833H162.308V237H170.538V228.833Z" fill="#E7AB48"/>
<path d="M162.308 228.833H154.077V237H162.308V228.833Z" fill="#EBAE50"/>
<path d="M154.077 228.833H145.846V237H154.077V228.833Z" fill="#EBAE50"/>
<path d="M145.846 228.833H137.615V237H145.846V228.833Z" fill="#EBAF51"/>
<path d="M137.615 228.833H129.385V237H137.615V228.833Z" fill="#EEB250"/>
<path d="M129.385 228.833H121.154V237H129.385V228.833Z" fill="#ECAE51"/>
<path d="M121.154 228.833H112.923V237H121.154V228.833Z" fill="#ECB156"/>
<path d="M112.923 228.833H104.692V237H112.923V228.833Z" fill="#EBB055"/>
<path d="M104.692 228.833H96.4615V237H104.692V228.833Z" fill="#EDB255"/>
<path d="M96.4615 228.833H88.2308V237H96.4615V228.833Z" fill="#EEB353"/>
<path d="M88.2308 228.833H80V237H88.2308V228.833Z" fill="#EFB251"/>
<path d="M80 228.833H71.7692V237H80V228.833Z" fill="#EEB24F"/>
<path d="M71.7692 228.833H63.5385V237H71.7692V228.833Z" fill="#ECAF51"/>
<path d="M63.5385 228.833H55.3077V237H63.5385V228.833Z" fill="#EBAF51"/>
<path d="M55.3077 228.833H47.0769V237H55.3077V228.833Z" fill="#EBAF52"/>
<path d="M47.0769 228.833H38.8462V237H47.0769V228.833Z" fill="#F0B958"/>
<path d="M38.8462 228.833H30.6154V237H38.8462V228.833Z" fill="#F4C260"/>
<path d="M30.6154 228.833H22.3846V237H30.6154V228.833Z" fill="#F0BB5C"/>
<path d="M22.3846 228.833H14.1538V237H22.3846V228.833Z" fill="#EEBD5B"/>
<path d="M14.1538 228.833H5.92307V237H14.1538V228.833Z" fill="#F1C45C"/>
<path d="M5.92309 228.833H-2.30768V237H5.92309V228.833Z" fill="#F5CC5C"/>
<path d="M170.538 220.665H162.308V228.833H170.538V220.665Z" fill="#EBB14A"/>
<path d="M162.308 220.665H154.077V228.833H162.308V220.665Z" fill="#DD9E43"/>
<path d="M154.077 220.665H145.846V228.833H154.077V220.665Z" fill="#E0A24C"/>
<path d="M145.846 220.665H137.615V228.833H145.846V220.665Z" fill="#E3A44C"/>
<path d="M137.615 220.665H129.385V228.833H137.615V220.665Z" fill="#F1BD4A"/>
<path d="M129.385 220.665H121.154V228.833H129.385V220.665Z" fill="#ECAD4F"/>
<path d="M121.154 220.665H112.923V228.833H121.154V220.665Z" fill="#ECB052"/>
<path d="M112.923 220.665H104.692V228.833H112.923V220.665Z" fill="#F1B951"/>
<path d="M104.692 220.665H96.4615V228.833H104.692V220.665Z" fill="#F4BD50"/>
<path d="M96.4615 220.665H88.2308V228.833H96.4615V220.665Z" fill="#F3BB4F"/>
<path d="M88.2308 220.665H80V228.833H88.2308V220.665Z" fill="#F2B84E"/>
<path d="M80 220.665H71.7692V228.833H80V220.665Z" fill="#F1B74C"/>
<path d="M71.7692 220.665H63.5385V228.833H71.7692V220.665Z" fill="#EAAD4F"/>
<path d="M63.5385 220.665H55.3077V228.833H63.5385V220.665Z" fill="#EAAD4F"/>
<path d="M55.3077 220.665H47.0769V228.833H55.3077V220.665Z" fill="#EBB45C"/>
<path d="M47.0769 220.665H38.8462V228.833H47.0769V220.665Z" fill="#E6AB58"/>
<path d="M38.8462 220.665H30.6154V228.833H38.8462V220.665Z" fill="#E2A14C"/>
<path d="M30.6154 220.665H22.3846V228.833H30.6154V220.665Z" fill="#E39D4A"/>
<path d="M22.3846 220.665H14.1538V228.833H22.3846V220.665Z" fill="#E29C4B"/>
<path d="M14.1538 220.665H5.92307V228.833H14.1538V220.665Z" fill="#E29A48"/>
<path d="M5.92309 220.665H-2.30768V228.833H5.92309V220.665Z" fill="#E39A47"/>
<path d="M170.538 212.498H162.308V220.665H170.538V212.498Z" fill="#EAB14C"/>
<path d="M162.308 212.498H154.077V220.665H162.308V212.498Z" fill="#DB9C41"/>
<path d="M154.077 212.498H145.846V220.665H154.077V212.498Z" fill="#DC9C43"/>
<path d="M145.846 212.498H137.615V220.665H145.846V212.498Z" fill="#E9AF4A"/>
<path d="M137.615 212.498H129.385V220.665H137.615V212.498Z" fill="#ECAD4B"/>
<path d="M129.385 212.498H121.154V220.665H129.385V212.498Z" fill="#EBAB4D"/>
<path d="M121.154 212.498H112.923V220.665H121.154V212.498Z" fill="#EAAC4E"/>
<path d="M112.923 212.498H104.692V220.665H112.923V212.498Z" fill="#ECB051"/>
<path d="M104.692 212.498H96.4615V220.665H104.692V212.498Z" fill="#E9AD4E"/>
<path d="M96.4615 212.498H88.2308V220.665H96.4615V212.498Z" fill="#EEB551"/>
<path d="M88.2308 212.498H80V220.665H88.2308V212.498Z" fill="#EFB64D"/>
<path d="M80 212.498H71.7692V220.665H80V212.498Z" fill="#EAAC4D"/>
<path d="M71.7692 212.498H63.5385V220.665H71.7692V212.498Z" fill="#E9AC4B"/>
<path d="M63.5385 212.498H55.3077V220.665H63.5385V212.498Z" fill="#E3AC53"/>
<path d="M55.3077 212.498H47.0769V220.665H55.3077V212.498Z" fill="#EAB657"/>
<path d="M47.0769 212.498H38.8462V220.665H47.0769V212.498Z" fill="#F1C452"/>
<path d="M38.8462 212.498H30.6154V220.665H38.8462V212.498Z" fill="#F5C551"/>
<path d="M30.6154 212.498H22.3846V220.665H30.6154V212.498Z" fill="#FBDE65"/>
<path d="M22.3846 212.498H14.1538V220.665H22.3846V212.498Z" fill="#FADE65"/>
<path d="M14.1538 212.498H5.92307V220.665H14.1538V212.498Z" fill="#FADE64"/>
<path d="M5.92309 212.498H-2.30768V220.665H5.92309V212.498Z" fill="#FADD63"/>
<path d="M170.538 204.33H162.308V212.498H170.538V204.33Z" fill="#EEC776"/>
<path d="M162.308 204.33H154.077V212.498H162.308V204.33Z" fill="#DC9C41"/>
<path d="M154.077 204.33H145.846V212.498H154.077V204.33Z" fill="#DB9C41"/>
<path d="M145.846 204.33H137.615V212.498H145.846V204.33Z" fill="#EFB747"/>
<path d="M137.615 204.33H129.385V212.498H137.615V204.33Z" fill="#EBAC4D"/>
<path d="M129.385 204.33H121.154V212.498H129.385V204.33Z" fill="#EAAC4D"/>
<path d="M121.154 204.33H112.923V212.498H121.154V204.33Z" fill="#EBAC4D"/>
<path d="M112.923 204.33H104.692V212.498H112.923V204.33Z" fill="#EBAE4C"/>
<path d="M104.692 204.33H96.4615V212.498H104.692V204.33Z" fill="#EBAD4B"/>
<path d="M96.4615 204.33H88.2308V212.498H96.4615V204.33Z" fill="#EFB65C"/>
<path d="M88.2308 204.33H80V212.498H88.2308V204.33Z" fill="#E9AE52"/>
<path d="M80 204.33H71.7692V212.498H80V204.33Z" fill="#E9AE55"/>
<path d="M71.7692 204.33H63.5385V212.498H71.7692V204.33Z" fill="#E5A34E"/>
<path d="M63.5385 204.33H55.3077V212.498H63.5385V204.33Z" fill="#F2CA53"/>
<path d="M55.3077 204.33H47.0769V212.498H55.3077V204.33Z" fill="#F8CD52"/>
<path d="M47.0769 204.33H38.8462V212.498H47.0769V204.33Z" fill="#F4CC53"/>
<path d="M38.8462 204.33H30.6154V212.498H38.8462V204.33Z" fill="#EEBE56"/>
<path d="M30.6154 204.33H22.3846V212.498H30.6154V204.33Z" fill="#E4A148"/>
<path d="M22.3846 204.33H14.1538V212.498H22.3846V204.33Z" fill="#F0C760"/>
<path d="M14.1538 204.33H5.92307V212.498H14.1538V204.33Z" fill="#FBDE63"/>
<path d="M5.92309 204.33H-2.30768V212.498H5.92309V204.33Z" fill="#FADE67"/>
<path d="M170.538 196.163H162.308V204.33H170.538V196.163Z" fill="#E9C988"/>
<path d="M162.308 196.163H154.077V204.33H162.308V196.163Z" fill="#DD9C43"/>
<path d="M154.077 196.163H145.846V204.33H154.077V196.163Z" fill="#E0A044"/>
<path d="M145.846 196.163H137.615V204.33H145.846V196.163Z" fill="#EDAD4F"/>
<path d="M137.615 196.163H129.385V204.33H137.615V196.163Z" fill="#F0B647"/>
<path d="M129.385 196.163H121.154V204.33H129.385V196.163Z" fill="#F3BC47"/>
<path d="M121.154 196.163H112.923V204.33H121.154V196.163Z" fill="#F6C246"/>
<path d="M112.923 196.163H104.692V204.33H112.923V196.163Z" fill="#F4C145"/>
<path d="M104.692 196.163H96.4615V204.33H104.692V196.163Z" fill="#F7D060"/>
<path d="M96.4615 196.163H88.2308V204.33H96.4615V196.163Z" fill="#F6D568"/>
<path d="M88.2308 196.163H80V204.33H88.2308V196.163Z" fill="#F7DC6C"/>
<path d="M80 196.163H71.7692V204.33H80V196.163Z" fill="#FBE673"/>
<path d="M71.7692 196.163H63.5385V204.33H71.7692V196.163Z" fill="#FCE366"/>
<path d="M63.5385 196.163H55.3077V204.33H63.5385V196.163Z" fill="#FBE469"/>
<path d="M55.3077 196.163H47.0769V204.33H55.3077V196.163Z" fill="#FCE671"/>
<path d="M47.0769 196.163H38.8462V204.33H47.0769V196.163Z" fill="#FBE366"/>
<path d="M38.8462 196.163H30.6154V204.33H38.8462V196.163Z" fill="#F8DC6D"/>
<path d="M30.6154 196.163H22.3846V204.33H30.6154V196.163Z" fill="#F3C756"/>
<path d="M22.3846 196.163H14.1538V204.33H22.3846V196.163Z" fill="#E4A144"/>
<path d="M14.1538 196.163H5.92307V204.33H14.1538V196.163Z" fill="#E5A245"/>
<path d="M5.92309 196.163H-2.30768V204.33H5.92309V196.163Z" fill="#F0CC5E"/>
<path d="M170.538 187.995H162.308V196.163H170.538V187.995Z" fill="#ECD08F"/>
<path d="M162.308 187.995H154.077V196.163H162.308V187.995Z" fill="#DE9C43"/>
<path d="M154.077 187.995H145.846V196.163H154.077V187.995Z" fill="#E7A946"/>
<path d="M145.846 187.995H137.615V196.163H145.846V187.995Z" fill="#F2BB46"/>
<path d="M137.615 187.995H129.385V196.163H137.615V187.995Z" fill="#F6C044"/>
<path d="M129.385 187.995H121.154V196.163H129.385V187.995Z" fill="#F7C348"/>
<path d="M121.154 187.995H112.923V196.163H121.154V187.995Z" fill="#FADC61"/>
<path d="M112.923 187.995H104.692V196.163H112.923V187.995Z" fill="#FCE36A"/>
<path d="M104.692 187.995H96.4615V196.163H104.692V187.995Z" fill="#FDE56C"/>
<path d="M96.4615 187.995H88.2308V196.163H96.4615V187.995Z" fill="#FDE36D"/>
<path d="M88.2308 187.995H80V196.163H88.2308V187.995Z" fill="#FDE674"/>
<path d="M80 187.995H71.7692V196.163H80V187.995Z" fill="#FDE87E"/>
<path d="M71.7692 187.995H63.5385V196.163H71.7692V187.995Z" fill="#FCEF9A"/>
<path d="M63.5385 187.995H55.3077V196.163H63.5385V187.995Z" fill="#FCF1A4"/>
<path d="M55.3077 187.995H47.0769V196.163H55.3077V187.995Z" fill="#FCF1A7"/>
<path d="M47.0769 187.995H38.8462V196.163H47.0769V187.995Z" fill="#FCE56D"/>
<path d="M38.8462 187.995H30.6154V196.163H38.8462V187.995Z" fill="#FBE56C"/>
<path d="M30.6154 187.995H22.3846V196.163H30.6154V187.995Z" fill="#F9CD53"/>
<path d="M22.3846 187.995H14.1538V196.163H22.3846V187.995Z" fill="#E6A344"/>
<path d="M14.1538 187.995H5.92307V196.163H14.1538V187.995Z" fill="#E5A246"/>
<path d="M5.92309 187.995H-2.30768V196.163H5.92309V187.995Z" fill="#F3C95E"/>
<path d="M170.538 179.828H162.308V187.996H170.538V179.828Z" fill="#EFD594"/>
<path d="M162.308 179.828H154.077V187.996H162.308V179.828Z" fill="#DE9D44"/>
<path d="M154.077 179.828H145.846V187.996H154.077V179.828Z" fill="#F0B947"/>
<path d="M145.846 179.828H137.615V187.996H145.846V179.828Z" fill="#F6C244"/>
<path d="M137.615 179.828H129.385V187.996H137.615V179.828Z" fill="#F6C045"/>
<path d="M129.385 179.828H121.154V187.996H129.385V179.828Z" fill="#F6C045"/>
<path d="M121.154 179.828H112.923V187.996H121.154V179.828Z" fill="#FDE469"/>
<path d="M112.923 179.828H104.692V187.996H112.923V179.828Z" fill="#FBDF65"/>
<path d="M104.692 179.828H96.4615V187.996H104.692V179.828Z" fill="#F8D35A"/>
<path d="M96.4615 179.828H88.2308V187.996H96.4615V179.828Z" fill="#FBDE62"/>
<path d="M88.2308 179.828H80V187.996H88.2308V179.828Z" fill="#FDE56A"/>
<path d="M80 179.828H71.7692V187.996H80V179.828Z" fill="#FDE56B"/>
<path d="M71.7692 179.828H63.5385V187.996H71.7692V179.828Z" fill="#FDE46A"/>
<path d="M63.5385 179.828H55.3077V187.996H63.5385V179.828Z" fill="#FEE468"/>
<path d="M55.3077 179.828H47.0769V187.996H55.3077V179.828Z" fill="#FDE468"/>
<path d="M47.0769 179.828H38.8462V187.996H47.0769V179.828Z" fill="#FAF0A3"/>
<path d="M38.8462 179.828H30.6154V187.996H38.8462V179.828Z" fill="#FBE46E"/>
<path d="M30.6154 179.828H22.3846V187.996H30.6154V179.828Z" fill="#FCE66D"/>
<path d="M22.3846 179.828H14.1538V187.996H22.3846V179.828Z" fill="#F8D468"/>
<path d="M14.1538 179.828H5.92307V187.996H14.1538V179.828Z" fill="#E7A248"/>
<path d="M5.92309 179.828H-2.30768V187.996H5.92309V179.828Z" fill="#F2CF5D"/>
<path d="M170.538 171.612H162.308V179.78H170.538V171.612Z" fill="#EED591"/>
<path d="M162.308 171.612H154.077V179.78H162.308V171.612Z" fill="#ECB04B"/>
<path d="M154.077 171.612H145.846V179.78H154.077V171.612Z" fill="#EEB44B"/>
<path d="M145.846 171.612H137.615V179.78H145.846V171.612Z" fill="#F5C143"/>
<path d="M137.615 171.612H129.385V179.78H137.615V171.612Z" fill="#E5A547"/>
<path d="M129.385 171.612H121.154V179.78H129.385V171.612Z" fill="#DE9447"/>
<path d="M121.154 171.612H112.923V179.78H121.154V171.612Z" fill="#F0B461"/>
<path d="M112.923 171.612H104.692V179.78H112.923V171.612Z" fill="#EFB450"/>
<path d="M104.692 171.612H96.4615V179.78H104.692V171.612Z" fill="#F5C253"/>
<path d="M96.4615 171.612H88.2308V179.78H96.4615V171.612Z" fill="#F4BE46"/>
<path d="M88.2308 171.612H80V179.78H88.2308V171.612Z" fill="#FBE265"/>
<path d="M80 171.612H71.7692V179.78H80V171.612Z" fill="#FDE468"/>
<path d="M71.7692 171.612H63.5385V179.78H71.7692V171.612Z" fill="#FDE369"/>
<path d="M63.5385 171.612H55.3077V179.78H63.5385V171.612Z" fill="#FDE368"/>
<path d="M55.3077 171.612H47.0769V179.78H55.3077V171.612Z" fill="#FCE571"/>
<path d="M47.0769 171.612H38.8462V179.78H47.0769V171.612Z" fill="#FCE56C"/>
<path d="M38.8462 171.612H30.6154V179.78H38.8462V171.612Z" fill="#FCED92"/>
<path d="M30.6154 171.612H22.3846V179.78H30.6154V171.612Z" fill="#FCEB81"/>
<path d="M22.3846 171.612H14.1538V179.78H22.3846V171.612Z" fill="#FCE369"/>
<path d="M14.1538 171.612H5.92307V179.78H14.1538V171.612Z" fill="#FBDE65"/>
<path d="M5.92309 171.612H-2.30768V179.78H5.92309V171.612Z" fill="#FCDD65"/>
<path d="M170.538 163.445H162.308V171.612H170.538V163.445Z" fill="#F3DC98"/>
<path d="M162.308 163.445H154.077V171.612H162.308V163.445Z" fill="#F3BD4A"/>
<path d="M154.077 163.445H145.846V171.612H154.077V163.445Z" fill="#E29C49"/>
<path d="M145.846 163.445H137.615V171.612H145.846V163.445Z" fill="#E7A64D"/>
<path d="M137.615 163.445H129.385V171.612H137.615V163.445Z" fill="#ECB24E"/>
<path d="M129.385 163.445H121.154V171.612H129.385V163.445Z" fill="#F1BB4C"/>
<path d="M121.154 163.445H112.923V171.612H121.154V163.445Z" fill="#F6BE44"/>
<path d="M112.923 163.445H104.692V171.612H112.923V163.445Z" fill="#F5BF45"/>
<path d="M104.692 163.445H96.4615V171.612H104.692V163.445Z" fill="#F5BF45"/>
<path d="M96.4615 163.445H88.2308V171.612H96.4615V163.445Z" fill="#F4BE45"/>
<path d="M88.2308 163.445H80V171.612H88.2308V163.445Z" fill="#F5BE46"/>
<path d="M80 163.445H71.7692V171.612H80V163.445Z" fill="#F5CA52"/>
<path d="M71.7692 163.445H63.5385V171.612H71.7692V163.445Z" fill="#FDE366"/>
<path d="M63.5385 163.445H55.3077V171.612H63.5385V163.445Z" fill="#FCE365"/>
<path d="M55.3077 163.445H47.0769V171.612H55.3077V163.445Z" fill="#FBEB92"/>
<path d="M47.0769 163.445H38.8462V171.612H47.0769V163.445Z" fill="#FCE369"/>
<path d="M38.8462 163.445H30.6154V171.612H38.8462V163.445Z" fill="#FCE36B"/>
<path d="M30.6154 163.445H22.3846V171.612H30.6154V163.445Z" fill="#FCEC8F"/>
<path d="M22.3846 163.445H14.1538V171.612H22.3846V163.445Z" fill="#FCE26B"/>
<path d="M14.1538 163.445H5.92307V171.612H14.1538V163.445Z" fill="#FBDC64"/>
<path d="M5.92309 163.445H-2.30768V171.612H5.92309V163.445Z" fill="#FBDD63"/>
<path d="M170.538 155.278H162.308V163.445H170.538V155.278Z" fill="#F8E09F"/>
<path d="M162.308 155.278H154.077V163.445H162.308V155.278Z" fill="#F4C04C"/>
<path d="M154.077 155.278H145.846V163.445H154.077V155.278Z" fill="#EFB351"/>
<path d="M145.846 155.278H137.615V163.445H145.846V155.278Z" fill="#EEB24E"/>
<path d="M137.615 155.278H129.385V163.445H137.615V155.278Z" fill="#EDB04D"/>
<path d="M129.385 155.278H121.154V163.445H129.385V155.278Z" fill="#F6C246"/>
<path d="M121.154 155.278H112.923V163.445H121.154V155.278Z" fill="#F6BF46"/>
<path d="M112.923 155.278H104.692V163.445H112.923V155.278Z" fill="#F5BF46"/>
<path d="M104.692 155.278H96.4615V163.445H104.692V155.278Z" fill="#F5BF45"/>
<path d="M96.4615 155.278H88.2308V163.445H96.4615V155.278Z" fill="#F4BE44"/>
<path d="M88.2308 155.278H80V163.445H88.2308V155.278Z" fill="#F6BF47"/>
<path d="M80 155.278H71.7692V163.445H80V155.278Z" fill="#F5C04A"/>
<path d="M71.7692 155.278H63.5385V163.445H71.7692V155.278Z" fill="#FDE367"/>
<path d="M63.5385 155.278H55.3077V163.445H63.5385V155.278Z" fill="#FBE167"/>
<path d="M55.3077 155.278H47.0769V163.445H55.3077V155.278Z" fill="#FCEE95"/>
<path d="M47.0769 155.278H38.8462V163.445H47.0769V155.278Z" fill="#FDE368"/>
<path d="M38.8462 155.278H30.6154V163.445H38.8462V155.278Z" fill="#FDE368"/>
<path d="M30.6154 155.278H22.3846V163.445H30.6154V155.278Z" fill="#FCE974"/>
<path d="M22.3846 155.278H14.1538V163.445H22.3846V155.278Z" fill="#FDED98"/>
<path d="M14.1538 155.278H5.92307V163.445H14.1538V155.278Z" fill="#FBDD66"/>
<path d="M5.92309 155.278H-2.30768V163.445H5.92309V155.278Z" fill="#FADF6C"/>
<path d="M170.538 147.11H162.308V155.278H170.538V147.11Z" fill="#F6DFA4"/>
<path d="M162.308 147.11H154.077V155.278H162.308V147.11Z" fill="#F6C044"/>
<path d="M154.077 147.11H145.846V155.278H154.077V147.11Z" fill="#F3BB4E"/>
<path d="M145.846 147.11H137.615V155.278H145.846V147.11Z" fill="#EEB04D"/>
<path d="M137.615 147.11H129.385V155.278H137.615V147.11Z" fill="#EDB04C"/>
<path d="M129.385 147.11H121.154V155.278H129.385V147.11Z" fill="#F6C043"/>
<path d="M121.154 147.11H112.923V155.278H121.154V147.11Z" fill="#F5BE45"/>
<path d="M112.923 147.11H104.692V155.278H112.923V147.11Z" fill="#F5BF45"/>
<path d="M104.692 147.11H96.4615V155.278H104.692V147.11Z" fill="#F4BF47"/>
<path d="M96.4615 147.11H88.2308V155.278H96.4615V147.11Z" fill="#FBE56E"/>
<path d="M88.2308 147.11H80V155.278H88.2308V147.11Z" fill="#FDE368"/>
<path d="M80 147.11H71.7692V155.278H80V147.11Z" fill="#FDE368"/>
<path d="M71.7692 147.11H63.5385V155.278H71.7692V147.11Z" fill="#FAE36C"/>
<path d="M63.5385 147.11H55.3077V155.278H63.5385V147.11Z" fill="#F6BE44"/>
<path d="M55.3077 147.11H47.0769V155.278H55.3077V147.11Z" fill="#FCEC88"/>
<path d="M47.0769 147.11H38.8462V155.278H47.0769V147.11Z" fill="#FDE468"/>
<path d="M38.8462 147.11H30.6154V155.278H38.8462V147.11Z" fill="#FDE467"/>
<path d="M30.6154 147.11H22.3846V155.278H30.6154V147.11Z" fill="#FDE568"/>
<path d="M22.3846 147.11H14.1538V155.278H22.3846V147.11Z" fill="#FEF0A4"/>
<path d="M14.1538 147.11H5.92307V155.278H14.1538V147.11Z" fill="#FCDF62"/>
<path d="M170.538 138.943H162.308V147.11H170.538V138.943Z" fill="#EFDBAC"/>
<path d="M162.308 138.943H154.077V147.11H162.308V138.943Z" fill="#F6BF44"/>
<path d="M154.077 138.943H145.846V147.11H154.077V138.943Z" fill="#F5BE44"/>
<path d="M145.846 138.943H137.615V147.11H145.846V138.943Z" fill="#EEB04D"/>
<path d="M137.615 138.943H129.385V147.11H137.615V138.943Z" fill="#F0B74E"/>
<path d="M129.385 138.943H121.154V147.11H129.385V138.943Z" fill="#F6C044"/>
<path d="M121.154 138.943H112.923V147.11H121.154V138.943Z" fill="#F5BF46"/>
<path d="M112.923 138.943H104.692V147.11H112.923V138.943Z" fill="#F8D864"/>
<path d="M104.692 138.943H96.4615V147.11H104.692V138.943Z" fill="#FDE567"/>
<path d="M96.4615 138.943H88.2308V147.11H96.4615V138.943Z" fill="#FCE367"/>
<path d="M88.2308 138.943H80V147.11H88.2308V138.943Z" fill="#FDE366"/>
<path d="M80 138.943H71.7692V147.11H80V138.943Z" fill="#F9E26D"/>
<path d="M71.7692 138.943H63.5385V147.11H71.7692V138.943Z" fill="#F6BF45"/>
<path d="M63.5385 138.943H55.3077V147.11H63.5385V138.943Z" fill="#F5BE45"/>
<path d="M55.3077 138.943H47.0769V147.11H55.3077V138.943Z" fill="#FDEA7C"/>
<path d="M47.0769 138.943H38.8462V147.11H47.0769V138.943Z" fill="#FDE978"/>
<path d="M38.8462 138.943H30.6154V147.11H38.8462V138.943Z" fill="#FEE567"/>
<path d="M30.6154 138.943H22.3846V147.11H30.6154V138.943Z" fill="#FDE368"/>
<path d="M22.3846 138.943H14.1538V147.11H22.3846V138.943Z" fill="#FCEA8C"/>
<path d="M14.1538 138.943H5.92307V147.11H14.1538V138.943Z" fill="#FBDD63"/>
<path d="M170.538 228.833H162.308V237H170.538V228.833Z" fill="#DE9D44"/>
<path d="M178.769 220.665H170.538V228.833H178.769V220.665Z" fill="#E0A044"/>
<path d="M170.538 220.665H162.308V228.833H170.538V220.665Z" fill="#E0A044"/>
<path d="M187 212.498H178.769V220.665H187V212.498Z" fill="#DE9D44"/>
<path d="M178.769 212.498H170.538V220.665H178.769V212.498Z" fill="#E0A044"/>
<path d="M170.538 212.498H162.308V220.665H170.538V212.498Z" fill="#F6C043"/>
<path d="M187 204.33H178.769V212.498H187V204.33Z" fill="#E0A044"/>
<path d="M178.769 204.33H170.538V212.498H178.769V204.33Z" fill="#DE9D44"/>
<path d="M170.538 204.33H162.308V212.498H170.538V204.33Z" fill="#E0A044"/>
<path d="M187 196.163H178.769V204.33H187V196.163Z" fill="#FDE469"/>
<path d="M178.769 196.163H170.538V204.33H178.769V196.163Z" fill="#F6C043"/>
<path d="M170.538 196.163H162.308V204.33H170.538V196.163Z" fill="#DE9D44"/>
<path d="M187 187.995H178.769V196.163H187V187.995Z" fill="#DE9D44"/>
<path d="M178.769 187.995H170.538V196.163H178.769V187.995Z" fill="#F6C043"/>
<path d="M170.538 187.995H162.308V196.163H170.538V187.995Z" fill="#DE9D44"/>
<path d="M187 179.828H178.769V187.996H187V179.828Z" fill="#F6C043"/>
<path d="M178.769 179.828H170.538V187.996H178.769V179.828Z" fill="#DE9D44"/>
<path d="M170.538 179.828H162.308V187.996H170.538V179.828Z" fill="#DE9D44"/>
<path d="M178.769 171.612H170.538V179.78H178.769V171.612Z" fill="#DE9D44"/>
<path d="M170.538 171.612H162.308V179.78H170.538V171.612Z" fill="#F6C043"/>
<path d="M170.538 163.445H162.308V171.612H170.538V163.445Z" fill="#DE9D44"/>
<path d="M170.538 155.278H162.308V163.445H170.538V155.278Z" fill="#F6C043"/>
<path d="M170.538 130.775H162.308V138.943H170.538V130.775Z" fill="#DE9D44"/>
<path d="M162.308 130.775H154.077V138.943H162.308V130.775Z" fill="#F6BF44"/>
<path d="M154.077 130.775H145.846V138.943H154.077V130.775Z" fill="#F6BF44"/>
<path d="M145.846 130.775H137.615V138.943H145.846V130.775Z" fill="#EFB24D"/>
<path d="M137.615 130.775H129.385V138.943H137.615V130.775Z" fill="#F0BA48"/>
<path d="M129.385 130.775H121.154V138.943H129.385V130.775Z" fill="#F8C854"/>
<path d="M121.154 130.775H112.923V138.943H121.154V130.775Z" fill="#FCED85"/>
<path d="M112.923 130.775H104.692V138.943H112.923V130.775Z" fill="#FDE567"/>
<path d="M104.692 130.775H96.4615V138.943H104.692V130.775Z" fill="#FDE367"/>
<path d="M96.4615 130.775H88.2308V138.943H96.4615V130.775Z" fill="#FDE367"/>
<path d="M88.2308 130.775H80V138.943H88.2308V130.775Z" fill="#F7CA57"/>
<path d="M80 130.775H71.7692V138.943H80V130.775Z" fill="#F6BF43"/>
<path d="M71.7692 130.775H63.5385V138.943H71.7692V130.775Z" fill="#F5BF46"/>
<path d="M63.5385 130.775H55.3077V138.943H63.5385V130.775Z" fill="#F8C54A"/>
<path d="M55.3077 130.775H47.0769V138.943H55.3077V130.775Z" fill="#FCE875"/>
<path d="M47.0769 130.775H38.8462V138.943H47.0769V130.775Z" fill="#FDEE9A"/>
<path d="M38.8462 130.775H30.6154V138.943H38.8462V130.775Z" fill="#FDE368"/>
<path d="M30.6154 130.775H22.3846V138.943H30.6154V130.775Z" fill="#FDE366"/>
<path d="M22.3846 130.775H14.1538V138.943H22.3846V130.775Z" fill="#FCDE63"/>
<path d="M162.308 122.608H154.077V130.775H162.308V122.608Z" fill="#F6C043"/>
<path d="M154.077 122.608H145.846V130.775H154.077V122.608Z" fill="#F6BF44"/>
<path d="M145.846 122.608H137.615V130.775H145.846V122.608Z" fill="#F2B84C"/>
<path d="M137.615 122.608H129.385V130.775H137.615V122.608Z" fill="#F4BE49"/>
<path d="M129.385 122.608H121.154V130.775H129.385V122.608Z" fill="#FDF094"/>
<path d="M121.154 122.608H112.923V130.775H121.154V122.608Z" fill="#FCE96F"/>
<path d="M112.923 122.608H104.692V130.775H112.923V122.608Z" fill="#FDE566"/>
<path d="M104.692 122.608H96.4615V130.775H104.692V122.608Z" fill="#FDE367"/>
<path d="M96.4615 122.608H88.2308V130.775H96.4615V122.608Z" fill="#FCE366"/>
<path d="M88.2308 122.608H80V130.775H88.2308V122.608Z" fill="#F4C146"/>
<path d="M80 122.608H71.7692V130.775H80V122.608Z" fill="#F6BF43"/>
<path d="M71.7692 122.608H63.5385V130.775H71.7692V122.608Z" fill="#F5BF45"/>
<path d="M63.5385 122.608H55.3077V130.775H63.5385V122.608Z" fill="#F8CA4F"/>
<path d="M55.3077 122.608H47.0769V130.775H55.3077V122.608Z" fill="#FEE772"/>
<path d="M47.0769 122.608H38.8462V130.775H47.0769V122.608Z" fill="#FDF1A4"/>
<path d="M38.8462 122.608H30.6154V130.775H38.8462V122.608Z" fill="#FCEC83"/>
<path d="M30.6154 122.608H22.3846V130.775H30.6154V122.608Z" fill="#FDE467"/>
<path d="M22.3846 122.608H14.1538V130.775H22.3846V122.608Z" fill="#FADD5F"/>
<path d="M162.308 114.44H154.077V122.608H162.308V114.44Z" fill="#F4CA59"/>
<path d="M154.077 114.44H145.846V122.608H154.077V114.44Z" fill="#F7BF43"/>
<path d="M145.846 114.44H137.615V122.608H145.846V114.44Z" fill="#F5BF45"/>
<path d="M137.615 114.44H129.385V122.608H137.615V114.44Z" fill="#F6C046"/>
<path d="M129.385 114.44H121.154V122.608H129.385V114.44Z" fill="#FCE985"/>
<path d="M121.154 114.44H112.923V122.608H121.154V114.44Z" fill="#FCEC7E"/>
<path d="M112.923 114.44H104.692V122.608H112.923V114.44Z" fill="#FDE466"/>
<path d="M104.692 114.44H96.4615V122.608H104.692V114.44Z" fill="#FCE97D"/>
<path d="M96.4615 114.44H88.2308V122.608H96.4615V114.44Z" fill="#FCE364"/>
<path d="M88.2308 114.44H80V122.608H88.2308V114.44Z" fill="#F7C040"/>
<path d="M80 114.44H71.7692V122.608H80V114.44Z" fill="#EEB645"/>
<path d="M71.7692 114.44H63.5385V122.608H71.7692V114.44Z" fill="#E9AB47"/>
<path d="M63.5385 114.44H55.3077V122.608H63.5385V114.44Z" fill="#F8D157"/>
<path d="M55.3077 114.44H47.0769V122.608H55.3077V114.44Z" fill="#FDE976"/>
<path d="M47.0769 114.44H38.8462V122.608H47.0769V114.44Z" fill="#FEF2A2"/>
<path d="M38.8462 114.44H30.6154V122.608H38.8462V114.44Z" fill="#FEF2A0"/>
<path d="M30.6154 114.44H22.3846V122.608H30.6154V114.44Z" fill="#FCE469"/>
<path d="M22.3846 114.44H14.1538V122.608H22.3846V114.44Z" fill="#FADC60"/>
<path d="M162.308 106.273H154.077V114.44H162.308V106.273Z" fill="#F3CB5B"/>
<path d="M154.077 106.273H145.846V114.44H154.077V106.273Z" fill="#F7C045"/>
<path d="M145.846 106.273H137.615V114.44H145.846V106.273Z" fill="#F5BF45"/>
<path d="M137.615 106.273H129.385V114.44H137.615V106.273Z" fill="#E39A3F"/>
<path d="M129.385 106.273H121.154V114.44H129.385V106.273Z" fill="#E3A243"/>
<path d="M121.154 106.273H112.923V114.44H121.154V106.273Z" fill="#F7CF5A"/>
<path d="M112.923 106.273H104.692V114.44H112.923V106.273Z" fill="#FCED83"/>
<path d="M104.692 106.273H96.4615V114.44H104.692V106.273Z" fill="#FDED94"/>
<path d="M96.4615 106.273H88.2308V114.44H96.4615V106.273Z" fill="#FDE567"/>
<path d="M88.2308 106.273H80V114.44H88.2308V106.273Z" fill="#F7C240"/>
<path d="M80 106.273H71.7692V114.44H80V106.273Z" fill="#F7C140"/>
<path d="M71.7692 106.273H63.5385V114.44H71.7692V106.273Z" fill="#E19941"/>
<path d="M63.5385 106.273H55.3077V114.44H63.5385V106.273Z" fill="#F9D95E"/>
<path d="M55.3077 106.273H47.0769V114.44H55.3077V106.273Z" fill="#FDEE8F"/>
<path d="M47.0769 106.273H38.8462V114.44H47.0769V106.273Z" fill="#FFF2A1"/>
<path d="M38.8462 106.273H30.6154V114.44H38.8462V106.273Z" fill="#FEF2A1"/>
<path d="M30.6154 106.273H22.3846V114.44H30.6154V106.273Z" fill="#FADE61"/>
<path d="M22.3846 106.273H14.1538V114.44H22.3846V106.273Z" fill="#F9DC5F"/>
<path d="M154.077 98.0573H145.846V106.225H154.077V98.0573Z" fill="#F5C250"/>
<path d="M145.846 98.0573H137.615V106.225H145.846V98.0573Z" fill="#F0BE49"/>
<path d="M137.615 98.0573H129.385V106.225H137.615V98.0573Z" fill="#E3A547"/>
<path d="M129.385 98.0573H121.154V106.225H129.385V98.0573Z" fill="#DE9A40"/>
<path d="M121.154 98.0573H112.923V106.225H121.154V98.0573Z" fill="#E5A544"/>
<path d="M112.923 98.0573H104.692V106.225H112.923V98.0573Z" fill="#F4C048"/>
<path d="M104.692 98.0573H96.4615V106.225H104.692V98.0573Z" fill="#FCE366"/>
<path d="M96.4615 98.0573H88.2308V106.225H96.4615V98.0573Z" fill="#FEF39F"/>
<path d="M88.2308 98.0573H80V106.225H88.2308V98.0573Z" fill="#F8C141"/>
<path d="M80 98.0573H71.7692V106.225H80V98.0573Z" fill="#F8C140"/>
<path d="M71.7692 98.0573H63.5385V106.225H71.7692V98.0573Z" fill="#E7A846"/>
<path d="M63.5385 98.0573H55.3077V106.225H63.5385V98.0573Z" fill="#FCE56A"/>
<path d="M55.3077 98.0573H47.0769V106.225H55.3077V98.0573Z" fill="#FEF3A4"/>
<path d="M47.0769 98.0573H38.8462V106.225H47.0769V98.0573Z" fill="#FEF2A2"/>
<path d="M38.8462 98.0573H30.6154V106.225H38.8462V98.0573Z" fill="#FDED8B"/>
<path d="M30.6154 98.0573H22.3846V106.225H30.6154V98.0573Z" fill="#FADC61"/>
<path d="M145.846 89.8899H137.615V98.0573H145.846V89.8899Z" fill="#E29B42"/>
<path d="M137.615 89.8899H129.385V98.0573H137.615V89.8899Z" fill="#DF9941"/>
<path d="M129.385 89.8899H121.154V98.0573H129.385V89.8899Z" fill="#DE9B3F"/>
<path d="M121.154 89.8899H112.923V98.0573H121.154V89.8899Z" fill="#E0993E"/>
<path d="M112.923 89.8899H104.692V98.0573H112.923V89.8899Z" fill="#E9AB45"/>
<path d="M104.692 89.8899H96.4615V98.0573H104.692V89.8899Z" fill="#FADD60"/>
<path d="M96.4615 89.8899H88.2308V98.0573H96.4615V89.8899Z" fill="#FCF2A5"/>
<path d="M88.2308 89.8899H80V98.0573H88.2308V89.8899Z" fill="#F6C23F"/>
<path d="M80 89.8899H71.7692V98.0573H80V89.8899Z" fill="#F7C13D"/>
<path d="M71.7692 89.8899H63.5385V98.0573H71.7692V89.8899Z" fill="#EEB745"/>
<path d="M63.5385 89.8899H55.3077V98.0573H63.5385V89.8899Z" fill="#FCE367"/>
<path d="M55.3077 89.8899H47.0769V98.0573H55.3077V89.8899Z" fill="#FEF2A6"/>
<path d="M47.0769 89.8899H38.8462V98.0573H47.0769V89.8899Z" fill="#FDF3A3"/>
<path d="M38.8462 89.8899H30.6154V98.0573H38.8462V89.8899Z" fill="#FCE56E"/>
<path d="M30.6154 89.8899H22.3846V98.0573H30.6154V89.8899Z" fill="#FADB61"/>
<path d="M121.154 81.7225H112.923V89.8899H121.154V81.7225Z" fill="#E0993F"/>
<path d="M112.923 81.7225H104.692V89.8899H112.923V81.7225Z" fill="#DF993E"/>
<path d="M104.692 81.7225H96.4615V89.8899H104.692V81.7225Z" fill="#F1B545"/>
<path d="M96.4615 81.7225H88.2308V89.8899H96.4615V81.7225Z" fill="#FBE77E"/>
<path d="M88.2308 81.7225H80V89.8899H88.2308V81.7225Z" fill="#F7D861"/>
<path d="M80 81.7225H71.7692V89.8899H80V81.7225Z" fill="#EEB446"/>
<path d="M71.7692 81.7225H63.5385V89.8899H71.7692V81.7225Z" fill="#F6C143"/>
<path d="M63.5385 81.7225H55.3077V89.8899H63.5385V81.7225Z" fill="#FDE56A"/>
<path d="M55.3077 81.7225H47.0769V89.8899H55.3077V81.7225Z" fill="#FCE977"/>
<path d="M47.0769 81.7225H38.8462V89.8899H47.0769V81.7225Z" fill="#FCE066"/>
<path d="M38.8462 81.7225H30.6154V89.8899H38.8462V81.7225Z" fill="#FCDC60"/>
<path d="M30.6154 81.7225H22.3846V89.8899H30.6154V81.7225Z" fill="#FADB60"/>
<path d="M121.154 73.5551H112.923V81.7225H121.154V73.5551Z" fill="#82807F"/>
<path d="M112.923 73.5551H104.692V81.7225H112.923V73.5551Z" fill="#907E61"/>
<path d="M104.692 73.5551H96.4615V81.7225H104.692V73.5551Z" fill="#DE993F"/>
<path d="M96.4615 73.5551H88.2308V81.7225H96.4615V73.5551Z" fill="#F4C753"/>
<path d="M88.2308 73.5551H80V81.7225H88.2308V73.5551Z" fill="#F8E266"/>
<path d="M80 73.5551H71.7692V81.7225H80V73.5551Z" fill="#E09F4B"/>
<path d="M71.7692 73.5551H63.5385V81.7225H71.7692V73.5551Z" fill="#F8C344"/>
<path d="M63.5385 73.5551H55.3077V81.7225H63.5385V73.5551Z" fill="#FCDF62"/>
<path d="M55.3077 73.5551H47.0769V81.7225H55.3077V73.5551Z" fill="#FCDD60"/>
<path d="M47.0769 73.5551H38.8462V81.7225H47.0769V73.5551Z" fill="#FCDB5D"/>
<path d="M38.8462 73.5551H30.6154V81.7225H38.8462V73.5551Z" fill="#FBDD66"/>
<path d="M104.692 65.3876H96.4615V73.5551H104.692V65.3876Z" fill="#AAA9A6"/>
<path d="M96.4615 65.3876H88.2308V73.5551H96.4615V65.3876Z" fill="#DBA254"/>
<path d="M88.2308 65.3876H80V73.5551H88.2308V65.3876Z" fill="#F4D15C"/>
<path d="M80 65.3876H71.7692V73.5551H80V65.3876Z" fill="#E6A34C"/>
<path d="M71.7692 65.3876H63.5385V73.5551H71.7692V65.3876Z" fill="#DDA954"/>
<path d="M63.5385 65.3876H55.3077V73.5551H63.5385V65.3876Z" fill="#EBBA50"/>
<path d="M55.3077 65.3876H47.0769V73.5551H55.3077V65.3876Z" fill="#D9C297"/>
<path d="M47.0769 65.3876H38.8462V73.5551H47.0769V65.3876Z" fill="#7A7E81"/>
<path d="M38.8462 65.3876H30.6154V73.5551H38.8462V65.3876Z" fill="#6E7176"/>
<path d="M112.923 57.2202H104.692V65.3876H112.923V57.2202Z" fill="#9D9EA1"/>
<path d="M88.2308 57.2202H80V65.3876H88.2308V57.2202Z" fill="#CFA04B"/>
<path d="M80 57.2202H71.7692V65.3876H80V57.2202Z" fill="#EEBA54"/>
<path d="M71.7692 57.2202H63.5385V65.3876H71.7692V57.2202Z" fill="#D59D4A"/>
<path d="M63.5385 57.2202H55.3077V65.3876H63.5385V57.2202Z" fill="#AF8956"/>
<path d="M55.3077 57.2202H47.0769V65.3876H55.3077V57.2202Z" fill="#8C8E8D"/>
<path d="M104.692 49.0528H96.4615V57.2202H104.692V49.0528Z" fill="#ABA9AB"/>
<path d="M96.4615 49.0528H88.2308V57.2202H96.4615V49.0528Z" fill="#746A67"/>
<path d="M88.2308 49.0528H80V57.2202H88.2308V49.0528Z" fill="#8B744A"/>
<path d="M80 49.0528H71.7692V57.2202H80V49.0528Z" fill="#9A7A4E"/>
<path d="M71.7692 49.0528H63.5385V57.2202H71.7692V49.0528Z" fill="#BC9B63"/>
<path d="M55.3077 49.0528H47.0769V57.2202H55.3077V49.0528Z" fill="#A0A2A3"/>
<path d="M47.0769 49.0528H38.8462V57.2202H47.0769V49.0528Z" fill="#A1A4A5"/>
<path d="M112.923 40.8854H104.692V49.0528H112.923V40.8854Z" fill="#F9D76A"/>
<path d="M104.692 40.8854H96.4615V49.0528H104.692V40.8854Z" fill="#F6C656"/>
<path d="M96.4615 40.8854H88.2308V49.0528H96.4615V40.8854Z" fill="#F4CF5E"/>
<path d="M88.2308 40.8854H80V49.0528H88.2308V40.8854Z" fill="#E19B3F"/>
<path d="M80 40.8854H71.7692V49.0528H80V40.8854Z" fill="#E0973D"/>
<path d="M71.7692 40.8854H63.5385V49.0528H71.7692V40.8854Z" fill="#EBB04D"/>
<path d="M63.5385 40.8854H55.3077V49.0528H63.5385V40.8854Z" fill="#EDB851"/>
<path d="M55.3077 40.8854H47.0769V49.0528H55.3077V40.8854Z" fill="#F5C152"/>
<path d="M129.385 32.6697H121.154V40.8371H129.385V32.6697Z" fill="#F8CA57"/>
<path d="M121.154 32.6697H112.923V40.8371H121.154V32.6697Z" fill="#F4C250"/>
<path d="M112.923 32.6697H104.692V40.8371H112.923V32.6697Z" fill="#F5C654"/>
<path d="M104.692 32.6697H96.4615V40.8371H104.692V32.6697Z" fill="#F4CD58"/>
<path d="M96.4615 32.6697H88.2308V40.8371H96.4615V32.6697Z" fill="#F6C140"/>
<path d="M88.2308 32.6697H80V40.8371H88.2308V32.6697Z" fill="#DE9740"/>
<path d="M80 32.6697H71.7692V40.8371H80V32.6697Z" fill="#DD973E"/>
<path d="M71.7692 32.6697H63.5385V40.8371H71.7692V32.6697Z" fill="#EDC35C"/>
<path d="M63.5385 32.6697H55.3077V40.8371H63.5385V32.6697Z" fill="#FBDF61"/>
<path d="M55.3077 32.6697H47.0769V40.8371H55.3077V32.6697Z" fill="#EAB550"/>
<path d="M47.0769 32.6697H38.8462V40.8371H47.0769V32.6697Z" fill="#F6C758"/>
<path d="M38.8462 32.6697H30.6154V40.8371H38.8462V32.6697Z" fill="#F4BD45"/>
<path d="M30.6154 32.6697H22.3846V40.8371H30.6154V32.6697Z" fill="#FBE062"/>
<path d="M137.615 24.5023H129.385V32.6697H137.615V24.5023Z" fill="#F7C859"/>
<path d="M129.385 24.5023H121.154V32.6697H129.385V24.5023Z" fill="#F4C559"/>
<path d="M121.154 24.5023H112.923V32.6697H121.154V24.5023Z" fill="#F7C850"/>
<path d="M112.923 24.5023H104.692V32.6697H112.923V24.5023Z" fill="#F6E17D"/>
<path d="M104.692 24.5023H96.4615V32.6697H104.692V24.5023Z" fill="#F7D667"/>
<path d="M96.4615 24.5023H88.2308V32.6697H96.4615V24.5023Z" fill="#F6C042"/>
<path d="M88.2308 24.5023H80V32.6697H88.2308V24.5023Z" fill="#EDB446"/>
<path d="M80 24.5023H71.7692V32.6697H80V24.5023Z" fill="#DF9940"/>
<path d="M71.7692 24.5023H63.5385V32.6697H71.7692V24.5023Z" fill="#E5AA4C"/>
<path d="M63.5385 24.5023H55.3077V32.6697H63.5385V24.5023Z" fill="#FCDE62"/>
<path d="M55.3077 24.5023H47.0769V32.6697H55.3077V24.5023Z" fill="#F8DC61"/>
<path d="M47.0769 24.5023H38.8462V32.6697H47.0769V24.5023Z" fill="#EBB254"/>
<path d="M38.8462 24.5023H30.6154V32.6697H38.8462V24.5023Z" fill="#F7DE67"/>
<path d="M30.6154 24.5023H22.3846V32.6697H30.6154V24.5023Z" fill="#FBDE61"/>
<path d="M129.385 16.3348H121.154V24.5023H129.385V16.3348Z" fill="#F9DB78"/>
<path d="M121.154 16.3348H112.923V24.5023H121.154V16.3348Z" fill="#F7C349"/>
<path d="M112.923 16.3348H104.692V24.5023H112.923V16.3348Z" fill="#F6C144"/>
<path d="M104.692 16.3348H96.4615V24.5023H104.692V16.3348Z" fill="#F8C142"/>
<path d="M96.4615 16.3348H88.2308V24.5023H96.4615V16.3348Z" fill="#F6C044"/>
<path d="M88.2308 16.3348H80V24.5023H88.2308V16.3348Z" fill="#F7E380"/>
<path d="M80 16.3348H71.7692V24.5023H80V16.3348Z" fill="#F4DC7B"/>
<path d="M71.7692 16.3348H63.5385V24.5023H71.7692V16.3348Z" fill="#DE9941"/>
<path d="M63.5385 16.3348H55.3077V24.5023H63.5385V16.3348Z" fill="#FAE170"/>
<path d="M55.3077 16.3348H47.0769V24.5023H55.3077V16.3348Z" fill="#FBDE60"/>
<path d="M47.0769 16.3348H38.8462V24.5023H47.0769V16.3348Z" fill="#F7D75B"/>
<path d="M38.8462 16.3348H30.6154V24.5023H38.8462V16.3348Z" fill="#E9A649"/>
<path d="M30.6154 16.3348H22.3846V24.5023H30.6154V16.3348Z" fill="#FCDF5E"/>
<path d="M121.154 8.16742H112.923V16.3348H121.154V8.16742Z" fill="#F7BF45"/>
<path d="M112.923 8.16742H104.692V16.3348H112.923V8.16742Z" fill="#FADC5A"/>
<path d="M104.692 8.16742H96.4615V16.3348H104.692V8.16742Z" fill="#F9C045"/>
<path d="M96.4615 8.16742H88.2308V16.3348H96.4615V8.16742Z" fill="#F7CF5C"/>
<path d="M88.2308 8.16742H80V16.3348H88.2308V8.16742Z" fill="#FDDE63"/>
<path d="M80 8.16742H71.7692V16.3348H80V8.16742Z" fill="#FCDD63"/>
<path d="M71.7692 8.16742H63.5385V16.3348H71.7692V8.16742Z" fill="#ECB33E"/>
<path d="M63.5385 8.16742H55.3077V16.3348H63.5385V8.16742Z" fill="#FAE46E"/>
<path d="M55.3077 8.16742H47.0769V16.3348H55.3077V8.16742Z" fill="#FCDD63"/>
<path d="M47.0769 8.16742H38.8462V16.3348H47.0769V8.16742Z" fill="#FCDE61"/>
<path d="M38.8462 8.16742H30.6154V16.3348H38.8462V8.16742Z" fill="#F6D35C"/>
<path d="M112.923 0H104.692V8.16741H112.923V0Z" fill="#FAE369"/>
<path d="M104.692 0H96.4615V8.16741H104.692V0Z" fill="#FDDE64"/>
<path d="M96.4615 0H88.2308V8.16741H96.4615V0Z" fill="#FCDD62"/>
<path d="M88.2308 0H80V8.16741H88.2308V0Z" fill="#FBE26B"/>
<path d="M80 0H71.7692V8.16741H80V0Z" fill="#FCDF64"/>
<path d="M71.7692 0H63.5385V8.16741H71.7692V0Z" fill="#F5C148"/>
<path d="M63.5385 0H55.3077V8.16741H63.5385V0Z" fill="#FCDE61"/>
<path d="M55.3077 0H47.0769V8.16741H55.3077V0Z" fill="#FADF67"/>
</g>
<defs>
<clipPath id="clip0_2_2123">
<rect width="214" height="237" fill="white" transform="translate(-27)"/>
</clipPath>
</defs>
</svg>
