<svg width="174" height="230" viewBox="0 0 174 230" fill="none" xmlns="http://www.w3.org/2000/svg">
<g clip-path="url(#clip0_2_1303)">
<path d="M174 222.111H166.106V230.068H174V222.111Z" fill="#DB7635"/>
<path d="M166.106 222.111H158.212V230.068H166.106V222.111Z" fill="#D66D2F"/>
<path d="M158.212 222.111H150.319V230.068H158.212V222.111Z" fill="#D76F36"/>
<path d="M150.251 222.111H142.357V230.068H150.251V222.111Z" fill="#D36D32"/>
<path d="M142.358 222.111H134.464V230.068H142.358V222.111Z" fill="#D46D30"/>
<path d="M134.464 222.111H126.57V230.068H134.464V222.111Z" fill="#D77033"/>
<path d="M126.57 222.111H118.676V230.068H126.57V222.111Z" fill="#D87236"/>
<path d="M118.609 222.111H110.715V230.068H118.609V222.111Z" fill="#D77236"/>
<path d="M110.715 222.111H102.821V230.068H110.715V222.111Z" fill="#D97236"/>
<path d="M102.821 222.111H94.9275V230.068H102.821V222.111Z" fill="#D87333"/>
<path d="M94.9275 222.111H87.0337V230.068H94.9275V222.111Z" fill="#DB7834"/>
<path d="M86.9663 222.111H79.0725V230.068H86.9663V222.111Z" fill="#DD7E35"/>
<path d="M79.0725 222.111H71.1787V230.068H79.0725V222.111Z" fill="#CE6E31"/>
<path d="M71.1788 222.111H63.285V230.068H71.1788V222.111Z" fill="#CD6E34"/>
<path d="M63.285 222.111H55.3912V230.068H63.285V222.111Z" fill="#C4662F"/>
<path d="M55.3238 222.111H47.43V230.068H55.3238V222.111Z" fill="#CE702E"/>
<path d="M47.43 222.111H39.5363V230.068H47.43V222.111Z" fill="#D6742E"/>
<path d="M39.5363 222.111H31.6425V230.068H39.5363V222.111Z" fill="#DA7933"/>
<path d="M31.6425 222.111H23.7487V230.068H31.6425V222.111Z" fill="#FA9937"/>
<path d="M23.6813 222.111H15.7875V230.068H23.6813V222.111Z" fill="#FC9835"/>
<path d="M15.7875 222.111H7.89375V230.068H15.7875V222.111Z" fill="#F89333"/>
<path d="M7.89376 222.111H0V230.068H7.89376V222.111Z" fill="#F19135"/>
<path d="M174 214.154H166.106V222.111H174V214.154Z" fill="#DA7133"/>
<path d="M166.106 214.154H158.212V222.111H166.106V214.154Z" fill="#D36832"/>
<path d="M158.212 214.154H150.319V222.111H158.212V214.154Z" fill="#D46932"/>
<path d="M150.251 214.154H142.357V222.111H150.251V214.154Z" fill="#D56931"/>
<path d="M142.358 214.154H134.464V222.111H142.358V214.154Z" fill="#D66A30"/>
<path d="M134.464 214.154H126.57V222.111H134.464V214.154Z" fill="#D86F34"/>
<path d="M126.57 214.154H118.676V222.111H126.57V214.154Z" fill="#D97337"/>
<path d="M118.609 214.154H110.715V222.111H118.609V214.154Z" fill="#DD7A3C"/>
<path d="M110.715 214.154H102.821V222.111H110.715V214.154Z" fill="#D97534"/>
<path d="M102.821 214.154H94.9275V222.111H102.821V214.154Z" fill="#DC7936"/>
<path d="M94.9275 214.154H87.0337V222.111H94.9275V214.154Z" fill="#DE7B38"/>
<path d="M86.9663 214.154H79.0725V222.111H86.9663V214.154Z" fill="#DE7C36"/>
<path d="M79.0725 214.154H71.1787V222.111H79.0725V214.154Z" fill="#DE7D33"/>
<path d="M71.1788 214.154H63.285V222.111H71.1788V214.154Z" fill="#DD7D32"/>
<path d="M63.285 214.154H55.3912V222.111H63.285V214.154Z" fill="#DB7D33"/>
<path d="M55.3238 214.154H47.43V222.111H55.3238V214.154Z" fill="#D37C33"/>
<path d="M47.43 214.154H39.5363V222.111H47.43V214.154Z" fill="#D07232"/>
<path d="M39.5363 214.154H31.6425V222.111H39.5363V214.154Z" fill="#E98839"/>
<path d="M31.6425 214.154H23.7487V222.111H31.6425V214.154Z" fill="#FD9C37"/>
<path d="M23.6813 214.154H15.7875V222.111H23.6813V214.154Z" fill="#FD9A35"/>
<path d="M15.7875 214.154H7.89375V222.111H15.7875V214.154Z" fill="#F48C34"/>
<path d="M7.89376 214.154H0V222.111H7.89376V214.154Z" fill="#F49B3F"/>
<path d="M174 206.198H166.106V214.154H174V206.198Z" fill="#DF7934"/>
<path d="M166.106 206.198H158.212V214.154H166.106V206.198Z" fill="#DA7532"/>
<path d="M158.212 206.198H150.319V214.154H158.212V206.198Z" fill="#DA7534"/>
<path d="M150.251 206.198H142.357V214.154H150.251V206.198Z" fill="#DB7634"/>
<path d="M142.358 206.198H134.464V214.154H142.358V206.198Z" fill="#DD7A37"/>
<path d="M134.464 206.198H126.57V214.154H134.464V206.198Z" fill="#DA7636"/>
<path d="M126.57 206.198H118.676V214.154H126.57V206.198Z" fill="#DC7C3B"/>
<path d="M118.609 206.198H110.715V214.154H118.609V206.198Z" fill="#9C5C31"/>
<path d="M110.715 206.198H102.821V214.154H110.715V206.198Z" fill="#C66F33"/>
<path d="M102.821 206.198H94.9275V214.154H102.821V206.198Z" fill="#DD7833"/>
<path d="M94.9275 206.198H87.0337V214.154H94.9275V206.198Z" fill="#E3813C"/>
<path d="M86.9663 206.198H79.0725V214.154H86.9663V206.198Z" fill="#EB8E45"/>
<path d="M79.0725 206.198H71.1787V214.154H79.0725V206.198Z" fill="#E78D38"/>
<path d="M71.1788 206.198H63.285V214.154H71.1788V206.198Z" fill="#F19A44"/>
<path d="M63.285 206.198H55.3912V214.154H63.285V206.198Z" fill="#F5A541"/>
<path d="M55.3238 206.198H47.43V214.154H55.3238V206.198Z" fill="#FBB14A"/>
<path d="M47.43 206.198H39.5363V214.154H47.43V206.198Z" fill="#F8A94E"/>
<path d="M39.5363 206.198H31.6425V214.154H39.5363V206.198Z" fill="#F9A94D"/>
<path d="M31.6425 206.198H23.7487V214.154H31.6425V206.198Z" fill="#FDAF4E"/>
<path d="M23.6813 206.198H15.7875V214.154H23.6813V206.198Z" fill="#FCA43F"/>
<path d="M15.7875 206.198H7.89375V214.154H15.7875V206.198Z" fill="#F48630"/>
<path d="M174 198.309H166.106V206.266H174V198.309Z" fill="#DD7931"/>
<path d="M166.106 198.309H158.212V206.266H166.106V198.309Z" fill="#E2813D"/>
<path d="M158.212 198.309H150.319V206.266H158.212V198.309Z" fill="#E07C3B"/>
<path d="M150.251 198.309H142.357V206.266H150.251V198.309Z" fill="#E8873A"/>
<path d="M142.358 198.309H134.464V206.266H142.358V198.309Z" fill="#F09339"/>
<path d="M134.464 198.309H126.57V206.266H134.464V198.309Z" fill="#6D4E37"/>
<path d="M126.57 198.309H118.676V206.266H126.57V198.309Z" fill="#453433"/>
<path d="M118.609 198.309H110.715V206.266H118.609V198.309Z" fill="#513430"/>
<path d="M110.715 198.309H102.821V206.266H110.715V198.309Z" fill="#58322E"/>
<path d="M102.821 198.309H94.9275V206.266H102.821V198.309Z" fill="#EEA03E"/>
<path d="M94.9275 198.309H87.0337V206.266H94.9275V198.309Z" fill="#6E3935"/>
<path d="M86.9663 198.309H79.0725V206.266H86.9663V198.309Z" fill="#703732"/>
<path d="M79.0725 198.309H71.1787V206.266H79.0725V198.309Z" fill="#743F39"/>
<path d="M71.1788 198.309H63.285V206.266H71.1788V198.309Z" fill="#B06F42"/>
<path d="M63.285 198.309H55.3912V206.266H63.285V198.309Z" fill="#E58D3E"/>
<path d="M55.3238 198.309H47.43V206.266H55.3238V198.309Z" fill="#E58D40"/>
<path d="M47.43 198.309H39.5363V206.266H47.43V198.309Z" fill="#F8A63C"/>
<path d="M39.5363 198.309H31.6425V206.266H39.5363V198.309Z" fill="#FBAC44"/>
<path d="M31.6425 198.309H23.7487V206.266H31.6425V198.309Z" fill="#FDB052"/>
<path d="M23.6813 198.309H15.7875V206.266H23.6813V198.309Z" fill="#FDA33F"/>
<path d="M15.7875 198.309H7.89375V206.266H15.7875V198.309Z" fill="#F0842F"/>
<path d="M174 190.352H166.106V198.309H174V190.352Z" fill="#E08038"/>
<path d="M166.106 190.352H158.212V198.309H166.106V190.352Z" fill="#DB7730"/>
<path d="M158.212 190.352H150.319V198.309H158.212V190.352Z" fill="#EA8A37"/>
<path d="M150.251 190.352H142.357V198.309H150.251V190.352Z" fill="#F59335"/>
<path d="M142.358 190.352H134.464V198.309H142.358V190.352Z" fill="#D58031"/>
<path d="M134.464 190.352H126.57V198.309H134.464V190.352Z" fill="#403233"/>
<path d="M126.57 190.352H118.676V198.309H126.57V190.352Z" fill="#47302F"/>
<path d="M118.609 190.352H110.715V198.309H118.609V190.352Z" fill="#68342F"/>
<path d="M110.715 190.352H102.821V198.309H110.715V190.352Z" fill="#65322F"/>
<path d="M102.821 190.352H94.9275V198.309H102.821V190.352Z" fill="#FAB34A"/>
<path d="M94.9275 190.352H87.0337V198.309H94.9275V190.352Z" fill="#65302D"/>
<path d="M86.9663 190.352H79.0725V198.309H86.9663V190.352Z" fill="#642E2A"/>
<path d="M79.0725 190.352H71.1787V198.309H79.0725V190.352Z" fill="#662F2B"/>
<path d="M71.1788 190.352H63.285V198.309H71.1788V190.352Z" fill="#67322E"/>
<path d="M63.285 190.352H55.3912V198.309H63.285V190.352Z" fill="#FCAA3A"/>
<path d="M55.3238 190.352H47.43V198.309H55.3238V190.352Z" fill="#FDA93A"/>
<path d="M47.43 190.352H39.5363V198.309H47.43V190.352Z" fill="#F8A63D"/>
<path d="M39.5363 190.352H31.6425V198.309H39.5363V190.352Z" fill="#F19D3D"/>
<path d="M31.6425 190.352H23.7487V198.309H31.6425V190.352Z" fill="#F09C3E"/>
<path d="M23.6813 190.352H15.7875V198.309H23.6813V190.352Z" fill="#FCA23A"/>
<path d="M15.7875 190.352H7.89375V198.309H15.7875V190.352Z" fill="#F78D32"/>
<path d="M174 182.463H166.106V190.42H174V182.463Z" fill="#DC7C35"/>
<path d="M166.106 182.463H158.212V190.42H166.106V182.463Z" fill="#DD7831"/>
<path d="M158.212 182.463H150.319V190.42H158.212V182.463Z" fill="#F1943B"/>
<path d="M150.251 182.463H142.357V190.42H150.251V182.463Z" fill="#F28E33"/>
<path d="M142.358 182.463H134.464V190.42H142.358V182.463Z" fill="#6E4B30"/>
<path d="M134.464 182.463H126.57V190.42H134.464V182.463Z" fill="#443229"/>
<path d="M126.57 182.463H118.676V190.42H126.57V182.463Z" fill="#A5703B"/>
<path d="M118.609 182.463H110.715V190.42H118.609V182.463Z" fill="#8B5136"/>
<path d="M110.715 182.463H102.821V190.42H110.715V182.463Z" fill="#8A543A"/>
<path d="M102.821 182.463H94.9275V190.42H102.821V182.463Z" fill="#FBB54A"/>
<path d="M94.9275 182.463H87.0337V190.42H94.9275V182.463Z" fill="#A8723D"/>
<path d="M86.9663 182.463H79.0725V190.42H86.9663V182.463Z" fill="#A86F38"/>
<path d="M79.0725 182.463H71.1787V190.42H79.0725V182.463Z" fill="#6C3B2E"/>
<path d="M71.1788 182.463H63.285V190.42H71.1788V182.463Z" fill="#6B3A2E"/>
<path d="M63.285 182.463H55.3912V190.42H63.285V182.463Z" fill="#C7853B"/>
<path d="M55.3238 182.463H47.43V190.42H55.3238V182.463Z" fill="#FEAA3C"/>
<path d="M47.43 182.463H39.5363V190.42H47.43V182.463Z" fill="#FCA639"/>
<path d="M39.5363 182.463H31.6425V190.42H39.5363V182.463Z" fill="#FCA437"/>
<path d="M31.6425 182.463H23.7487V190.42H31.6425V182.463Z" fill="#FCA336"/>
<path d="M23.6813 182.463H15.7875V190.42H23.6813V182.463Z" fill="#FBA139"/>
<path d="M15.7875 182.463H7.89375V190.42H15.7875V182.463Z" fill="#F2872E"/>
<path d="M174 174.506H166.106V182.463H174V174.506Z" fill="#DB8D5A"/>
<path d="M166.106 174.506H158.212V182.463H166.106V174.506Z" fill="#DE7932"/>
<path d="M158.212 174.506H150.319V182.463H158.212V174.506Z" fill="#F29338"/>
<path d="M150.251 174.506H142.357V182.463H150.251V174.506Z" fill="#A56932"/>
<path d="M142.358 174.506H134.464V182.463H142.358V174.506Z" fill="#423434"/>
<path d="M134.464 174.506H126.57V182.463H134.464V174.506Z" fill="#423332"/>
<path d="M126.57 174.506H118.676V182.463H126.57V174.506Z" fill="#8B5636"/>
<path d="M118.609 174.506H110.715V182.463H118.609V174.506Z" fill="#F3AF4A"/>
<path d="M110.715 174.506H102.821V182.463H110.715V174.506Z" fill="#FDB84F"/>
<path d="M102.821 174.506H94.9275V182.463H102.821V174.506Z" fill="#FBB650"/>
<path d="M94.9275 174.506H87.0337V182.463H94.9275V174.506Z" fill="#F7B34D"/>
<path d="M86.9663 174.506H79.0725V182.463H86.9663V174.506Z" fill="#D79A45"/>
<path d="M79.0725 174.506H71.1787V182.463H79.0725V174.506Z" fill="#66332F"/>
<path d="M71.1788 174.506H63.285V182.463H71.1788V174.506Z" fill="#693530"/>
<path d="M63.285 174.506H55.3912V182.463H63.285V174.506Z" fill="#733E33"/>
<path d="M55.3238 174.506H47.43V182.463H55.3238V174.506Z" fill="#FDB64C"/>
<path d="M47.43 174.506H39.5363V182.463H47.43V174.506Z" fill="#FEA93A"/>
<path d="M39.5363 174.506H31.6425V182.463H39.5363V174.506Z" fill="#FDA739"/>
<path d="M31.6425 174.506H23.7487V182.463H31.6425V174.506Z" fill="#FBA539"/>
<path d="M23.6813 174.506H15.7875V182.463H23.6813V174.506Z" fill="#FDA134"/>
<path d="M15.7875 174.506H7.89375V182.463H15.7875V174.506Z" fill="#F6AE6C"/>
<path d="M166.106 166.549H158.212V174.506H166.106V166.549Z" fill="#DE7A35"/>
<path d="M158.212 166.549H150.319V174.506H158.212V166.549Z" fill="#F29436"/>
<path d="M150.251 166.549H142.357V174.506H150.251V166.549Z" fill="#EF8F34"/>
<path d="M142.358 166.549H134.464V174.506H142.358V166.549Z" fill="#C37831"/>
<path d="M134.464 166.549H126.57V174.506H134.464V166.549Z" fill="#443432"/>
<path d="M126.57 166.549H118.676V174.506H126.57V166.549Z" fill="#493431"/>
<path d="M118.609 166.549H110.715V174.506H118.609V166.549Z" fill="#FDB950"/>
<path d="M110.715 166.549H102.821V174.506H110.715V166.549Z" fill="#FEB94E"/>
<path d="M102.821 166.549H94.9275V174.506H102.821V166.549Z" fill="#FCB750"/>
<path d="M94.9275 166.549H87.0337V174.506H94.9275V166.549Z" fill="#FAB651"/>
<path d="M86.9663 166.549H79.0725V174.506H86.9663V166.549Z" fill="#784537"/>
<path d="M79.0725 166.549H71.1787V174.506H79.0725V166.549Z" fill="#6C3934"/>
<path d="M71.1788 166.549H63.285V174.506H71.1788V166.549Z" fill="#6D3A35"/>
<path d="M63.285 166.549H55.3912V174.506H63.285V166.549Z" fill="#F8B655"/>
<path d="M55.3238 166.549H47.43V174.506H55.3238V166.549Z" fill="#FDB950"/>
<path d="M47.43 166.549H39.5363V174.506H47.43V166.549Z" fill="#FDAC3E"/>
<path d="M39.5363 166.549H31.6425V174.506H39.5363V166.549Z" fill="#FEAA39"/>
<path d="M31.6425 166.549H23.7487V174.506H31.6425V166.549Z" fill="#FCAD3D"/>
<path d="M23.6813 166.549H15.7875V174.506H23.6813V166.549Z" fill="#F3872E"/>
<path d="M166.106 158.661H158.212V166.617H166.106V158.661Z" fill="#DE7A34"/>
<path d="M158.212 158.661H150.319V166.617H158.212V158.661Z" fill="#F69B39"/>
<path d="M150.251 158.661H142.357V166.617H150.251V158.661Z" fill="#EE8F34"/>
<path d="M142.358 158.661H134.464V166.617H142.358V158.661Z" fill="#EB8C32"/>
<path d="M134.464 158.661H126.57V166.617H134.464V158.661Z" fill="#815634"/>
<path d="M126.57 158.661H118.676V166.617H126.57V158.661Z" fill="#DA994B"/>
<path d="M118.609 158.661H110.715V166.617H118.609V158.661Z" fill="#B07845"/>
<path d="M110.715 158.661H102.821V166.617H110.715V158.661Z" fill="#AF7743"/>
<path d="M102.821 158.661H94.9275V166.617H102.821V158.661Z" fill="#F8B350"/>
<path d="M94.9275 158.661H87.0337V166.617H94.9275V158.661Z" fill="#AE763E"/>
<path d="M86.9663 158.661H79.0725V166.617H86.9663V158.661Z" fill="#FDBA54"/>
<path d="M79.0725 158.661H71.1787V166.617H79.0725V158.661Z" fill="#D89D50"/>
<path d="M71.1788 158.661H63.285V166.617H71.1788V158.661Z" fill="#D29B58"/>
<path d="M63.285 158.661H55.3912V166.617H63.285V158.661Z" fill="#FAB854"/>
<path d="M55.3238 158.661H47.43V166.617H55.3238V158.661Z" fill="#FDBA52"/>
<path d="M47.43 158.661H39.5363V166.617H47.43V158.661Z" fill="#FDB043"/>
<path d="M39.5363 158.661H31.6425V166.617H39.5363V158.661Z" fill="#FEAA3B"/>
<path d="M31.6425 158.661H23.7487V166.617H31.6425V158.661Z" fill="#FEA738"/>
<path d="M23.6813 158.661H15.7875V166.617H23.6813V158.661Z" fill="#FB9F38"/>
<path d="M166.106 150.704H158.212V158.661H166.106V150.704Z" fill="#DD7A34"/>
<path d="M158.212 150.704H150.319V158.661H158.212V150.704Z" fill="#F49637"/>
<path d="M150.251 150.704H142.357V158.661H150.251V150.704Z" fill="#EE8F34"/>
<path d="M142.358 150.704H134.464V158.661H142.358V150.704Z" fill="#EC8C33"/>
<path d="M134.464 150.704H126.57V158.661H134.464V150.704Z" fill="#F29235"/>
<path d="M126.57 150.704H118.676V158.661H126.57V150.704Z" fill="#754332"/>
<path d="M118.609 150.704H110.715V158.661H118.609V150.704Z" fill="#673631"/>
<path d="M110.715 150.704H102.821V158.661H110.715V150.704Z" fill="#7C4935"/>
<path d="M102.821 150.704H94.9275V158.661H102.821V150.704Z" fill="#FDB750"/>
<path d="M94.9275 150.704H87.0337V158.661H94.9275V150.704Z" fill="#6E3A33"/>
<path d="M86.9663 150.704H79.0725V158.661H86.9663V150.704Z" fill="#89563D"/>
<path d="M79.0725 150.704H71.1787V158.661H79.0725V150.704Z" fill="#FEBD55"/>
<path d="M71.1788 150.704H63.285V158.661H71.1788V150.704Z" fill="#FEBD54"/>
<path d="M63.285 150.704H55.3912V158.661H63.285V150.704Z" fill="#FEBC55"/>
<path d="M55.3238 150.704H47.43V158.661H55.3238V150.704Z" fill="#FDBA53"/>
<path d="M47.43 150.704H39.5363V158.661H47.43V150.704Z" fill="#FDAF43"/>
<path d="M39.5363 150.704H31.6425V158.661H39.5363V150.704Z" fill="#FEAB3D"/>
<path d="M31.6425 150.704H23.7487V158.661H31.6425V150.704Z" fill="#FEA739"/>
<path d="M23.6813 150.704H15.7875V158.661H23.6813V150.704Z" fill="#FAB05B"/>
<path d="M166.106 142.747H158.212V150.704H166.106V142.747Z" fill="#DC7A31"/>
<path d="M158.212 142.747H150.319V150.704H158.212V142.747Z" fill="#ED8E33"/>
<path d="M150.251 142.747H142.357V150.704H150.251V142.747Z" fill="#F49638"/>
<path d="M142.358 142.747H134.464V150.704H142.358V142.747Z" fill="#EB903A"/>
<path d="M134.464 142.747H126.57V150.704H134.464V142.747Z" fill="#E9973C"/>
<path d="M126.57 142.747H118.676V150.704H126.57V142.747Z" fill="#724034"/>
<path d="M118.609 142.747H110.715V150.704H118.609V142.747Z" fill="#683732"/>
<path d="M110.715 142.747H102.821V150.704H110.715V142.747Z" fill="#683731"/>
<path d="M102.821 142.747H94.9275V150.704H102.821V142.747Z" fill="#B07540"/>
<path d="M94.9275 142.747H87.0337V150.704H94.9275V142.747Z" fill="#6D3932"/>
<path d="M86.9663 142.747H79.0725V150.704H86.9663V142.747Z" fill="#713933"/>
<path d="M79.0725 142.747H71.1787V150.704H79.0725V142.747Z" fill="#FEBC53"/>
<path d="M71.1788 142.747H63.285V150.704H71.1788V142.747Z" fill="#FEBB54"/>
<path d="M63.285 142.747H55.3912V150.704H63.285V142.747Z" fill="#FDBB54"/>
<path d="M55.3238 142.747H47.43V150.704H55.3238V142.747Z" fill="#FCBB53"/>
<path d="M47.43 142.747H39.5363V150.704H47.43V142.747Z" fill="#FDAE3D"/>
<path d="M39.5363 142.747H31.6425V150.704H39.5363V142.747Z" fill="#FDAE3E"/>
<path d="M31.6425 142.747H23.7487V150.704H31.6425V142.747Z" fill="#FDA436"/>
<path d="M166.106 134.858H158.212V142.815H166.106V134.858Z" fill="#DC7A32"/>
<path d="M158.212 134.858H150.319V142.815H158.212V134.858Z" fill="#EE9234"/>
<path d="M150.251 134.858H142.357V142.815H150.251V134.858Z" fill="#F99934"/>
<path d="M142.358 134.858H134.464V142.815H142.358V134.858Z" fill="#FDA034"/>
<path d="M134.464 134.858H126.57V142.815H134.464V134.858Z" fill="#FDA336"/>
<path d="M126.57 134.858H118.676V142.815H126.57V134.858Z" fill="#FDB750"/>
<path d="M118.609 134.858H110.715V142.815H118.609V134.858Z" fill="#6B3832"/>
<path d="M110.715 134.858H102.821V142.815H110.715V134.858Z" fill="#6C3932"/>
<path d="M102.821 134.858H94.9275V142.815H102.821V134.858Z" fill="#6A3932"/>
<path d="M94.9275 134.858H87.0337V142.815H94.9275V134.858Z" fill="#7F4B3D"/>
<path d="M86.9663 134.858H79.0725V142.815H86.9663V134.858Z" fill="#DEA252"/>
<path d="M79.0725 134.858H71.1787V142.815H79.0725V134.858Z" fill="#FDBC54"/>
<path d="M71.1788 134.858H63.285V142.815H71.1788V134.858Z" fill="#FDBB54"/>
<path d="M63.285 134.858H55.3912V142.815H63.285V134.858Z" fill="#FDBB54"/>
<path d="M55.3238 134.858H47.43V142.815H55.3238V134.858Z" fill="#FCBA53"/>
<path d="M47.43 134.858H39.5363V142.815H47.43V134.858Z" fill="#FEAE3B"/>
<path d="M39.5363 134.858H31.6425V142.815H39.5363V134.858Z" fill="#FCB647"/>
<path d="M31.6425 134.858H23.7487V142.815H31.6425V134.858Z" fill="#FB9737"/>
<path d="M166.106 126.901H158.212V134.858H166.106V126.901Z" fill="#DD7B35"/>
<path d="M158.212 126.901H150.319V134.858H158.212V126.901Z" fill="#E88737"/>
<path d="M150.251 126.901H142.357V134.858H150.251V126.901Z" fill="#FDA034"/>
<path d="M142.358 126.901H134.464V134.858H142.358V126.901Z" fill="#FDA036"/>
<path d="M134.464 126.901H126.57V134.858H134.464V126.901Z" fill="#FDA437"/>
<path d="M126.57 126.901H118.676V134.858H126.57V126.901Z" fill="#FCB64D"/>
<path d="M118.609 126.901H110.715V134.858H118.609V126.901Z" fill="#FCAF40"/>
<path d="M110.715 126.901H102.821V134.858H110.715V126.901Z" fill="#FCAB3A"/>
<path d="M102.821 126.901H94.9275V134.858H102.821V126.901Z" fill="#FCAE3D"/>
<path d="M94.9275 126.901H87.0337V134.858H94.9275V126.901Z" fill="#FDAF3C"/>
<path d="M86.9663 126.901H79.0725V134.858H86.9663V126.901Z" fill="#FDB03F"/>
<path d="M79.0725 126.901H71.1787V134.858H79.0725V126.901Z" fill="#FCB649"/>
<path d="M71.1788 126.901H63.285V134.858H71.1788V126.901Z" fill="#FDBA52"/>
<path d="M63.285 126.901H55.3912V134.858H63.285V126.901Z" fill="#FDBB52"/>
<path d="M55.3238 126.901H47.43V134.858H55.3238V126.901Z" fill="#FCBB53"/>
<path d="M47.43 126.901H39.5363V134.858H47.43V126.901Z" fill="#FDAB3A"/>
<path d="M39.5363 126.901H31.6425V134.858H39.5363V126.901Z" fill="#FABD56"/>
<path d="M31.6425 126.901H23.7487V134.858H31.6425V126.901Z" fill="#F08A32"/>
<path d="M166.106 118.944H158.212V126.901H166.106V118.944Z" fill="#DE7C35"/>
<path d="M158.212 118.944H150.319V126.901H158.212V118.944Z" fill="#ED8D36"/>
<path d="M150.251 118.944H142.357V126.901H150.251V118.944Z" fill="#FDA035"/>
<path d="M142.358 118.944H134.464V126.901H142.358V118.944Z" fill="#FDA136"/>
<path d="M134.464 118.944H126.57V126.901H134.464V118.944Z" fill="#FDA537"/>
<path d="M126.57 118.944H118.676V126.901H126.57V118.944Z" fill="#FCAA3D"/>
<path d="M118.609 118.944H110.715V126.901H118.609V118.944Z" fill="#FCB145"/>
<path d="M110.715 118.944H102.821V126.901H110.715V118.944Z" fill="#FCAB3B"/>
<path d="M102.821 118.944H94.9275V126.901H102.821V118.944Z" fill="#FBB345"/>
<path d="M94.9275 118.944H87.0337V126.901H94.9275V118.944Z" fill="#FDB03E"/>
<path d="M86.9663 118.944H79.0725V126.901H86.9663V118.944Z" fill="#FDB03F"/>
<path d="M79.0725 118.944H71.1787V126.901H79.0725V118.944Z" fill="#FDB13E"/>
<path d="M71.1788 118.944H63.285V126.901H71.1788V118.944Z" fill="#FDB13E"/>
<path d="M63.285 118.944H55.3912V126.901H63.285V118.944Z" fill="#FCBA53"/>
<path d="M55.3238 118.944H47.43V126.901H55.3238V118.944Z" fill="#FCB64A"/>
<path d="M47.43 118.944H39.5363V126.901H47.43V118.944Z" fill="#FCAD3C"/>
<path d="M39.5363 118.944H31.6425V126.901H39.5363V118.944Z" fill="#FABB56"/>
<path d="M31.6425 118.944H23.7487V126.901H31.6425V118.944Z" fill="#F28E31"/>
<path d="M166.106 111.056H158.212V119.012H166.106V111.056Z" fill="#DE7C34"/>
<path d="M158.212 111.056H150.319V119.012H158.212V111.056Z" fill="#FAA23C"/>
<path d="M150.251 111.056H142.357V119.012H150.251V111.056Z" fill="#FD9E31"/>
<path d="M142.358 111.056H134.464V119.012H142.358V111.056Z" fill="#FC9F36"/>
<path d="M134.464 111.056H126.57V119.012H134.464V111.056Z" fill="#FCA535"/>
<path d="M126.57 111.056H118.676V119.012H126.57V111.056Z" fill="#FDA737"/>
<path d="M118.609 111.056H110.715V119.012H118.609V111.056Z" fill="#FDB951"/>
<path d="M110.715 111.056H102.821V119.012H110.715V111.056Z" fill="#FDAC3E"/>
<path d="M102.821 111.056H94.9275V119.012H102.821V111.056Z" fill="#FDBB52"/>
<path d="M94.9275 111.056H87.0337V119.012H94.9275V111.056Z" fill="#FDBC56"/>
<path d="M86.9663 111.056H79.0725V119.012H86.9663V111.056Z" fill="#FDBC56"/>
<path d="M79.0725 111.056H71.1787V119.012H79.0725V111.056Z" fill="#FDB241"/>
<path d="M71.1788 111.056H63.285V119.012H71.1788V111.056Z" fill="#FCB549"/>
<path d="M63.285 111.056H55.3912V119.012H63.285V111.056Z" fill="#FDB549"/>
<path d="M55.3238 111.056H47.43V119.012H55.3238V111.056Z" fill="#FEAE3D"/>
<path d="M47.43 111.056H39.5363V119.012H47.43V111.056Z" fill="#FCB34C"/>
<path d="M39.5363 111.056H31.6425V119.012H39.5363V111.056Z" fill="#FCB149"/>
<path d="M31.6425 111.056H23.7487V119.012H31.6425V111.056Z" fill="#F38F2F"/>
<path d="M158.212 103.099H150.319V111.056H158.212V103.099Z" fill="#F39A34"/>
<path d="M150.251 103.099H142.357V111.056H150.251V103.099Z" fill="#F7A03C"/>
<path d="M142.358 103.099H134.464V111.056H142.358V103.099Z" fill="#FC9B2E"/>
<path d="M134.464 103.099H126.57V111.056H134.464V103.099Z" fill="#E98C3F"/>
<path d="M126.57 103.099H118.676V111.056H126.57V103.099Z" fill="#FAA237"/>
<path d="M118.609 103.099H110.715V111.056H118.609V103.099Z" fill="#FEBC54"/>
<path d="M110.715 103.099H102.821V111.056H110.715V103.099Z" fill="#FDB249"/>
<path d="M102.821 103.099H94.9275V111.056H102.821V103.099Z" fill="#FAB245"/>
<path d="M94.9275 103.099H87.0337V111.056H94.9275V103.099Z" fill="#FEBC55"/>
<path d="M86.9663 103.099H79.0725V111.056H86.9663V103.099Z" fill="#FDBB55"/>
<path d="M79.0725 103.099H71.1787V111.056H79.0725V103.099Z" fill="#FDBD54"/>
<path d="M71.1788 103.099H63.285V111.056H71.1788V103.099Z" fill="#FDB749"/>
<path d="M63.285 103.099H55.3912V111.056H63.285V103.099Z" fill="#FDAE3B"/>
<path d="M55.3238 103.099H47.43V111.056H55.3238V103.099Z" fill="#FCAB3C"/>
<path d="M47.43 103.099H39.5363V111.056H47.43V103.099Z" fill="#FAB347"/>
<path d="M39.5363 103.099H31.6425V111.056H39.5363V103.099Z" fill="#FCA539"/>
<path d="M31.6425 103.099H23.7487V111.056H31.6425V103.099Z" fill="#FAB970"/>
<path d="M158.212 95.2099H150.319V103.167H158.212V95.2099Z" fill="#F19931"/>
<path d="M150.251 95.2099H142.357V103.167H150.251V95.2099Z" fill="#FA9C33"/>
<path d="M142.358 95.2099H134.464V103.167H142.358V95.2099Z" fill="#FA9E3C"/>
<path d="M134.464 95.2099H126.57V103.167H134.464V95.2099Z" fill="#ED8C38"/>
<path d="M126.57 95.2099H118.676V103.167H126.57V95.2099Z" fill="#E78238"/>
<path d="M118.609 95.2099H110.715V103.167H118.609V95.2099Z" fill="#FCBA52"/>
<path d="M110.715 95.2099H102.821V103.167H110.715V95.2099Z" fill="#FDB74E"/>
<path d="M102.821 95.2099H94.9275V103.167H102.821V95.2099Z" fill="#F0993D"/>
<path d="M94.9275 95.2099H87.0337V103.167H94.9275V95.2099Z" fill="#FEBC55"/>
<path d="M86.9663 95.2099H79.0725V103.167H86.9663V95.2099Z" fill="#FDBB54"/>
<path d="M79.0725 95.2099H71.1787V103.167H79.0725V95.2099Z" fill="#FCBA50"/>
<path d="M71.1788 95.2099H63.285V103.167H71.1788V95.2099Z" fill="#F6A33E"/>
<path d="M63.285 95.2099H55.3912V103.167H63.285V95.2099Z" fill="#F3A03A"/>
<path d="M55.3238 95.2099H47.43V103.167H55.3238V95.2099Z" fill="#FAAC41"/>
<path d="M47.43 95.2099H39.5363V103.167H47.43V95.2099Z" fill="#FA9E38"/>
<path d="M39.5363 95.2099H31.6425V103.167H39.5363V95.2099Z" fill="#F58D31"/>
<path d="M158.212 87.2531H150.319V95.2099H158.212V87.2531Z" fill="#F9AB49"/>
<path d="M150.251 87.2531H142.357V95.2099H150.251V87.2531Z" fill="#FD982C"/>
<path d="M142.358 87.2531H134.464V95.2099H142.358V87.2531Z" fill="#F7A547"/>
<path d="M134.464 87.2531H126.57V95.2099H134.464V87.2531Z" fill="#E78833"/>
<path d="M126.57 87.2531H118.676V95.2099H126.57V87.2531Z" fill="#DB7439"/>
<path d="M118.609 87.2531H110.715V95.2099H118.609V87.2531Z" fill="#FCAF42"/>
<path d="M110.715 87.2531H102.821V95.2099H110.715V87.2531Z" fill="#FBB953"/>
<path d="M102.821 87.2531H94.9275V95.2099H102.821V87.2531Z" fill="#E78B3E"/>
<path d="M94.9275 87.2531H87.0337V95.2099H94.9275V87.2531Z" fill="#FEBC55"/>
<path d="M86.9663 87.2531H79.0725V95.2099H86.9663V87.2531Z" fill="#FEBC52"/>
<path d="M79.0725 87.2531H71.1787V95.2099H79.0725V87.2531Z" fill="#F6A542"/>
<path d="M71.1788 87.2531H63.285V95.2099H71.1788V87.2531Z" fill="#EF9937"/>
<path d="M63.285 87.2531H55.3912V95.2099H63.285V87.2531Z" fill="#F49E39"/>
<path d="M55.3238 87.2531H47.43V95.2099H55.3238V87.2531Z" fill="#FDA63C"/>
<path d="M47.43 87.2531H39.5363V95.2099H47.43V87.2531Z" fill="#F38130"/>
<path d="M39.5363 87.2531H31.6425V95.2099H39.5363V87.2531Z" fill="#FEA134"/>
<path d="M150.251 79.2963H142.357V87.2531H150.251V79.2963Z" fill="#FC9A32"/>
<path d="M142.358 79.2963H134.464V87.2531H142.358V79.2963Z" fill="#FD9A32"/>
<path d="M134.464 79.2963H126.57V87.2531H134.464V79.2963Z" fill="#F29430"/>
<path d="M126.57 79.2963H118.676V87.2531H126.57V79.2963Z" fill="#D66F35"/>
<path d="M118.609 79.2963H110.715V87.2531H118.609V79.2963Z" fill="#FDA636"/>
<path d="M110.715 79.2963H102.821V87.2531H110.715V79.2963Z" fill="#FDA536"/>
<path d="M102.821 79.2963H94.9275V87.2531H102.821V79.2963Z" fill="#E5843E"/>
<path d="M94.9275 79.2963H87.0337V87.2531H94.9275V79.2963Z" fill="#FEBC54"/>
<path d="M86.9663 79.2963H79.0725V87.2531H86.9663V79.2963Z" fill="#F9AB47"/>
<path d="M79.0725 79.2963H71.1787V87.2531H79.0725V79.2963Z" fill="#EB8C36"/>
<path d="M71.1788 79.2963H63.285V87.2531H71.1788V79.2963Z" fill="#F7A138"/>
<path d="M63.285 79.2963H55.3912V87.2531H63.285V79.2963Z" fill="#FCA839"/>
<path d="M55.3238 79.2963H47.43V87.2531H55.3238V79.2963Z" fill="#F28434"/>
<path d="M47.43 79.2963H39.5363V87.2531H47.43V79.2963Z" fill="#FD9E38"/>
<path d="M150.251 71.4074H142.357V79.3643H150.251V71.4074Z" fill="#FB9B36"/>
<path d="M142.358 71.4074H134.464V79.3643H142.358V71.4074Z" fill="#FD9C35"/>
<path d="M134.464 71.4074H126.57V79.3643H134.464V71.4074Z" fill="#FC9C32"/>
<path d="M126.57 71.4074H118.676V79.3643H126.57V71.4074Z" fill="#E07937"/>
<path d="M118.609 71.4074H110.715V79.3643H118.609V71.4074Z" fill="#E07D35"/>
<path d="M110.715 71.4074H102.821V79.3643H110.715V71.4074Z" fill="#FDA330"/>
<path d="M102.821 71.4074H94.9275V79.3643H102.821V71.4074Z" fill="#E68439"/>
<path d="M94.9275 71.4074H87.0337V79.3643H94.9275V71.4074Z" fill="#FAA540"/>
<path d="M86.9663 71.4074H79.0725V79.3643H86.9663V71.4074Z" fill="#E48537"/>
<path d="M79.0725 71.4074H71.1787V79.3643H79.0725V71.4074Z" fill="#FCA63B"/>
<path d="M71.1788 71.4074H63.285V79.3643H71.1788V71.4074Z" fill="#F38C38"/>
<path d="M63.285 71.4074H55.3912V79.3643H63.285V71.4074Z" fill="#F89D2F"/>
<path d="M134.464 63.4506H126.57V71.4075H134.464V63.4506Z" fill="#D37539"/>
<path d="M126.57 63.4506H118.676V71.4075H126.57V63.4506Z" fill="#E07D37"/>
<path d="M118.609 63.4506H110.715V71.4075H118.609V63.4506Z" fill="#D56F33"/>
<path d="M110.715 63.4506H102.821V71.4075H110.715V63.4506Z" fill="#E78633"/>
<path d="M102.821 63.4506H94.9275V71.4075H102.821V63.4506Z" fill="#EC8F3A"/>
<path d="M94.9275 63.4506H87.0337V71.4075H94.9275V63.4506Z" fill="#DF8436"/>
<path d="M86.9663 63.4506H79.0725V71.4075H86.9663V63.4506Z" fill="#EE7933"/>
<path d="M79.0725 63.4506H71.1787V71.4075H79.0725V63.4506Z" fill="#FDA636"/>
<path d="M71.1788 63.4506H63.285V71.4075H71.1788V63.4506Z" fill="#FDA236"/>
<path d="M126.57 55.4938H118.676V63.4506H126.57V55.4938Z" fill="#D67636"/>
<path d="M118.609 55.4938H110.715V63.4506H118.609V55.4938Z" fill="#DE7935"/>
<path d="M110.715 55.4938H102.821V63.4506H110.715V55.4938Z" fill="#D87431"/>
<path d="M102.821 55.4938H94.9275V63.4506H102.821V55.4938Z" fill="#EA8D39"/>
<path d="M94.9275 55.4938H87.0337V63.4506H94.9275V55.4938Z" fill="#EF9236"/>
<path d="M86.9663 55.4938H79.0725V63.4506H86.9663V55.4938Z" fill="#EC622C"/>
<path d="M118.609 47.605H110.715V55.5618H118.609V47.605Z" fill="#3B4653"/>
<path d="M110.715 47.605H102.821V55.5618H110.715V47.605Z" fill="#373F4B"/>
<path d="M102.821 47.605H94.9275V55.5618H102.821V47.605Z" fill="#6E5C4C"/>
<path d="M126.57 39.6481H118.676V47.605H126.57V39.6481Z" fill="#F89936"/>
<path d="M118.609 39.6481H110.715V47.605H118.609V39.6481Z" fill="#E47E34"/>
<path d="M110.715 39.6481H102.821V47.605H110.715V39.6481Z" fill="#EB8A34"/>
<path d="M102.821 39.6481H94.9275V47.605H102.821V39.6481Z" fill="#E07C2E"/>
<path d="M94.9275 39.6481H87.0337V47.605H94.9275V39.6481Z" fill="#E88731"/>
<path d="M126.57 31.7593H118.676V39.7161H126.57V31.7593Z" fill="#EC8A36"/>
<path d="M118.609 31.7593H110.715V39.7161H118.609V31.7593Z" fill="#E98736"/>
<path d="M110.715 31.7593H102.821V39.7161H110.715V31.7593Z" fill="#E48337"/>
<path d="M102.821 31.7593H94.9275V39.7161H102.821V31.7593Z" fill="#E2803B"/>
<path d="M94.9275 31.7593H87.0337V39.7161H94.9275V31.7593Z" fill="#E27F35"/>
<path d="M126.57 23.8025H118.676V31.7593H126.57V23.8025Z" fill="#F19232"/>
<path d="M118.609 23.8025H110.715V31.7593H118.609V23.8025Z" fill="#FDA13A"/>
<path d="M110.715 23.8025H102.821V31.7593H110.715V23.8025Z" fill="#F19838"/>
<path d="M102.821 23.8025H94.9275V31.7593H102.821V23.8025Z" fill="#DA7636"/>
<path d="M94.9275 23.8025H87.0337V31.7593H94.9275V23.8025Z" fill="#F69E37"/>
<path d="M86.9663 23.8025H79.0725V31.7593H86.9663V23.8025Z" fill="#EAA26A"/>
<path d="M126.57 15.8456H118.676V23.8025H126.57V15.8456Z" fill="#F08E32"/>
<path d="M118.609 15.8456H110.715V23.8025H118.609V15.8456Z" fill="#FD9C38"/>
<path d="M110.715 15.8456H102.821V23.8025H110.715V15.8456Z" fill="#FCA43B"/>
<path d="M102.821 15.8456H94.9275V23.8025H102.821V15.8456Z" fill="#DD7835"/>
<path d="M94.9275 15.8456H87.0337V23.8025H94.9275V15.8456Z" fill="#F9A136"/>
<path d="M86.9663 15.8456H79.0725V23.8025H86.9663V15.8456Z" fill="#E88B3A"/>
<path d="M118.609 7.95683H110.715V15.9137H118.609V7.95683Z" fill="#FD9D36"/>
<path d="M110.715 7.95683H102.821V15.9137H110.715V7.95683Z" fill="#FC9C37"/>
<path d="M102.821 7.95683H94.9275V15.9137H102.821V7.95683Z" fill="#F79A39"/>
<path d="M94.9275 7.95683H87.0337V15.9137H94.9275V7.95683Z" fill="#F49635"/>
<path d="M86.9663 7.95683H79.0725V15.9137H86.9663V7.95683Z" fill="#EC8E39"/>
<path d="M118.609 0H110.715V7.95683H118.609V0Z" fill="#FD9F3B"/>
<path d="M110.715 0H102.821V7.95683H110.715V0Z" fill="#FBA74B"/>
<path d="M102.821 0H94.9275V7.95683H102.821V0Z" fill="#FAA33E"/>
<path d="M94.9275 0H87.0337V7.95683H94.9275V0Z" fill="#FB9C35"/>
<path d="M86.9663 0H79.0725V7.95683H86.9663V0Z" fill="#F19337"/>
</g>
<defs>
<clipPath id="clip0_2_1303">
<rect width="174" height="230" fill="white"/>
</clipPath>
</defs>
</svg>
