<svg width="235" height="274" viewBox="0 0 235 274" fill="none" xmlns="http://www.w3.org/2000/svg">
<g clip-path="url(#clip0_2_2)">
<path d="M214.565 263.859H204.348V274H214.565V263.859Z" fill="#263C4D"/>
<path d="M204.348 263.859H194.13V274H204.348V263.859Z" fill="#293F50"/>
<path d="M194.13 263.859H183.913V274H194.13V263.859Z" fill="#2C4453"/>
<path d="M183.913 263.859H173.696V274H183.913V263.859Z" fill="#2B4252"/>
<path d="M173.696 263.859H163.478V274H173.696V263.859Z" fill="#253A4C"/>
<path d="M163.478 263.859H153.261V274H163.478V263.859Z" fill="#263A4B"/>
<path d="M153.261 263.859H143.043V274H153.261V263.859Z" fill="#263A4C"/>
<path d="M143.043 263.859H132.826V274H143.043V263.859Z" fill="#263B4D"/>
<path d="M132.826 263.859H122.609V274H132.826V263.859Z" fill="#26394B"/>
<path d="M122.609 263.859H112.391V274H122.609V263.859Z" fill="#284052"/>
<path d="M112.391 263.859H102.174V274H112.391V263.859Z" fill="#2A4254"/>
<path d="M102.174 263.859H91.9565V274H102.174V263.859Z" fill="#2C4556"/>
<path d="M91.9565 263.859H81.7391V274H91.9565V263.859Z" fill="#3A4E5C"/>
<path d="M81.7391 263.859H71.5217V274H81.7391V263.859Z" fill="#445765"/>
<path d="M71.5217 263.859H61.3043V274H71.5217V263.859Z" fill="#465965"/>
<path d="M61.3044 263.859H51.087V274H61.3044V263.859Z" fill="#384B59"/>
<path d="M51.087 263.859H40.8696V274H51.087V263.859Z" fill="#334855"/>
<path d="M40.8696 263.859H30.6522V274H40.8696V263.859Z" fill="#314656"/>
<path d="M30.6522 263.859H20.4348V274H30.6522V263.859Z" fill="#364A58"/>
<path d="M20.4348 263.859H10.2174V274H20.4348V263.859Z" fill="#384C5A"/>
<path d="M224.783 253.717H214.565V263.859H224.783V253.717Z" fill="#203345"/>
<path d="M214.565 253.717H204.348V263.859H214.565V253.717Z" fill="#233548"/>
<path d="M204.348 253.717H194.13V263.859H204.348V253.717Z" fill="#2C4452"/>
<path d="M194.13 253.717H183.913V263.859H194.13V253.717Z" fill="#2D4453"/>
<path d="M183.913 253.717H173.696V263.859H183.913V253.717Z" fill="#2B4353"/>
<path d="M173.696 253.717H163.478V263.859H173.696V253.717Z" fill="#203347"/>
<path d="M163.478 253.717H153.261V263.859H163.478V253.717Z" fill="#213246"/>
<path d="M153.261 253.717H143.043V263.859H153.261V253.717Z" fill="#223346"/>
<path d="M143.043 253.717H132.826V263.859H143.043V253.717Z" fill="#213346"/>
<path d="M132.826 253.717H122.609V263.859H132.826V253.717Z" fill="#273B4F"/>
<path d="M122.609 253.717H112.391V263.859H122.609V253.717Z" fill="#2A4256"/>
<path d="M112.391 253.717H102.174V263.859H112.391V253.717Z" fill="#344957"/>
<path d="M102.174 253.717H91.9565V263.859H102.174V253.717Z" fill="#394B58"/>
<path d="M91.9565 253.717H81.7391V263.859H91.9565V253.717Z" fill="#3B4C59"/>
<path d="M81.7391 253.717H71.5217V263.859H81.7391V253.717Z" fill="#3A4C5A"/>
<path d="M71.5217 253.717H61.3043V263.859H71.5217V253.717Z" fill="#354857"/>
<path d="M61.3044 253.717H51.087V263.859H61.3044V253.717Z" fill="#334555"/>
<path d="M51.087 253.717H40.8696V263.859H51.087V253.717Z" fill="#344855"/>
<path d="M40.8696 253.717H30.6522V263.859H40.8696V253.717Z" fill="#384C59"/>
<path d="M30.6522 253.717H20.4348V263.859H30.6522V253.717Z" fill="#3A4E5C"/>
<path d="M20.4348 253.717H10.2174V263.859H20.4348V253.717Z" fill="#3C505D"/>
<path d="M10.2174 253.717H0V263.859H10.2174V253.717Z" fill="#485966"/>
<path d="M235 243.576H224.783V253.717H235V243.576Z" fill="#263847"/>
<path d="M224.783 243.576H214.565V253.717H224.783V243.576Z" fill="#213245"/>
<path d="M214.565 243.576H204.348V253.717H214.565V243.576Z" fill="#2C4351"/>
<path d="M204.348 243.576H194.13V253.717H204.348V243.576Z" fill="#2C4352"/>
<path d="M194.13 243.576H183.913V253.717H194.13V243.576Z" fill="#2C4351"/>
<path d="M183.913 243.576H173.696V253.717H183.913V243.576Z" fill="#273C4D"/>
<path d="M173.696 243.576H163.478V253.717H173.696V243.576Z" fill="#213347"/>
<path d="M163.478 243.576H153.261V253.717H163.478V243.576Z" fill="#233548"/>
<path d="M153.261 243.576H143.043V253.717H153.261V243.576Z" fill="#283C4C"/>
<path d="M143.043 243.576H132.826V253.717H143.043V243.576Z" fill="#354856"/>
<path d="M132.826 243.576H122.609V253.717H132.826V243.576Z" fill="#41525C"/>
<path d="M122.609 243.576H112.391V253.717H122.609V243.576Z" fill="#41515C"/>
<path d="M112.391 243.576H102.174V253.717H112.391V243.576Z" fill="#3D4D57"/>
<path d="M102.174 243.576H91.9565V253.717H102.174V243.576Z" fill="#3D4D58"/>
<path d="M91.9565 243.576H81.7391V253.717H91.9565V243.576Z" fill="#3D4D58"/>
<path d="M81.7391 243.576H71.5217V253.717H81.7391V243.576Z" fill="#3C4C56"/>
<path d="M71.5217 243.576H61.3043V253.717H71.5217V243.576Z" fill="#3E4D58"/>
<path d="M61.3044 243.576H51.087V253.717H61.3044V243.576Z" fill="#3B4A55"/>
<path d="M51.087 243.576H40.8696V253.717H51.087V243.576Z" fill="#354754"/>
<path d="M40.8696 243.576H30.6522V253.717H40.8696V243.576Z" fill="#314553"/>
<path d="M30.6522 243.576H20.4348V253.717H30.6522V243.576Z" fill="#334554"/>
<path d="M20.4348 243.576H10.2174V253.717H20.4348V243.576Z" fill="#4D5F69"/>
<path d="M10.2174 243.576H0V253.717H10.2174V243.576Z" fill="#3D4F5B"/>
<path d="M235 233.434H224.783V243.576H235V233.434Z" fill="#243748"/>
<path d="M224.783 233.434H214.565V243.576H224.783V233.434Z" fill="#2C4351"/>
<path d="M214.565 233.434H204.348V243.576H214.565V233.434Z" fill="#2D4452"/>
<path d="M204.348 233.434H194.13V243.576H204.348V233.434Z" fill="#2D4452"/>
<path d="M194.13 233.434H183.913V243.576H194.13V233.434Z" fill="#2D4452"/>
<path d="M183.913 233.434H173.696V243.576H183.913V233.434Z" fill="#2B4050"/>
<path d="M173.696 233.434H163.478V243.576H173.696V233.434Z" fill="#324653"/>
<path d="M163.478 233.434H153.261V243.576H163.478V233.434Z" fill="#3E4E59"/>
<path d="M153.261 233.434H143.043V243.576H153.261V233.434Z" fill="#40505A"/>
<path d="M143.043 233.434H132.826V243.576H143.043V233.434Z" fill="#404F5A"/>
<path d="M132.826 233.434H122.609V243.576H132.826V233.434Z" fill="#404F5B"/>
<path d="M122.609 233.434H112.391V243.576H122.609V233.434Z" fill="#404E59"/>
<path d="M112.391 233.434H102.174V243.576H112.391V233.434Z" fill="#3E4D58"/>
<path d="M102.174 233.434H91.9565V243.576H102.174V233.434Z" fill="#3E4D58"/>
<path d="M91.9565 233.434H81.7391V243.576H91.9565V233.434Z" fill="#3F4D58"/>
<path d="M81.7391 233.434H71.5217V243.576H81.7391V233.434Z" fill="#3F4D58"/>
<path d="M71.5217 233.434H61.3043V243.576H71.5217V233.434Z" fill="#3F4D58"/>
<path d="M61.3044 233.434H51.087V243.576H61.3044V233.434Z" fill="#3F4D58"/>
<path d="M51.087 233.434H40.8696V243.576H51.087V233.434Z" fill="#3D4D58"/>
<path d="M40.8696 233.434H30.6522V243.576H40.8696V233.434Z" fill="#43535F"/>
<path d="M30.6522 233.434H20.4348V243.576H30.6522V233.434Z" fill="#3D4E59"/>
<path d="M20.4348 233.434H10.2174V243.576H20.4348V233.434Z" fill="#4C5D66"/>
<path d="M10.2174 233.434H0V243.576H10.2174V233.434Z" fill="#40515A"/>
<path d="M235 223.293H224.783V233.434H235V223.293Z" fill="#2C4352"/>
<path d="M224.783 223.293H214.565V233.434H224.783V223.293Z" fill="#2D4452"/>
<path d="M214.565 223.293H204.348V233.434H214.565V223.293Z" fill="#2D4352"/>
<path d="M204.348 223.293H194.13V233.434H204.348V223.293Z" fill="#2D4452"/>
<path d="M194.13 223.293H183.913V233.434H194.13V223.293Z" fill="#2C4453"/>
<path d="M183.913 223.293H173.696V233.434H183.913V223.293Z" fill="#3D4D59"/>
<path d="M173.696 223.293H163.478V233.434H173.696V223.293Z" fill="#3E4E5A"/>
<path d="M163.478 223.293H153.261V233.434H163.478V223.293Z" fill="#3E4E58"/>
<path d="M153.261 223.293H143.043V233.434H153.261V223.293Z" fill="#3F4E59"/>
<path d="M143.043 223.293H132.826V233.434H143.043V223.293Z" fill="#404E59"/>
<path d="M132.826 223.293H122.609V233.434H132.826V223.293Z" fill="#3F4E59"/>
<path d="M122.609 223.293H112.391V233.434H122.609V223.293Z" fill="#3F4E59"/>
<path d="M112.391 223.293H102.174V233.434H112.391V223.293Z" fill="#3F4E59"/>
<path d="M102.174 223.293H91.9565V233.434H102.174V223.293Z" fill="#3F4E59"/>
<path d="M91.9565 223.293H81.7391V233.434H91.9565V223.293Z" fill="#3F4E59"/>
<path d="M81.7391 223.293H71.5217V233.434H81.7391V223.293Z" fill="#404E59"/>
<path d="M71.5217 223.293H61.3043V233.434H71.5217V223.293Z" fill="#404F5A"/>
<path d="M61.3044 223.293H51.087V233.434H61.3044V223.293Z" fill="#404F5A"/>
<path d="M51.087 223.293H40.8696V233.434H51.087V223.293Z" fill="#3F4F59"/>
<path d="M40.8696 223.293H30.6522V233.434H40.8696V223.293Z" fill="#3F505A"/>
<path d="M30.6522 223.293H20.4348V233.434H30.6522V223.293Z" fill="#404F5A"/>
<path d="M20.4348 223.293H10.2174V233.434H20.4348V223.293Z" fill="#42535C"/>
<path d="M10.2174 223.293H0V233.434H10.2174V223.293Z" fill="#41535B"/>
<path d="M235 213.091H224.783V223.233H235V213.091Z" fill="#2B4251"/>
<path d="M224.783 213.091H214.565V223.233H224.783V213.091Z" fill="#2C4352"/>
<path d="M214.565 213.091H204.348V223.233H214.565V213.091Z" fill="#2F4654"/>
<path d="M204.348 213.091H194.13V223.233H204.348V213.091Z" fill="#2D4553"/>
<path d="M194.13 213.091H183.913V223.233H194.13V213.091Z" fill="#304654"/>
<path d="M183.913 213.091H173.696V223.233H183.913V213.091Z" fill="#3F4F5A"/>
<path d="M173.696 213.091H163.478V223.233H173.696V213.091Z" fill="#3E4E59"/>
<path d="M163.478 213.091H153.261V223.233H163.478V213.091Z" fill="#41505B"/>
<path d="M153.261 213.091H143.043V223.233H153.261V213.091Z" fill="#465661"/>
<path d="M143.043 213.091H132.826V223.233H143.043V213.091Z" fill="#3F4F5A"/>
<path d="M132.826 213.091H122.609V223.233H132.826V213.091Z" fill="#3F4F5A"/>
<path d="M122.609 213.091H112.391V223.233H122.609V213.091Z" fill="#3F4F5A"/>
<path d="M112.391 213.091H102.174V223.233H112.391V213.091Z" fill="#3D4D57"/>
<path d="M102.174 213.091H91.9565V223.233H102.174V213.091Z" fill="#3B4B57"/>
<path d="M91.9565 213.091H81.7391V223.233H91.9565V213.091Z" fill="#414F5A"/>
<path d="M81.7391 213.091H71.5217V223.233H81.7391V213.091Z" fill="#414E5A"/>
<path d="M71.5217 213.091H61.3043V223.233H71.5217V213.091Z" fill="#414F5A"/>
<path d="M61.3044 213.091H51.087V223.233H61.3044V213.091Z" fill="#414F5B"/>
<path d="M51.087 213.091H40.8696V223.233H51.087V213.091Z" fill="#404F5A"/>
<path d="M40.8696 213.091H30.6522V223.233H40.8696V213.091Z" fill="#3F4F5A"/>
<path d="M30.6522 213.091H20.4348V223.233H30.6522V213.091Z" fill="#4A5965"/>
<path d="M20.4348 213.091H10.2174V223.233H20.4348V213.091Z" fill="#42535C"/>
<path d="M10.2174 213.091H0V223.233H10.2174V213.091Z" fill="#42545C"/>
<path d="M235 202.95H224.783V213.091H235V202.95Z" fill="#304854"/>
<path d="M224.783 202.95H214.565V213.091H224.783V202.95Z" fill="#334A56"/>
<path d="M214.565 202.95H204.348V213.091H214.565V202.95Z" fill="#2D4553"/>
<path d="M204.348 202.95H194.13V213.091H204.348V202.95Z" fill="#374A56"/>
<path d="M194.13 202.95H183.913V213.091H194.13V202.95Z" fill="#40505B"/>
<path d="M183.913 202.95H173.696V213.091H183.913V202.95Z" fill="#40505B"/>
<path d="M173.696 202.95H163.478V213.091H173.696V202.95Z" fill="#42525E"/>
<path d="M163.478 202.95H153.261V213.091H163.478V202.95Z" fill="#4B5B65"/>
<path d="M153.261 202.95H143.043V213.091H153.261V202.95Z" fill="#4B5B66"/>
<path d="M143.043 202.95H132.826V213.091H143.043V202.95Z" fill="#465660"/>
<path d="M132.826 202.95H122.609V213.091H132.826V202.95Z" fill="#42515C"/>
<path d="M122.609 202.95H112.391V213.091H122.609V202.95Z" fill="#44545E"/>
<path d="M112.391 202.95H102.174V213.091H112.391V202.95Z" fill="#45545E"/>
<path d="M102.174 202.95H91.9565V213.091H102.174V202.95Z" fill="#45545E"/>
<path d="M91.9565 202.95H81.7391V213.091H91.9565V202.95Z" fill="#42515C"/>
<path d="M81.7391 202.95H71.5217V213.091H81.7391V202.95Z" fill="#364955"/>
<path d="M71.5217 202.95H61.3043V213.091H71.5217V202.95Z" fill="#3E4E59"/>
<path d="M61.3044 202.95H51.087V213.091H61.3044V202.95Z" fill="#374957"/>
<path d="M51.087 202.95H40.8696V213.091H51.087V202.95Z" fill="#324555"/>
<path d="M40.8696 202.95H30.6522V213.091H40.8696V202.95Z" fill="#354856"/>
<path d="M30.6522 202.95H20.4348V213.091H30.6522V202.95Z" fill="#5A6A77"/>
<path d="M20.4348 202.95H10.2174V213.091H20.4348V202.95Z" fill="#465660"/>
<path d="M235 192.808H224.783V202.95H235V192.808Z" fill="#314753"/>
<path d="M224.783 192.808H214.565V202.95H224.783V192.808Z" fill="#314854"/>
<path d="M214.565 192.808H204.348V202.95H214.565V192.808Z" fill="#2F4552"/>
<path d="M204.348 192.808H194.13V202.95H204.348V192.808Z" fill="#42505B"/>
<path d="M194.13 192.808H183.913V202.95H194.13V192.808Z" fill="#42515B"/>
<path d="M183.913 192.808H173.696V202.95H183.913V192.808Z" fill="#43525D"/>
<path d="M173.696 192.808H163.478V202.95H173.696V192.808Z" fill="#43525D"/>
<path d="M163.478 192.808H153.261V202.95H163.478V192.808Z" fill="#465660"/>
<path d="M153.261 192.808H143.043V202.95H153.261V192.808Z" fill="#485963"/>
<path d="M143.043 192.808H132.826V202.95H143.043V192.808Z" fill="#4C5C66"/>
<path d="M132.826 192.808H122.609V202.95H132.826V192.808Z" fill="#465561"/>
<path d="M122.609 192.808H112.391V202.95H122.609V192.808Z" fill="#475660"/>
<path d="M112.391 192.808H102.174V202.95H112.391V192.808Z" fill="#475561"/>
<path d="M102.174 192.808H91.9565V202.95H102.174V192.808Z" fill="#465560"/>
<path d="M91.9565 192.808H81.7391V202.95H91.9565V192.808Z" fill="#465460"/>
<path d="M81.7391 192.808H71.5217V202.95H81.7391V192.808Z" fill="#465560"/>
<path d="M71.5217 192.808H61.3043V202.95H71.5217V192.808Z" fill="#45545F"/>
<path d="M61.3044 192.808H51.087V202.95H61.3044V192.808Z" fill="#44535E"/>
<path d="M51.087 192.808H40.8696V202.95H51.087V192.808Z" fill="#5A6A75"/>
<path d="M40.8696 192.808H30.6522V202.95H40.8696V192.808Z" fill="#3F505B"/>
<path d="M30.6522 192.808H20.4348V202.95H30.6522V192.808Z" fill="#3C4D59"/>
<path d="M235 182.667H224.783V192.808H235V182.667Z" fill="#314550"/>
<path d="M224.783 182.667H214.565V192.808H224.783V182.667Z" fill="#2F4653"/>
<path d="M214.565 182.667H204.348V192.808H214.565V182.667Z" fill="#2E4451"/>
<path d="M204.348 182.667H194.13V192.808H204.348V182.667Z" fill="#283D4B"/>
<path d="M194.13 182.667H183.913V192.808H194.13V182.667Z" fill="#273B4A"/>
<path d="M183.913 182.667H173.696V192.808H183.913V182.667Z" fill="#293F4D"/>
<path d="M173.696 182.667H163.478V192.808H173.696V182.667Z" fill="#42525D"/>
<path d="M163.478 182.667H153.261V192.808H163.478V182.667Z" fill="#475561"/>
<path d="M153.261 182.667H143.043V192.808H153.261V182.667Z" fill="#475661"/>
<path d="M143.043 182.667H132.826V192.808H143.043V182.667Z" fill="#465660"/>
<path d="M132.826 182.667H122.609V192.808H132.826V182.667Z" fill="#475561"/>
<path d="M122.609 182.667H112.391V192.808H122.609V182.667Z" fill="#586874"/>
<path d="M112.391 182.667H102.174V192.808H112.391V182.667Z" fill="#455560"/>
<path d="M102.174 182.667H91.9565V192.808H102.174V182.667Z" fill="#45545F"/>
<path d="M91.9565 182.667H81.7391V192.808H91.9565V182.667Z" fill="#46555F"/>
<path d="M81.7391 182.667H71.5217V192.808H81.7391V182.667Z" fill="#475561"/>
<path d="M71.5217 182.667H61.3043V192.808H71.5217V182.667Z" fill="#475560"/>
<path d="M61.3044 182.667H51.087V192.808H61.3044V182.667Z" fill="#465560"/>
<path d="M51.087 182.667H40.8696V192.808H51.087V182.667Z" fill="#465560"/>
<path d="M40.8696 182.667H30.6522V192.808H40.8696V182.667Z" fill="#455560"/>
<path d="M30.6522 182.667H20.4348V192.808H30.6522V182.667Z" fill="#4F5E68"/>
<path d="M224.783 172.525H214.565V182.667H224.783V172.525Z" fill="#304653"/>
<path d="M214.565 172.525H204.348V182.667H214.565V172.525Z" fill="#2E424F"/>
<path d="M204.348 172.525H194.13V182.667H204.348V172.525Z" fill="#2C3F4D"/>
<path d="M194.13 172.525H183.913V182.667H194.13V172.525Z" fill="#2D414E"/>
<path d="M183.913 172.525H173.696V182.667H183.913V172.525Z" fill="#2C414E"/>
<path d="M173.696 172.525H163.478V182.667H173.696V172.525Z" fill="#485661"/>
<path d="M163.478 172.525H153.261V182.667H163.478V172.525Z" fill="#475661"/>
<path d="M153.261 172.525H143.043V182.667H153.261V172.525Z" fill="#465661"/>
<path d="M143.043 172.525H132.826V182.667H143.043V172.525Z" fill="#465661"/>
<path d="M132.826 172.525H122.609V182.667H132.826V172.525Z" fill="#485762"/>
<path d="M122.609 172.525H112.391V182.667H122.609V172.525Z" fill="#4A5A64"/>
<path d="M112.391 172.525H102.174V182.667H112.391V172.525Z" fill="#6D7F8C"/>
<path d="M102.174 172.525H91.9565V182.667H102.174V172.525Z" fill="#6A7B88"/>
<path d="M91.9565 172.525H81.7391V182.667H91.9565V172.525Z" fill="#54646E"/>
<path d="M81.7391 172.525H71.5217V182.667H81.7391V172.525Z" fill="#485863"/>
<path d="M71.5217 172.525H61.3043V182.667H71.5217V172.525Z" fill="#485762"/>
<path d="M61.3044 172.525H51.087V182.667H61.3044V172.525Z" fill="#475661"/>
<path d="M51.087 172.525H40.8696V182.667H51.087V172.525Z" fill="#475660"/>
<path d="M40.8696 172.525H30.6522V182.667H40.8696V172.525Z" fill="#475661"/>
<path d="M30.6522 172.525H20.4348V182.667H30.6522V172.525Z" fill="#44555E"/>
<path d="M224.783 162.384H214.565V172.525H224.783V162.384Z" fill="#324753"/>
<path d="M214.565 162.384H204.348V172.525H214.565V162.384Z" fill="#2D414E"/>
<path d="M204.348 162.384H194.13V172.525H204.348V162.384Z" fill="#2E424F"/>
<path d="M194.13 162.384H183.913V172.525H194.13V162.384Z" fill="#2E424F"/>
<path d="M183.913 162.384H173.696V172.525H183.913V162.384Z" fill="#2E424F"/>
<path d="M173.696 162.384H163.478V172.525H173.696V162.384Z" fill="#495762"/>
<path d="M163.478 162.384H153.261V172.525H163.478V162.384Z" fill="#667581"/>
<path d="M153.261 162.384H143.043V172.525H153.261V162.384Z" fill="#81909E"/>
<path d="M143.043 162.384H132.826V172.525H143.043V162.384Z" fill="#5A6B76"/>
<path d="M132.826 162.384H122.609V172.525H132.826V162.384Z" fill="#485763"/>
<path d="M122.609 162.384H112.391V172.525H122.609V162.384Z" fill="#42515C"/>
<path d="M112.391 162.384H102.174V172.525H112.391V162.384Z" fill="#43535D"/>
<path d="M102.174 162.384H91.9565V172.525H102.174V162.384Z" fill="#44545F"/>
<path d="M91.9565 162.384H81.7391V172.525H91.9565V162.384Z" fill="#475761"/>
<path d="M81.7391 162.384H71.5217V172.525H81.7391V162.384Z" fill="#70808D"/>
<path d="M71.5217 162.384H61.3043V172.525H71.5217V162.384Z" fill="#6C7D89"/>
<path d="M61.3044 162.384H51.087V172.525H61.3044V162.384Z" fill="#4F5E69"/>
<path d="M51.087 162.384H40.8696V172.525H51.087V162.384Z" fill="#41505B"/>
<path d="M40.8696 162.384H30.6522V172.525H40.8696V162.384Z" fill="#44525D"/>
<path d="M30.6522 162.384H20.4348V172.525H30.6522V162.384Z" fill="#44545E"/>
<path d="M214.565 152.242H204.348V162.384H214.565V152.242Z" fill="#2D414F"/>
<path d="M204.348 152.242H194.13V162.384H204.348V152.242Z" fill="#334753"/>
<path d="M194.13 152.242H183.913V162.384H194.13V152.242Z" fill="#374B56"/>
<path d="M183.913 152.242H173.696V162.384H183.913V152.242Z" fill="#304351"/>
<path d="M173.696 152.242H163.478V162.384H173.696V152.242Z" fill="#3C4D5A"/>
<path d="M163.478 152.242H153.261V162.384H163.478V152.242Z" fill="#46555F"/>
<path d="M153.261 152.242H143.043V162.384H153.261V152.242Z" fill="#53626D"/>
<path d="M143.043 152.242H132.826V162.384H143.043V152.242Z" fill="#82919F"/>
<path d="M132.826 152.242H122.609V162.384H132.826V152.242Z" fill="#677683"/>
<path d="M122.609 152.242H112.391V162.384H122.609V152.242Z" fill="#4A5964"/>
<path d="M112.391 152.242H102.174V162.384H112.391V152.242Z" fill="#44535F"/>
<path d="M102.174 152.242H91.9565V162.384H102.174V152.242Z" fill="#3B4A57"/>
<path d="M91.9565 152.242H81.7391V162.384H91.9565V152.242Z" fill="#3B4B57"/>
<path d="M81.7391 152.242H71.5217V162.384H81.7391V152.242Z" fill="#3C4D58"/>
<path d="M71.5217 152.242H61.3043V162.384H71.5217V152.242Z" fill="#43525F"/>
<path d="M61.3044 152.242H51.087V162.384H61.3044V152.242Z" fill="#5E6E7B"/>
<path d="M51.087 152.242H40.8696V162.384H51.087V152.242Z" fill="#748490"/>
<path d="M40.8696 152.242H30.6522V162.384H40.8696V152.242Z" fill="#495862"/>
<path d="M30.6522 152.242H20.4348V162.384H30.6522V152.242Z" fill="#45555E"/>
<path d="M214.565 142.101H204.348V152.242H214.565V142.101Z" fill="#354A55"/>
<path d="M204.348 142.101H194.13V152.242H204.348V142.101Z" fill="#374B55"/>
<path d="M194.13 142.101H183.913V152.242H194.13V142.101Z" fill="#384C56"/>
<path d="M183.913 142.101H173.696V152.242H183.913V142.101Z" fill="#3A4D57"/>
<path d="M173.696 142.101H163.478V152.242H173.696V142.101Z" fill="#3C4D58"/>
<path d="M163.478 142.101H153.261V152.242H163.478V142.101Z" fill="#45545E"/>
<path d="M153.261 142.101H143.043V152.242H153.261V142.101Z" fill="#495763"/>
<path d="M143.043 142.101H132.826V152.242H143.043V142.101Z" fill="#4B5964"/>
<path d="M132.826 142.101H122.609V152.242H132.826V142.101Z" fill="#566570"/>
<path d="M122.609 142.101H112.391V152.242H122.609V142.101Z" fill="#61717C"/>
<path d="M112.391 142.101H102.174V152.242H112.391V142.101Z" fill="#4D5B66"/>
<path d="M102.174 142.101H91.9565V152.242H102.174V142.101Z" fill="#4D5B66"/>
<path d="M91.9565 142.101H81.7391V152.242H91.9565V142.101Z" fill="#465560"/>
<path d="M81.7391 142.101H71.5217V152.242H81.7391V142.101Z" fill="#344451"/>
<path d="M71.5217 142.101H61.3043V152.242H71.5217V142.101Z" fill="#334251"/>
<path d="M61.3044 142.101H51.087V152.242H61.3044V142.101Z" fill="#344350"/>
<path d="M51.087 142.101H40.8696V152.242H51.087V142.101Z" fill="#3C4C58"/>
<path d="M40.8696 142.101H30.6522V152.242H40.8696V142.101Z" fill="#41505A"/>
<path d="M30.6522 142.101H20.4348V152.242H30.6522V142.101Z" fill="#505D65"/>
<path d="M204.348 131.959H194.13V142.101H204.348V131.959Z" fill="#314451"/>
<path d="M194.13 131.959H183.913V142.101H194.13V131.959Z" fill="#304452"/>
<path d="M183.913 131.959H173.696V142.101H183.913V131.959Z" fill="#334753"/>
<path d="M173.696 131.959H163.478V142.101H173.696V131.959Z" fill="#41505B"/>
<path d="M163.478 131.959H153.261V142.101H163.478V131.959Z" fill="#44545F"/>
<path d="M153.261 131.959H143.043V142.101H153.261V131.959Z" fill="#465560"/>
<path d="M143.043 131.959H132.826V142.101H143.043V131.959Z" fill="#4A5964"/>
<path d="M132.826 131.959H122.609V142.101H132.826V131.959Z" fill="#4B5A66"/>
<path d="M122.609 131.959H112.391V142.101H122.609V131.959Z" fill="#657581"/>
<path d="M112.391 131.959H102.174V142.101H112.391V131.959Z" fill="#4E5C67"/>
<path d="M102.174 131.959H91.9565V142.101H102.174V131.959Z" fill="#4D5B65"/>
<path d="M91.9565 131.959H81.7391V142.101H91.9565V131.959Z" fill="#4C5B65"/>
<path d="M81.7391 131.959H71.5217V142.101H81.7391V131.959Z" fill="#3E4D5A"/>
<path d="M71.5217 131.959H61.3043V142.101H71.5217V131.959Z" fill="#344351"/>
<path d="M61.3044 131.959H51.087V142.101H61.3044V131.959Z" fill="#34434F"/>
<path d="M51.087 131.959H40.8696V142.101H51.087V131.959Z" fill="#33424E"/>
<path d="M40.8696 131.959H30.6522V142.101H40.8696V131.959Z" fill="#42515A"/>
<path d="M194.13 121.758H183.913V131.899H194.13V121.758Z" fill="#2F4350"/>
<path d="M183.913 121.758H173.696V131.899H183.913V121.758Z" fill="#314550"/>
<path d="M173.696 121.758H163.478V131.899H173.696V121.758Z" fill="#47555F"/>
<path d="M163.478 121.758H153.261V131.899H163.478V121.758Z" fill="#576671"/>
<path d="M153.261 121.758H143.043V131.899H153.261V121.758Z" fill="#54646E"/>
<path d="M143.043 121.758H132.826V131.899H143.043V121.758Z" fill="#495761"/>
<path d="M132.826 121.758H122.609V131.899H132.826V121.758Z" fill="#495762"/>
<path d="M122.609 121.758H112.391V131.899H122.609V121.758Z" fill="#4A5964"/>
<path d="M112.391 121.758H102.174V131.899H112.391V121.758Z" fill="#4D5C66"/>
<path d="M102.174 121.758H91.9565V131.899H102.174V121.758Z" fill="#4E5C65"/>
<path d="M91.9565 121.758H81.7391V131.899H91.9565V121.758Z" fill="#4D5B64"/>
<path d="M81.7391 121.758H71.5217V131.899H81.7391V121.758Z" fill="#4D5B64"/>
<path d="M71.5217 121.758H61.3043V131.899H71.5217V121.758Z" fill="#46545E"/>
<path d="M61.3044 121.758H51.087V131.899H61.3044V121.758Z" fill="#364552"/>
<path d="M51.087 121.758H40.8696V131.899H51.087V121.758Z" fill="#303F4C"/>
<path d="M40.8696 121.758H30.6522V131.899H40.8696V121.758Z" fill="#425059"/>
<path d="M183.913 111.616H173.696V121.758H183.913V111.616Z" fill="#30424F"/>
<path d="M173.696 111.616H163.478V121.758H173.696V111.616Z" fill="#3D4D59"/>
<path d="M163.478 111.616H153.261V121.758H163.478V111.616Z" fill="#5A6872"/>
<path d="M153.261 111.616H143.043V121.758H153.261V111.616Z" fill="#5A6872"/>
<path d="M143.043 111.616H132.826V121.758H143.043V111.616Z" fill="#414F5A"/>
<path d="M132.826 111.616H122.609V121.758H132.826V111.616Z" fill="#4A5862"/>
<path d="M122.609 111.616H112.391V121.758H122.609V111.616Z" fill="#495762"/>
<path d="M112.391 111.616H102.174V121.758H112.391V111.616Z" fill="#4C5A64"/>
<path d="M102.174 111.616H91.9565V121.758H102.174V111.616Z" fill="#4F5C66"/>
<path d="M91.9565 111.616H81.7391V121.758H91.9565V111.616Z" fill="#5D6B75"/>
<path d="M81.7391 111.616H71.5217V121.758H81.7391V111.616Z" fill="#687681"/>
<path d="M71.5217 111.616H61.3043V121.758H71.5217V111.616Z" fill="#4C5A64"/>
<path d="M61.3044 111.616H51.087V121.758H61.3044V111.616Z" fill="#3C4A56"/>
<path d="M51.087 111.616H40.8696V121.758H51.087V111.616Z" fill="#31414D"/>
<path d="M40.8696 111.616H30.6522V121.758H40.8696V111.616Z" fill="#425259"/>
<path d="M183.913 101.475H173.696V111.616H183.913V101.475Z" fill="#314350"/>
<path d="M173.696 101.475H163.478V111.616H173.696V101.475Z" fill="#324450"/>
<path d="M163.478 101.475H153.261V111.616H163.478V101.475Z" fill="#495761"/>
<path d="M153.261 101.475H143.043V111.616H153.261V101.475Z" fill="#55636D"/>
<path d="M143.043 101.475H132.826V111.616H143.043V101.475Z" fill="#495761"/>
<path d="M132.826 101.475H122.609V111.616H132.826V101.475Z" fill="#3B4854"/>
<path d="M122.609 101.475H112.391V111.616H122.609V101.475Z" fill="#4B5862"/>
<path d="M112.391 101.475H102.174V111.616H112.391V101.475Z" fill="#4D5B65"/>
<path d="M102.174 101.475H91.9565V111.616H102.174V101.475Z" fill="#697682"/>
<path d="M91.9565 101.475H81.7391V111.616H91.9565V101.475Z" fill="#82909C"/>
<path d="M81.7391 101.475H71.5217V111.616H81.7391V101.475Z" fill="#808F9C"/>
<path d="M71.5217 101.475H61.3043V111.616H71.5217V101.475Z" fill="#4A5863"/>
<path d="M61.3044 101.475H51.087V111.616H61.3044V101.475Z" fill="#364451"/>
<path d="M51.087 101.475H40.8696V111.616H51.087V101.475Z" fill="#344451"/>
<path d="M40.8696 101.475H30.6522V111.616H40.8696V101.475Z" fill="#44545C"/>
<path d="M183.913 91.3333H173.696V101.475H183.913V91.3333Z" fill="#324350"/>
<path d="M173.696 91.3333H163.478V101.475H173.696V91.3333Z" fill="#2F404B"/>
<path d="M163.478 91.3333H153.261V101.475H163.478V91.3333Z" fill="#475660"/>
<path d="M153.261 91.3333H143.043V101.475H153.261V91.3333Z" fill="#4A5962"/>
<path d="M143.043 91.3333H132.826V101.475H143.043V91.3333Z" fill="#4B5863"/>
<path d="M132.826 91.3333H122.609V101.475H132.826V91.3333Z" fill="#354451"/>
<path d="M122.609 91.3333H112.391V101.475H122.609V91.3333Z" fill="#4B5963"/>
<path d="M112.391 91.3333H102.174V101.475H112.391V91.3333Z" fill="#4D5B64"/>
<path d="M102.174 91.3333H91.9565V101.475H102.174V91.3333Z" fill="#4B5964"/>
<path d="M91.9565 91.3333H81.7391V101.475H91.9565V91.3333Z" fill="#4E5C65"/>
<path d="M81.7391 91.3333H71.5217V101.475H81.7391V91.3333Z" fill="#6A7984"/>
<path d="M71.5217 91.3333H61.3043V101.475H71.5217V91.3333Z" fill="#42515D"/>
<path d="M61.3044 91.3333H51.087V101.475H61.3044V91.3333Z" fill="#364552"/>
<path d="M51.087 91.3333H40.8696V101.475H51.087V91.3333Z" fill="#374854"/>
<path d="M40.8696 91.3333H30.6522V101.475H40.8696V91.3333Z" fill="#606B71"/>
<path d="M173.696 81.1918H163.478V91.3333H173.696V81.1918Z" fill="#354550"/>
<path d="M163.478 81.1918H153.261V91.3333H163.478V81.1918Z" fill="#324350"/>
<path d="M153.261 81.1918H143.043V91.3333H153.261V81.1918Z" fill="#45545D"/>
<path d="M143.043 81.1918H132.826V91.3333H143.043V81.1918Z" fill="#505E68"/>
<path d="M132.826 81.1918H122.609V91.3333H132.826V81.1918Z" fill="#414F5B"/>
<path d="M122.609 81.1918H112.391V91.3333H122.609V81.1918Z" fill="#374552"/>
<path d="M112.391 81.1918H102.174V91.3333H112.391V81.1918Z" fill="#4C5963"/>
<path d="M102.174 81.1918H91.9565V91.3333H102.174V81.1918Z" fill="#4C5963"/>
<path d="M91.9565 81.1918H81.7391V91.3333H91.9565V81.1918Z" fill="#384651"/>
<path d="M81.7391 81.1918H71.5217V91.3333H81.7391V81.1918Z" fill="#47555F"/>
<path d="M71.5217 81.1918H61.3043V91.3333H71.5217V81.1918Z" fill="#364652"/>
<path d="M61.3044 81.1918H51.087V91.3333H61.3044V81.1918Z" fill="#384653"/>
<path d="M51.087 81.1918H40.8696V91.3333H51.087V81.1918Z" fill="#44535F"/>
<path d="M163.478 71.0504H153.261V81.1918H163.478V71.0504Z" fill="#364752"/>
<path d="M153.261 71.0504H143.043V81.1918H153.261V71.0504Z" fill="#31434F"/>
<path d="M143.043 71.0504H132.826V81.1918H143.043V71.0504Z" fill="#4A5962"/>
<path d="M132.826 71.0504H122.609V81.1918H132.826V71.0504Z" fill="#4A5863"/>
<path d="M122.609 71.0504H112.391V81.1918H122.609V71.0504Z" fill="#354552"/>
<path d="M112.391 71.0504H102.174V81.1918H112.391V71.0504Z" fill="#4D5B64"/>
<path d="M102.174 71.0504H91.9565V81.1918H102.174V71.0504Z" fill="#46545D"/>
<path d="M91.9565 71.0504H81.7391V81.1918H91.9565V71.0504Z" fill="#4D5B66"/>
<path d="M81.7391 71.0504H71.5217V81.1918H81.7391V71.0504Z" fill="#374652"/>
<path d="M71.5217 71.0504H61.3043V81.1918H71.5217V71.0504Z" fill="#41505B"/>
<path d="M61.3044 71.0504H51.087V81.1918H61.3044V71.0504Z" fill="#4C5A65"/>
<path d="M153.261 60.9089H143.043V71.0504H153.261V60.9089Z" fill="#3F505A"/>
<path d="M143.043 60.9089H132.826V71.0504H143.043V60.9089Z" fill="#30414E"/>
<path d="M132.826 60.9089H122.609V71.0504H132.826V60.9089Z" fill="#4A5962"/>
<path d="M122.609 60.9089H112.391V71.0504H122.609V60.9089Z" fill="#364551"/>
<path d="M112.391 60.9089H102.174V71.0504H112.391V60.9089Z" fill="#4C5964"/>
<path d="M102.174 60.9089H91.9565V71.0504H102.174V60.9089Z" fill="#43515A"/>
<path d="M91.9565 60.9089H81.7391V71.0504H91.9565V60.9089Z" fill="#3C4C58"/>
<path d="M81.7391 60.9089H71.5217V71.0504H81.7391V60.9089Z" fill="#495761"/>
<path d="M143.043 50.7674H132.826V60.9089H143.043V50.7674Z" fill="#374855"/>
<path d="M132.826 50.7674H122.609V60.9089H132.826V50.7674Z" fill="#3E4E59"/>
<path d="M122.609 50.7674H112.391V60.9089H122.609V50.7674Z" fill="#3E4C56"/>
<path d="M112.391 50.7674H102.174V60.9089H112.391V50.7674Z" fill="#3E4C59"/>
<path d="M102.174 50.7674H91.9565V60.9089H102.174V50.7674Z" fill="#4C5B65"/>
<path d="M91.9565 50.7674H81.7391V60.9089H91.9565V50.7674Z" fill="#475660"/>
<path d="M132.826 40.5659H122.609V50.7074H132.826V40.5659Z" fill="#2A3B4A"/>
<path d="M122.609 40.5659H112.391V50.7074H122.609V40.5659Z" fill="#273948"/>
<path d="M112.391 40.5659H102.174V50.7074H112.391V40.5659Z" fill="#273B49"/>
<path d="M102.174 40.5659H91.9565V50.7074H102.174V40.5659Z" fill="#2F4351"/>
<path d="M132.826 30.4244H122.609V40.5659H132.826V30.4244Z" fill="#2B3D4A"/>
<path d="M122.609 30.4244H112.391V40.5659H122.609V30.4244Z" fill="#3A4A57"/>
<path d="M112.391 30.4244H102.174V40.5659H112.391V30.4244Z" fill="#3D4D59"/>
<path d="M102.174 30.4244H91.9565V40.5659H102.174V30.4244Z" fill="#364753"/>
<path d="M91.9565 30.4244H81.7391V40.5659H91.9565V30.4244Z" fill="#4B5964"/>
<path d="M143.043 20.283H132.826V30.4244H143.043V20.283Z" fill="#263C49"/>
<path d="M132.826 20.283H122.609V30.4244H132.826V20.283Z" fill="#374753"/>
<path d="M122.609 20.283H112.391V30.4244H122.609V20.283Z" fill="#4B5962"/>
<path d="M112.391 20.283H102.174V30.4244H112.391V20.283Z" fill="#394854"/>
<path d="M102.174 20.283H91.9565V30.4244H102.174V20.283Z" fill="#33434F"/>
<path d="M91.9565 20.283H81.7391V30.4244H91.9565V20.283Z" fill="#4C5A65"/>
<path d="M81.7391 20.283H71.5217V30.4244H81.7391V20.283Z" fill="#495964"/>
<path d="M153.261 10.1415H143.043V20.283H153.261V10.1415Z" fill="#3D4E5A"/>
<path d="M143.043 10.1415H132.826V20.283H143.043V10.1415Z" fill="#304350"/>
<path d="M132.826 10.1415H122.609V20.283H132.826V10.1415Z" fill="#364754"/>
<path d="M122.609 10.1415H112.391V20.283H122.609V10.1415Z" fill="#4A5761"/>
<path d="M112.391 10.1415H102.174V20.283H112.391V10.1415Z" fill="#33434F"/>
<path d="M102.174 10.1415H91.9565V20.283H102.174V10.1415Z" fill="#344451"/>
<path d="M91.9565 10.1415H81.7391V20.283H91.9565V10.1415Z" fill="#4C5A64"/>
<path d="M81.7391 10.1415H71.5217V20.283H81.7391V10.1415Z" fill="#4E5C67"/>
<path d="M71.5217 10.1415H61.3043V20.283H71.5217V10.1415Z" fill="#6B767D"/>
<path d="M122.609 0H112.391V10.1415H122.609V0Z" fill="#56626A"/>
<path d="M112.391 0H102.174V10.1415H112.391V0Z" fill="#495661"/>
<path d="M102.174 0H91.9565V10.1415H102.174V0Z" fill="#46545F"/>
<path d="M91.9565 0H81.7391V10.1415H91.9565V0Z" fill="#4D5B66"/>
<path d="M81.7391 0H71.5217V10.1415H81.7391V0Z" fill="#4C5A64"/>
<path d="M71.5217 0H61.3043V10.1415H71.5217V0Z" fill="#667178"/>
</g>
<defs>
<clipPath id="clip0_2_2">
<rect width="235" height="274" fill="white"/>
</clipPath>
</defs>
</svg>
