<svg width="195" height="247" viewBox="0 0 195 247" fill="none" xmlns="http://www.w3.org/2000/svg">
<g clip-path="url(#clip0_2_1727)">
<path d="M115.227 238.184H106.364V247H115.227V238.184Z" fill="#4EBDC4"/>
<path d="M124.091 238.184H115.227V247H124.091V238.184Z" fill="#4EBDC4"/>
<path d="M132.955 238.184H124.091V247H132.955V238.184Z" fill="#4EBDC4"/>
<path d="M141.818 238.184H132.955V247H141.818V238.184Z" fill="#4EBDC4"/>
<path d="M106.364 238.184H97.5V247H106.364V238.184Z" fill="#57C1CC"/>
<path d="M97.5 238.184H88.6364V247H97.5V238.184Z" fill="#91D0D4"/>
<path d="M88.6363 238.184H79.7727V247H88.6363V238.184Z" fill="#9AD6D9"/>
<path d="M79.7727 238.184H70.9091V247H79.7727V238.184Z" fill="#ABDDE0"/>
<path d="M159.545 229.368H150.682V238.184H159.545V229.368Z" fill="#3F959C"/>
<path d="M150.682 229.368H141.818V238.184H150.682V229.368Z" fill="#3C7177"/>
<path d="M141.818 229.368H132.955V238.184H141.818V229.368Z" fill="#397175"/>
<path d="M132.955 229.368H124.091V238.184H132.955V229.368Z" fill="#356F72"/>
<path d="M124.091 229.368H115.227V238.184H124.091V229.368Z" fill="#326E73"/>
<path d="M115.227 229.368H106.364V238.184H115.227V229.368Z" fill="#326B71"/>
<path d="M106.364 229.368H97.5V238.184H106.364V229.368Z" fill="#386970"/>
<path d="M97.5 229.368H88.6364V238.184H97.5V229.368Z" fill="#376970"/>
<path d="M88.6363 229.368H79.7727V238.184H88.6363V229.368Z" fill="#316C74"/>
<path d="M79.7727 229.368H70.9091V238.184H79.7727V229.368Z" fill="#45999E"/>
<path d="M70.9091 229.368H62.0455V238.184H70.9091V229.368Z" fill="#64D5CB"/>
<path d="M62.0455 229.368H53.1818V238.184H62.0455V229.368Z" fill="#5DD7CD"/>
<path d="M53.1818 229.368H44.3182V238.184H53.1818V229.368Z" fill="#A0DEDF"/>
<path d="M159.545 220.552H150.682V229.368H159.545V220.552Z" fill="#3B7E8A"/>
<path d="M150.682 220.552H141.818V229.368H150.682V220.552Z" fill="#3C848B"/>
<path d="M141.818 220.552H132.955V229.368H141.818V220.552Z" fill="#3A8188"/>
<path d="M132.955 220.552H124.091V229.368H132.955V220.552Z" fill="#33747A"/>
<path d="M124.091 220.552H115.227V229.368H124.091V220.552Z" fill="#356E75"/>
<path d="M115.227 220.552H106.364V229.368H115.227V220.552Z" fill="#3A6B73"/>
<path d="M106.364 220.552H97.5V229.368H106.364V220.552Z" fill="#3D6A73"/>
<path d="M97.5 220.552H88.6364V229.368H97.5V220.552Z" fill="#3C6A73"/>
<path d="M88.6363 220.552H79.7727V229.368H88.6363V220.552Z" fill="#376C73"/>
<path d="M79.7727 220.552H70.9091V229.368H79.7727V220.552Z" fill="#366C7A"/>
<path d="M70.9091 220.552H62.0455V229.368H70.9091V220.552Z" fill="#53ADAE"/>
<path d="M62.0455 220.552H53.1818V229.368H62.0455V220.552Z" fill="#64CFC5"/>
<path d="M53.1818 220.552H44.3182V229.368H53.1818V220.552Z" fill="#58D8CD"/>
<path d="M44.3182 220.552H35.4545V229.368H44.3182V220.552Z" fill="#7BD8D6"/>
<path d="M186.136 211.737H177.273V220.552H186.136V211.737Z" fill="#3BA3AA"/>
<path d="M177.273 211.737H168.409V220.552H177.273V211.737Z" fill="#35989E"/>
<path d="M168.409 211.737H159.545V220.552H168.409V211.737Z" fill="#3997A0"/>
<path d="M159.545 211.737H150.682V220.552H159.545V211.737Z" fill="#4EB3C0"/>
<path d="M150.682 211.737H141.818V220.552H150.682V211.737Z" fill="#82D7D5"/>
<path d="M141.818 211.737H132.955V220.552H141.818V211.737Z" fill="#86D7D5"/>
<path d="M132.955 211.737H124.091V220.552H132.955V211.737Z" fill="#80D8D6"/>
<path d="M124.091 211.737H115.227V220.552H124.091V211.737Z" fill="#80DAD5"/>
<path d="M115.227 211.737H106.364V220.552H115.227V211.737Z" fill="#70D7CE"/>
<path d="M106.364 211.737H97.5V220.552H106.364V211.737Z" fill="#60CEC9"/>
<path d="M97.5 211.737H88.6364V220.552H97.5V211.737Z" fill="#63CCCA"/>
<path d="M88.6363 211.737H79.7727V220.552H88.6363V211.737Z" fill="#55BFC1"/>
<path d="M79.7727 211.737H70.9091V220.552H79.7727V211.737Z" fill="#51BBC3"/>
<path d="M70.9091 211.737H62.0455V220.552H70.9091V211.737Z" fill="#46AEC2"/>
<path d="M62.0455 211.737H53.1818V220.552H62.0455V211.737Z" fill="#3EB2BD"/>
<path d="M53.1818 211.737H44.3182V220.552H53.1818V211.737Z" fill="#61D0CB"/>
<path d="M44.3182 211.737H35.4545V220.552H44.3182V211.737Z" fill="#60D2CC"/>
<path d="M35.4545 211.737H26.5909V220.552H35.4545V211.737Z" fill="#5BC7C5"/>
<path d="M26.5909 211.737H17.7273V220.552H26.5909V211.737Z" fill="#78D5D2"/>
<path d="M186.136 202.921H177.273V211.737H186.136V202.921Z" fill="#2C6B70"/>
<path d="M177.273 202.921H168.409V211.737H177.273V202.921Z" fill="#36757C"/>
<path d="M168.409 202.921H159.545V211.737H168.409V202.921Z" fill="#44AFBB"/>
<path d="M159.545 202.921H150.682V211.737H159.545V202.921Z" fill="#3BABBA"/>
<path d="M150.682 202.921H141.818V211.737H150.682V202.921Z" fill="#39ABBD"/>
<path d="M141.818 202.921H132.955V211.737H141.818V202.921Z" fill="#3CAABD"/>
<path d="M132.955 202.921H124.091V211.737H132.955V202.921Z" fill="#3EAABC"/>
<path d="M124.091 202.921H115.227V211.737H124.091V202.921Z" fill="#3AAABF"/>
<path d="M115.227 202.921H106.364V211.737H115.227V202.921Z" fill="#40ACBF"/>
<path d="M106.364 202.921H97.5V211.737H106.364V202.921Z" fill="#4EC0C7"/>
<path d="M97.5 202.921H88.6364V211.737H97.5V202.921Z" fill="#5CCACC"/>
<path d="M88.6363 202.921H79.7727V211.737H88.6363V202.921Z" fill="#57D3CC"/>
<path d="M79.7727 202.921H70.9091V211.737H79.7727V202.921Z" fill="#63D8D1"/>
<path d="M70.9091 202.921H62.0455V211.737H70.9091V202.921Z" fill="#62D8D0"/>
<path d="M62.0455 202.921H53.1818V211.737H62.0455V202.921Z" fill="#63D8D0"/>
<path d="M53.1818 202.921H44.3182V211.737H53.1818V202.921Z" fill="#61D0CE"/>
<path d="M44.3182 202.921H35.4545V211.737H44.3182V202.921Z" fill="#61D3CC"/>
<path d="M35.4545 202.921H26.5909V211.737H35.4545V202.921Z" fill="#49ADAF"/>
<path d="M26.5909 202.921H17.7273V211.737H26.5909V202.921Z" fill="#4FB0B5"/>
<path d="M17.7273 202.921H8.86365V211.737H17.7273V202.921Z" fill="#8BD8D8"/>
<path d="M186.136 194.105H177.273V202.921H186.136V194.105Z" fill="#2F7073"/>
<path d="M177.273 194.105H168.409V202.921H177.273V194.105Z" fill="#2F7074"/>
<path d="M168.409 194.105H159.545V202.921H168.409V194.105Z" fill="#36848A"/>
<path d="M159.545 194.105H150.682V202.921H159.545V194.105Z" fill="#72D3CA"/>
<path d="M150.682 194.105H141.818V202.921H150.682V194.105Z" fill="#6AD8CF"/>
<path d="M141.818 194.105H132.955V202.921H141.818V194.105Z" fill="#6ADBD1"/>
<path d="M132.955 194.105H124.091V202.921H132.955V194.105Z" fill="#69DDD2"/>
<path d="M124.091 194.105H115.227V202.921H124.091V194.105Z" fill="#69DCD2"/>
<path d="M115.227 194.105H106.364V202.921H115.227V194.105Z" fill="#67E0D5"/>
<path d="M106.364 194.105H97.5V202.921H106.364V194.105Z" fill="#79DDD7"/>
<path d="M97.5 194.105H88.6364V202.921H97.5V194.105Z" fill="#A5E8EA"/>
<path d="M88.6363 194.105H79.7727V202.921H88.6363V194.105Z" fill="#A4EEF2"/>
<path d="M79.7727 194.105H70.9091V202.921H79.7727V194.105Z" fill="#6FDDDA"/>
<path d="M70.9091 194.105H62.0455V202.921H70.9091V194.105Z" fill="#65D9D0"/>
<path d="M62.0455 194.105H53.1818V202.921H62.0455V194.105Z" fill="#64DAD1"/>
<path d="M53.1818 194.105H44.3182V202.921H53.1818V194.105Z" fill="#8DDDE8"/>
<path d="M44.3182 194.105H35.4545V202.921H44.3182V194.105Z" fill="#67D7CD"/>
<path d="M35.4545 194.105H26.5909V202.921H35.4545V194.105Z" fill="#3FA1A8"/>
<path d="M26.5909 194.105H17.7273V202.921H26.5909V194.105Z" fill="#3B8D96"/>
<path d="M17.7273 194.105H8.86365V202.921H17.7273V194.105Z" fill="#5EC9CB"/>
<path d="M195 185.237H186.136V194.053H195V185.237Z" fill="#70AAAE"/>
<path d="M186.136 185.237H177.273V194.053H186.136V185.237Z" fill="#2F7273"/>
<path d="M177.273 185.237H168.409V194.053H177.273V185.237Z" fill="#307173"/>
<path d="M168.409 185.237H159.545V194.053H168.409V185.237Z" fill="#4BACB2"/>
<path d="M159.545 185.237H150.682V194.053H159.545V185.237Z" fill="#7AD7C8"/>
<path d="M150.682 185.237H141.818V194.053H150.682V185.237Z" fill="#71D9CB"/>
<path d="M141.818 185.237H132.955V194.053H141.818V185.237Z" fill="#66DBCF"/>
<path d="M132.955 185.237H124.091V194.053H132.955V185.237Z" fill="#68DBD2"/>
<path d="M124.091 185.237H115.227V194.053H124.091V185.237Z" fill="#67DDD1"/>
<path d="M115.227 185.237H106.364V194.053H115.227V185.237Z" fill="#65E0D4"/>
<path d="M106.364 185.237H97.5V194.053H106.364V185.237Z" fill="#6DDCD0"/>
<path d="M97.5 185.237H88.6364V194.053H97.5V185.237Z" fill="#72DDD5"/>
<path d="M88.6363 185.237H79.7727V194.053H88.6363V185.237Z" fill="#8FE6E8"/>
<path d="M79.7727 185.237H70.9091V194.053H79.7727V185.237Z" fill="#81E0E3"/>
<path d="M70.9091 185.237H62.0455V194.053H70.9091V185.237Z" fill="#67DACF"/>
<path d="M62.0455 185.237H53.1818V194.053H62.0455V185.237Z" fill="#64DCD0"/>
<path d="M53.1818 185.237H44.3182V194.053H53.1818V185.237Z" fill="#9AE5F1"/>
<path d="M44.3182 185.237H35.4545V194.053H44.3182V185.237Z" fill="#68DBCF"/>
<path d="M35.4545 185.237H26.5909V194.053H35.4545V185.237Z" fill="#3C9DA6"/>
<path d="M26.5909 185.237H17.7273V194.053H26.5909V185.237Z" fill="#3B909A"/>
<path d="M17.7273 185.237H8.86365V194.053H17.7273V185.237Z" fill="#55B5BA"/>
<path d="M195 176.421H186.136V185.237H195V176.421Z" fill="#3D93A0"/>
<path d="M186.136 176.421H177.273V185.237H186.136V176.421Z" fill="#409CA6"/>
<path d="M177.273 176.421H168.409V185.237H177.273V176.421Z" fill="#3EAAB4"/>
<path d="M168.409 176.421H159.545V185.237H168.409V176.421Z" fill="#42ABBA"/>
<path d="M159.545 176.421H150.682V185.237H159.545V176.421Z" fill="#3BA7B9"/>
<path d="M150.682 176.421H141.818V185.237H150.682V176.421Z" fill="#3CA5B3"/>
<path d="M141.818 176.421H132.955V185.237H141.818V176.421Z" fill="#5AC0C0"/>
<path d="M132.955 176.421H124.091V185.237H132.955V176.421Z" fill="#5AC3C5"/>
<path d="M124.091 176.421H115.227V185.237H124.091V176.421Z" fill="#53BAC6"/>
<path d="M115.227 176.421H106.364V185.237H115.227V176.421Z" fill="#4FB8C8"/>
<path d="M106.364 176.421H97.5V185.237H106.364V176.421Z" fill="#5ABECD"/>
<path d="M97.5 176.421H88.6364V185.237H97.5V176.421Z" fill="#51C1CD"/>
<path d="M88.6363 176.421H79.7727V185.237H88.6363V176.421Z" fill="#61DAD4"/>
<path d="M79.7727 176.421H70.9091V185.237H79.7727V176.421Z" fill="#62DBD1"/>
<path d="M70.9091 176.421H62.0455V185.237H70.9091V176.421Z" fill="#75DEDA"/>
<path d="M62.0455 176.421H53.1818V185.237H62.0455V176.421Z" fill="#6DDDD7"/>
<path d="M53.1818 176.421H44.3182V185.237H53.1818V176.421Z" fill="#9AE9F2"/>
<path d="M44.3182 176.421H35.4545V185.237H44.3182V176.421Z" fill="#76CDD5"/>
<path d="M35.4545 176.421H26.5909V185.237H35.4545V176.421Z" fill="#33919E"/>
<path d="M26.5909 176.421H17.7273V185.237H26.5909V176.421Z" fill="#35939C"/>
<path d="M17.7273 176.421H8.86365V185.237H17.7273V176.421Z" fill="#3A939A"/>
<path d="M195 167.605H186.136V176.421H195V167.605Z" fill="#45A9B4"/>
<path d="M186.136 167.605H177.273V176.421H186.136V167.605Z" fill="#49B0B7"/>
<path d="M177.273 167.605H168.409V176.421H177.273V167.605Z" fill="#42AEBA"/>
<path d="M168.409 167.605H159.545V176.421H168.409V167.605Z" fill="#5DBDBF"/>
<path d="M159.545 167.605H150.682V176.421H159.545V167.605Z" fill="#6BD9CF"/>
<path d="M150.682 167.605H141.818V176.421H150.682V167.605Z" fill="#4FAAAD"/>
<path d="M141.818 167.605H132.955V176.421H141.818V167.605Z" fill="#6BC5C3"/>
<path d="M132.955 167.605H124.091V176.421H132.955V167.605Z" fill="#6CCFCF"/>
<path d="M124.091 167.605H115.227V176.421H124.091V167.605Z" fill="#5ACECE"/>
<path d="M115.227 167.605H106.364V176.421H115.227V167.605Z" fill="#78E1D9"/>
<path d="M106.364 167.605H97.5V176.421H106.364V167.605Z" fill="#96E8E7"/>
<path d="M97.5 167.605H88.6364V176.421H97.5V167.605Z" fill="#8AE7E5"/>
<path d="M88.6363 167.605H79.7727V176.421H88.6363V167.605Z" fill="#72E1DA"/>
<path d="M79.7727 167.605H70.9091V176.421H79.7727V167.605Z" fill="#67DFD5"/>
<path d="M70.9091 167.605H62.0455V176.421H70.9091V167.605Z" fill="#66DBD5"/>
<path d="M62.0455 167.605H53.1818V176.421H62.0455V167.605Z" fill="#69DED7"/>
<path d="M53.1818 167.605H44.3182V176.421H53.1818V167.605Z" fill="#6DDFD4"/>
<path d="M44.3182 167.605H35.4545V176.421H44.3182V167.605Z" fill="#6EDCD5"/>
<path d="M35.4545 167.605H26.5909V176.421H35.4545V167.605Z" fill="#82DEDC"/>
<path d="M26.5909 167.605H17.7273V176.421H26.5909V167.605Z" fill="#51B6BA"/>
<path d="M17.7273 167.605H8.86365V176.421H17.7273V167.605Z" fill="#35949E"/>
<path d="M8.86364 167.605H0V176.421H8.86364V167.605Z" fill="#69D2D0"/>
<path d="M195 158.789H186.136V167.605H195V158.789Z" fill="#48A7B1"/>
<path d="M186.136 158.789H177.273V167.605H186.136V158.789Z" fill="#39686B"/>
<path d="M177.273 158.789H168.409V167.605H177.273V158.789Z" fill="#439CA5"/>
<path d="M168.409 158.789H159.545V167.605H168.409V158.789Z" fill="#43B1BB"/>
<path d="M159.545 158.789H150.682V167.605H159.545V158.789Z" fill="#328794"/>
<path d="M150.682 158.789H141.818V167.605H150.682V158.789Z" fill="#68CFCE"/>
<path d="M141.818 158.789H132.955V167.605H141.818V158.789Z" fill="#5BC0C5"/>
<path d="M132.955 158.789H124.091V167.605H132.955V158.789Z" fill="#67D5D6"/>
<path d="M124.091 158.789H115.227V167.605H124.091V158.789Z" fill="#6CE1D8"/>
<path d="M115.227 158.789H106.364V167.605H115.227V158.789Z" fill="#6EE2D9"/>
<path d="M106.364 158.789H97.5V167.605H106.364V158.789Z" fill="#6EE4D9"/>
<path d="M97.5 158.789H88.6364V167.605H97.5V158.789Z" fill="#73E4D8"/>
<path d="M88.6363 158.789H79.7727V167.605H88.6363V158.789Z" fill="#69D9D1"/>
<path d="M79.7727 158.789H70.9091V167.605H79.7727V158.789Z" fill="#48B9C0"/>
<path d="M70.9091 158.789H62.0455V167.605H70.9091V158.789Z" fill="#7ADFDF"/>
<path d="M62.0455 158.789H53.1818V167.605H62.0455V158.789Z" fill="#99E9EC"/>
<path d="M53.1818 158.789H44.3182V167.605H53.1818V158.789Z" fill="#70DED4"/>
<path d="M44.3182 158.789H35.4545V167.605H44.3182V158.789Z" fill="#48B9C2"/>
<path d="M35.4545 158.789H26.5909V167.605H35.4545V158.789Z" fill="#4FBAC3"/>
<path d="M26.5909 158.789H17.7273V167.605H26.5909V158.789Z" fill="#72DDD6"/>
<path d="M17.7273 158.789H8.86365V167.605H17.7273V158.789Z" fill="#6BD8D3"/>
<path d="M8.86364 158.789H0V167.605H8.86364V158.789Z" fill="#69D6D5"/>
<path d="M195 149.974H186.136V158.789H195V149.974Z" fill="#48A4AE"/>
<path d="M186.136 149.974H177.273V158.789H186.136V149.974Z" fill="#3A6C6E"/>
<path d="M177.273 149.974H168.409V158.789H177.273V149.974Z" fill="#3F838B"/>
<path d="M168.409 149.974H159.545V158.789H168.409V149.974Z" fill="#57B2B8"/>
<path d="M159.545 149.974H150.682V158.789H159.545V149.974Z" fill="#42A4B1"/>
<path d="M150.682 149.974H141.818V158.789H150.682V149.974Z" fill="#68C5C7"/>
<path d="M141.818 149.974H132.955V158.789H141.818V149.974Z" fill="#49AABB"/>
<path d="M132.955 149.974H124.091V158.789H132.955V149.974Z" fill="#77E1DB"/>
<path d="M124.091 149.974H115.227V158.789H124.091V149.974Z" fill="#6BE4DA"/>
<path d="M115.227 149.974H106.364V158.789H115.227V149.974Z" fill="#6BE1D8"/>
<path d="M106.364 149.974H97.5V158.789H106.364V149.974Z" fill="#6FE1D9"/>
<path d="M97.5 149.974H88.6364V158.789H97.5V149.974Z" fill="#61D3D3"/>
<path d="M88.6363 149.974H79.7727V158.789H88.6363V149.974Z" fill="#47B9C2"/>
<path d="M79.7727 149.974H70.9091V158.789H79.7727V149.974Z" fill="#4FBAC1"/>
<path d="M70.9091 149.974H62.0455V158.789H70.9091V149.974Z" fill="#96E8EB"/>
<path d="M62.0455 149.974H53.1818V158.789H62.0455V149.974Z" fill="#88E5E3"/>
<path d="M53.1818 149.974H44.3182V158.789H53.1818V149.974Z" fill="#68D1CF"/>
<path d="M44.3182 149.974H35.4545V158.789H44.3182V149.974Z" fill="#4ABAC2"/>
<path d="M35.4545 149.974H26.5909V158.789H35.4545V149.974Z" fill="#4ABFC8"/>
<path d="M26.5909 149.974H17.7273V158.789H26.5909V149.974Z" fill="#6DD9D5"/>
<path d="M17.7273 149.974H8.86365V158.789H17.7273V149.974Z" fill="#69D8D2"/>
<path d="M8.86364 149.974H0V158.789H8.86364V149.974Z" fill="#A8E3E4"/>
<path d="M195 141.158H186.136V149.974H195V141.158Z" fill="#3F8E94"/>
<path d="M186.136 141.158H177.273V149.974H186.136V141.158Z" fill="#397172"/>
<path d="M177.273 141.158H168.409V149.974H177.273V141.158Z" fill="#346F73"/>
<path d="M168.409 141.158H159.545V149.974H168.409V141.158Z" fill="#419EA8"/>
<path d="M159.545 141.158H150.682V149.974H159.545V141.158Z" fill="#3FAAB7"/>
<path d="M150.682 141.158H141.818V149.974H150.682V141.158Z" fill="#5EBFC5"/>
<path d="M141.818 141.158H132.955V149.974H141.818V141.158Z" fill="#46A7B8"/>
<path d="M132.955 141.158H124.091V149.974H132.955V141.158Z" fill="#6CE1DB"/>
<path d="M124.091 141.158H115.227V149.974H124.091V141.158Z" fill="#9FE5E9"/>
<path d="M115.227 141.158H106.364V149.974H115.227V141.158Z" fill="#69DED7"/>
<path d="M106.364 141.158H97.5V149.974H106.364V141.158Z" fill="#74DDDA"/>
<path d="M97.5 141.158H88.6364V149.974H97.5V141.158Z" fill="#76DDD6"/>
<path d="M88.6363 141.158H79.7727V149.974H88.6363V141.158Z" fill="#62C8CD"/>
<path d="M79.7727 141.158H70.9091V149.974H79.7727V141.158Z" fill="#65D1D2"/>
<path d="M70.9091 141.158H62.0455V149.974H70.9091V141.158Z" fill="#7FE2E1"/>
<path d="M62.0455 141.158H53.1818V149.974H62.0455V141.158Z" fill="#71DFD8"/>
<path d="M53.1818 141.158H44.3182V149.974H53.1818V141.158Z" fill="#47BAC8"/>
<path d="M44.3182 141.158H35.4545V149.974H44.3182V141.158Z" fill="#43BDCA"/>
<path d="M35.4545 141.158H26.5909V149.974H35.4545V141.158Z" fill="#8CE7E0"/>
<path d="M26.5909 141.158H17.7273V149.974H26.5909V141.158Z" fill="#6ADBD6"/>
<path d="M17.7273 141.158H8.86365V149.974H17.7273V141.158Z" fill="#64DAD4"/>
<path d="M195 132.342H186.136V141.158H195V132.342Z" fill="#368088"/>
<path d="M186.136 132.342H177.273V141.158H186.136V132.342Z" fill="#397474"/>
<path d="M177.273 132.342H168.409V141.158H177.273V132.342Z" fill="#367173"/>
<path d="M168.409 132.342H159.545V141.158H168.409V132.342Z" fill="#3FAEB7"/>
<path d="M159.545 132.342H150.682V141.158H159.545V132.342Z" fill="#45AFBB"/>
<path d="M150.682 132.342H141.818V141.158H150.682V132.342Z" fill="#58B9C0"/>
<path d="M141.818 132.342H132.955V141.158H141.818V132.342Z" fill="#55B6BE"/>
<path d="M132.955 132.342H124.091V141.158H132.955V132.342Z" fill="#7DE1DD"/>
<path d="M124.091 132.342H115.227V141.158H124.091V132.342Z" fill="#80E3E0"/>
<path d="M115.227 132.342H106.364V141.158H115.227V132.342Z" fill="#85E1E4"/>
<path d="M106.364 132.342H97.5V141.158H106.364V132.342Z" fill="#4AC6C2"/>
<path d="M97.5 132.342H88.6364V141.158H97.5V132.342Z" fill="#58CACB"/>
<path d="M88.6363 132.342H79.7727V141.158H88.6363V132.342Z" fill="#78E3DC"/>
<path d="M79.7727 132.342H70.9091V141.158H79.7727V132.342Z" fill="#77E4DB"/>
<path d="M70.9091 132.342H62.0455V141.158H70.9091V132.342Z" fill="#78E2DC"/>
<path d="M62.0455 132.342H53.1818V141.158H62.0455V132.342Z" fill="#7AE0DC"/>
<path d="M53.1818 132.342H44.3182V141.158H53.1818V132.342Z" fill="#80E3DE"/>
<path d="M44.3182 132.342H35.4545V141.158H44.3182V132.342Z" fill="#87E6DD"/>
<path d="M35.4545 132.342H26.5909V141.158H35.4545V132.342Z" fill="#74DFD8"/>
<path d="M26.5909 132.342H17.7273V141.158H26.5909V132.342Z" fill="#62E6DB"/>
<path d="M186.136 123.526H177.273V132.342H186.136V123.526Z" fill="#357879"/>
<path d="M177.273 123.526H168.409V132.342H177.273V123.526Z" fill="#377577"/>
<path d="M168.409 123.526H159.545V132.342H168.409V123.526Z" fill="#367172"/>
<path d="M159.545 123.526H150.682V132.342H159.545V123.526Z" fill="#4EA8B1"/>
<path d="M150.682 123.526H141.818V132.342H150.682V123.526Z" fill="#3EAEB8"/>
<path d="M141.818 123.526H132.955V132.342H141.818V123.526Z" fill="#74D9D3"/>
<path d="M132.955 123.526H124.091V132.342H132.955V123.526Z" fill="#84E5DE"/>
<path d="M124.091 123.526H115.227V132.342H124.091V123.526Z" fill="#85D8D7"/>
<path d="M115.227 123.526H106.364V132.342H115.227V123.526Z" fill="#4BCCCF"/>
<path d="M106.364 123.526H97.5V132.342H106.364V123.526Z" fill="#71D5D5"/>
<path d="M97.5 123.526H88.6364V132.342H97.5V123.526Z" fill="#75E4DC"/>
<path d="M88.6363 123.526H79.7727V132.342H88.6363V123.526Z" fill="#9AECED"/>
<path d="M70.9091 97.0264H62.0455V105.842H70.9091V97.0264Z" fill="#9AECED"/>
<path d="M79.7727 105.842H70.9091V114.658H79.7727V105.842Z" fill="#9AECED"/>
<path d="M79.7727 123.526H70.9091V132.342H79.7727V123.526Z" fill="#73E4DD"/>
<path d="M70.9091 123.526H62.0455V132.342H70.9091V123.526Z" fill="#79E0DD"/>
<path d="M62.0455 123.526H53.1818V132.342H62.0455V123.526Z" fill="#79DFDC"/>
<path d="M53.1818 123.526H44.3182V132.342H53.1818V123.526Z" fill="#78DEDB"/>
<path d="M44.3182 123.526H35.4545V132.342H44.3182V123.526Z" fill="#65DFDA"/>
<path d="M35.4545 123.526H26.5909V132.342H35.4545V123.526Z" fill="#A5ECE6"/>
<path d="M186.136 114.71H177.273V123.526H186.136V114.71Z" fill="#357C7E"/>
<path d="M177.273 114.71H168.409V123.526H177.273V114.71Z" fill="#377B7C"/>
<path d="M168.409 114.71H159.545V123.526H168.409V114.71Z" fill="#367777"/>
<path d="M159.545 114.71H150.682V123.526H159.545V114.71Z" fill="#489AA0"/>
<path d="M150.682 114.71H141.818V123.526H150.682V114.71Z" fill="#42AAB3"/>
<path d="M141.818 114.71H132.955V123.526H141.818V114.71Z" fill="#76DBD6"/>
<path d="M132.955 114.71H124.091V123.526H132.955V114.71Z" fill="#6EE2DB"/>
<path d="M124.091 114.71H115.227V123.526H124.091V114.71Z" fill="#75E4DC"/>
<path d="M115.227 114.71H106.364V123.526H115.227V114.71Z" fill="#4EBEC4"/>
<path d="M106.364 114.71H97.5V123.526H106.364V114.71Z" fill="#7AE3DE"/>
<path d="M97.5 114.71H88.6364V123.526H97.5V114.71Z" fill="#72E2D9"/>
<path d="M88.6363 114.71H79.7727V123.526H88.6363V114.71Z" fill="#89EAE7"/>
<path d="M79.7727 114.71H70.9091V123.526H79.7727V114.71Z" fill="#86E7E7"/>
<path d="M70.9091 114.71H62.0455V123.526H70.9091V114.71Z" fill="#6EDDDB"/>
<path d="M62.0455 114.71H53.1818V123.526H62.0455V114.71Z" fill="#6BDED9"/>
<path d="M53.1818 114.71H44.3182V123.526H53.1818V114.71Z" fill="#6AE2DB"/>
<path d="M177.273 105.842H168.409V114.658H177.273V105.842Z" fill="#7CABAB"/>
<path d="M168.409 105.842H159.545V114.658H168.409V105.842Z" fill="#388080"/>
<path d="M159.545 105.842H150.682V114.658H159.545V105.842Z" fill="#4B9696"/>
<path d="M150.682 105.842H141.818V114.658H150.682V105.842Z" fill="#59AEB5"/>
<path d="M141.818 105.842H132.955V114.658H141.818V105.842Z" fill="#61C3C8"/>
<path d="M132.955 105.842H124.091V114.658H132.955V105.842Z" fill="#6FDFD7"/>
<path d="M124.091 105.842H115.227V114.658H124.091V105.842Z" fill="#75E4DC"/>
<path d="M115.227 105.842H106.364V114.658H115.227V105.842Z" fill="#7BE7E2"/>
<path d="M106.364 105.842H97.5V114.658H106.364V105.842Z" fill="#73E5DE"/>
<path d="M97.5 105.842H88.6364V114.658H97.5V105.842Z" fill="#5EC1C2"/>
<path d="M88.6363 105.842H79.7727V114.658H88.6363V105.842Z" fill="#7EE3DF"/>
<path d="M70.9091 105.842H62.0455V114.658H70.9091V105.842Z" fill="#99F1F1"/>
<path d="M62.0455 105.842H53.1818V114.658H62.0455V105.842Z" fill="#99F2F0"/>
<path d="M53.1818 105.842H44.3182V114.658H53.1818V105.842Z" fill="#72E0DC"/>
<path d="M159.545 97.0264H150.682V105.842H159.545V97.0264Z" fill="#348482"/>
<path d="M150.682 97.0264H141.818V105.842H150.682V97.0264Z" fill="#57B4BA"/>
<path d="M141.818 97.0264H132.955V105.842H141.818V97.0264Z" fill="#5FC3C5"/>
<path d="M132.955 97.0264H124.091V105.842H132.955V97.0264Z" fill="#70DBD5"/>
<path d="M124.091 97.0264H115.227V105.842H124.091V97.0264Z" fill="#44A2A2"/>
<path d="M115.227 97.0264H106.364V105.842H115.227V97.0264Z" fill="#72E3DD"/>
<path d="M106.364 97.0264H97.5V105.842H106.364V97.0264Z" fill="#56B4B7"/>
<path d="M97.5 97.0264H88.6364V105.842H97.5V97.0264Z" fill="#51A8AC"/>
<path d="M88.6363 97.0264H79.7727V105.842H88.6363V97.0264Z" fill="#6FE6E0"/>
<path d="M79.7727 97.0264H70.9091V105.842H79.7727V97.0264Z" fill="#75E5E0"/>
<path d="M62.0455 97.0264H53.1818V105.842H62.0455V97.0264Z" fill="#A0F2F3"/>
<path d="M53.1818 97.0264H44.3182V105.842H53.1818V97.0264Z" fill="#73DFDB"/>
<path d="M159.545 88.2106H150.682V97.0264H159.545V88.2106Z" fill="#3E8C89"/>
<path d="M150.682 88.2106H141.818V97.0264H150.682V88.2106Z" fill="#5FBCC2"/>
<path d="M141.818 88.2106H132.955V97.0264H141.818V88.2106Z" fill="#5EBFBD"/>
<path d="M132.955 88.2106H124.091V97.0264H132.955V88.2106Z" fill="#6FDCD5"/>
<path d="M124.091 88.2106H115.227V97.0264H124.091V88.2106Z" fill="#5CBAB7"/>
<path d="M115.227 88.2106H106.364V97.0264H115.227V88.2106Z" fill="#71E1DA"/>
<path d="M106.364 88.2106H97.5V97.0264H106.364V88.2106Z" fill="#72E3DF"/>
<path d="M97.5 88.2106H88.6364V97.0264H97.5V88.2106Z" fill="#6CDDD8"/>
<path d="M88.6363 88.2106H79.7727V97.0264H88.6363V88.2106Z" fill="#70D2CF"/>
<path d="M79.7727 88.2106H70.9091V97.0264H79.7727V88.2106Z" fill="#7CE6DF"/>
<path d="M70.9091 88.2106H62.0455V97.0264H70.9091V88.2106Z" fill="#84E5E4"/>
<path d="M62.0455 88.2106H53.1818V97.0264H62.0455V88.2106Z" fill="#9FEFF3"/>
<path d="M150.682 79.3947H141.818V88.2106H150.682V79.3947Z" fill="#67C3C8"/>
<path d="M141.818 79.3947H132.955V88.2106H141.818V79.3947Z" fill="#52AFAE"/>
<path d="M132.955 79.3947H124.091V88.2106H132.955V79.3947Z" fill="#72DED7"/>
<path d="M124.091 79.3947H115.227V88.2106H124.091V79.3947Z" fill="#60C1BE"/>
<path d="M115.227 79.3947H106.364V88.2106H115.227V79.3947Z" fill="#75E0DA"/>
<path d="M106.364 79.3947H97.5V88.2106H106.364V79.3947Z" fill="#5FC0BE"/>
<path d="M97.5 79.3947H88.6364V88.2106H97.5V79.3947Z" fill="#479EA0"/>
<path d="M88.6363 79.3947H79.7727V88.2106H88.6363V79.3947Z" fill="#7FE5DF"/>
<path d="M79.7727 79.3947H70.9091V88.2106H79.7727V79.3947Z" fill="#7CE7DE"/>
<path d="M70.9091 79.3947H62.0455V88.2106H70.9091V79.3947Z" fill="#70DED9"/>
<path d="M62.0455 79.3947H53.1818V88.2106H62.0455V79.3947Z" fill="#73E2DD"/>
<path d="M150.682 70.5789H141.818V79.3947H150.682V70.5789Z" fill="#67C1BE"/>
<path d="M141.818 70.5789H132.955V79.3947H141.818V70.5789Z" fill="#69C6C7"/>
<path d="M132.955 70.5789H124.091V79.3947H132.955V70.5789Z" fill="#5FBFBA"/>
<path d="M124.091 70.5789H115.227V79.3947H124.091V70.5789Z" fill="#74DDD3"/>
<path d="M115.227 70.5789H106.364V79.3947H115.227V70.5789Z" fill="#439398"/>
<path d="M106.364 70.5789H97.5V79.3947H106.364V70.5789Z" fill="#76E3DC"/>
<path d="M97.5 70.5789H88.6364V79.3947H97.5V70.5789Z" fill="#71E1DA"/>
<path d="M88.6363 70.5789H79.7727V79.3947H88.6363V70.5789Z" fill="#8AEBE7"/>
<path d="M79.7727 70.5789H70.9091V79.3947H79.7727V70.5789Z" fill="#90EAE9"/>
<path d="M70.9091 70.5789H62.0455V79.3947H70.9091V70.5789Z" fill="#A0EBE7"/>
<path d="M132.955 61.7631H124.091V70.5789H132.955V61.7631Z" fill="#489699"/>
<path d="M124.091 61.7631H115.227V70.5789H124.091V61.7631Z" fill="#4FB1B6"/>
<path d="M115.227 61.7631H106.364V70.5789H115.227V61.7631Z" fill="#4DC0C4"/>
<path d="M106.364 61.7631H97.5V70.5789H106.364V61.7631Z" fill="#50BEC3"/>
<path d="M97.5 61.7631H88.6364V70.5789H97.5V61.7631Z" fill="#67D3D3"/>
<path d="M88.6363 61.7631H79.7727V70.5789H88.6363V61.7631Z" fill="#81E5E1"/>
<path d="M168.409 52.9472H159.545V61.763H168.409V52.9472Z" fill="#49B2BB"/>
<path d="M159.545 52.9472H150.682V61.763H159.545V52.9472Z" fill="#55BABF"/>
<path d="M150.682 52.9472H141.818V61.763H150.682V52.9472Z" fill="#51BABE"/>
<path d="M141.818 52.9472H132.955V61.763H141.818V52.9472Z" fill="#51BDC1"/>
<path d="M132.955 52.9472H124.091V61.763H132.955V52.9472Z" fill="#58B8B9"/>
<path d="M177.273 44.1313H168.409V52.9472H177.273V44.1313Z" fill="#56B3BC"/>
<path d="M168.409 44.1313H159.545V52.9472H168.409V44.1313Z" fill="#57B9C0"/>
<path d="M159.545 44.1313H150.682V52.9472H159.545V44.1313Z" fill="#58C0C5"/>
<path d="M150.682 44.1313H141.818V52.9472H150.682V44.1313Z" fill="#6FD4D1"/>
<path d="M141.818 44.1313H132.955V52.9472H141.818V44.1313Z" fill="#4CB4B6"/>
<path d="M132.955 44.1313H124.091V52.9472H132.955V44.1313Z" fill="#72D5D3"/>
<path d="M124.091 44.1313H115.227V52.9472H124.091V44.1313Z" fill="#53B3B9"/>
<path d="M195 35.2634H186.136V44.0792H195V35.2634Z" fill="#61B0BC"/>
<path d="M186.136 35.2634H177.273V44.0792H186.136V35.2634Z" fill="#5AC0C3"/>
<path d="M177.273 35.2634H168.409V44.0792H177.273V35.2634Z" fill="#64D0CE"/>
<path d="M168.409 35.2634H159.545V44.0792H168.409V35.2634Z" fill="#65CCCE"/>
<path d="M159.545 35.2634H150.682V44.0792H159.545V35.2634Z" fill="#65CBCA"/>
<path d="M150.682 35.2634H141.818V44.0792H150.682V35.2634Z" fill="#77E2DB"/>
<path d="M141.818 35.2634H132.955V44.0792H141.818V35.2634Z" fill="#77E2DA"/>
<path d="M132.955 35.2634H124.091V44.0792H132.955V35.2634Z" fill="#62C5C9"/>
<path d="M124.091 35.2634H115.227V44.0792H124.091V35.2634Z" fill="#6AC7CA"/>
<path d="M115.227 35.2634H106.364V44.0792H115.227V35.2634Z" fill="#399898"/>
<path d="M177.273 26.4475H168.409V35.2633H177.273V26.4475Z" fill="#57B6BF"/>
<path d="M168.409 26.4475H159.545V35.2633H168.409V26.4475Z" fill="#6BD9D4"/>
<path d="M159.545 26.4475H150.682V35.2633H159.545V26.4475Z" fill="#66CDCA"/>
<path d="M150.682 26.4475H141.818V35.2633H150.682V26.4475Z" fill="#4CABB0"/>
<path d="M141.818 26.4475H132.955V35.2633H141.818V26.4475Z" fill="#7AE4DE"/>
<path d="M132.955 26.4475H124.091V35.2633H132.955V26.4475Z" fill="#57BCC3"/>
<path d="M124.091 26.4475H115.227V35.2633H124.091V26.4475Z" fill="#55BBBF"/>
<path d="M115.227 26.4475H106.364V35.2633H115.227V26.4475Z" fill="#5DC1C0"/>
<path d="M168.409 17.6317H159.545V26.4475H168.409V17.6317Z" fill="#418388"/>
<path d="M159.545 17.6317H150.682V26.4475H159.545V17.6317Z" fill="#6BD0CB"/>
<path d="M150.682 17.6317H141.818V26.4475H150.682V17.6317Z" fill="#77E2DB"/>
<path d="M141.818 17.6317H132.955V26.4475H141.818V17.6317Z" fill="#75DFDA"/>
<path d="M132.955 17.6317H124.091V26.4475H132.955V17.6317Z" fill="#71CFD3"/>
<path d="M124.091 17.6317H115.227V26.4475H124.091V17.6317Z" fill="#63C6C9"/>
<path d="M115.227 17.6317H106.364V26.4475H115.227V17.6317Z" fill="#72D8D6"/>
<path d="M159.545 8.81586H150.682V17.6317H159.545V8.81586Z" fill="#3E8F93"/>
<path d="M150.682 8.81586H141.818V17.6317H150.682V8.81586Z" fill="#78E2DC"/>
<path d="M141.818 8.81586H132.955V17.6317H141.818V8.81586Z" fill="#7DE0DA"/>
<path d="M132.955 8.81586H124.091V17.6317H132.955V8.81586Z" fill="#7DDEDB"/>
<path d="M124.091 8.81586H115.227V17.6317H124.091V8.81586Z" fill="#6BCDCD"/>
<path d="M115.227 8.81586H106.364V17.6317H115.227V8.81586Z" fill="#58B8BF"/>
<path d="M150.682 0H141.818V8.81584H150.682V0Z" fill="#75DFDB"/>
<path d="M141.818 0H132.955V8.81584H141.818V0Z" fill="#76E1DA"/>
<path d="M132.955 0H124.091V8.81584H132.955V0Z" fill="#9BEBE5"/>
<path d="M124.091 0H115.227V8.81584H124.091V0Z" fill="#99EAE6"/>
<path d="M115.227 0H106.364V8.81584H115.227V0Z" fill="#7ADFDE"/>
<path d="M106.364 0H97.5V8.81584H106.364V0Z" fill="#71DEDB"/>
</g>
<defs>
<clipPath id="clip0_2_1727">
<rect width="195" height="247" fill="white"/>
</clipPath>
</defs>
</svg>
