<svg width="127" height="138" viewBox="0 0 127 138" fill="none" xmlns="http://www.w3.org/2000/svg">
<path d="M35.873 39.3383L40.7528 72.8102L33.7256 74.6943L21.1112 43.2963L16.3818 25.6576L31.1436 21.6996L35.873 39.3383ZM45.6878 77.4522L49.3423 91.0821L35.2879 94.8504L31.6334 81.2205L45.6878 77.4522Z" fill="black"/>
<path d="M77.7179 47.8766L80.7267 35.3922L94.2554 38.6528L91.8414 48.6688C90.7202 53.3207 88.681 56.7804 85.7237 59.0477C82.798 61.3227 79.0683 62.3491 74.5345 62.127L75.7357 57.1427C79.176 56.9004 81.7474 55.6785 83.45 53.4771C84.3639 52.3245 84.9374 51.0564 85.1705 49.6727L77.7179 47.8766ZM108.258 64.3281C105.349 66.674 101.576 67.7403 96.9398 67.5269L98.1411 62.5427C101.637 62.3473 104.24 61.0659 105.949 58.6986C106.643 57.7611 107.17 56.5486 107.528 55.0613L100.123 53.2765L103.132 40.7922L116.613 44.0413L114.199 54.0573C113.109 58.5826 111.128 62.0063 108.258 64.3281Z" fill="black"/>
</svg>
