<svg width="230" height="320" viewBox="0 0 230 320" fill="none" xmlns="http://www.w3.org/2000/svg">
<g clip-path="url(#clip0_2_428)">
<path d="M230 308.624H218.5V320H230V308.624Z" fill="#BA625E"/>
<path d="M218.5 308.624H207V320H218.5V308.624Z" fill="#E05F55"/>
<path d="M207 308.624H195.5V320H207V308.624Z" fill="#EB655D"/>
<path d="M195.5 308.624H184V320H195.5V308.624Z" fill="#D25650"/>
<path d="M184 308.624H172.5V320H184V308.624Z" fill="#BE4843"/>
<path d="M172.5 308.624H161V320H172.5V308.624Z" fill="#BD4742"/>
<path d="M161 308.624H149.5V320H161V308.624Z" fill="#BC4642"/>
<path d="M149.5 308.624H138V320H149.5V308.624Z" fill="#BC4642"/>
<path d="M138 308.624H126.5V320H138V308.624Z" fill="#BC4742"/>
<path d="M126.5 308.624H115V320H126.5V308.624Z" fill="#B84642"/>
<path d="M115 308.624H103.5V320H115V308.624Z" fill="#B44441"/>
<path d="M103.5 308.624H92V320H103.5V308.624Z" fill="#B3433F"/>
<path d="M92 308.624H80.5V320H92V308.624Z" fill="#B34440"/>
<path d="M80.5 308.624H69V320H80.5V308.624Z" fill="#B34541"/>
<path d="M69 308.624H57.5V320H69V308.624Z" fill="#BE4B46"/>
<path d="M57.5 308.624H46V320H57.5V308.624Z" fill="#E35A53"/>
<path d="M46 308.624H34.5V320H46V308.624Z" fill="#D55952"/>
<path d="M34.5 308.624H23V320H34.5V308.624Z" fill="#C6554F"/>
<path d="M23 308.624H11.5V320H23V308.624Z" fill="#D05953"/>
<path d="M11.5 308.624H0V320H11.5V308.624Z" fill="#F5665C"/>
<path d="M230 297.135H218.5V308.511H230V297.135Z" fill="#F99088"/>
<path d="M218.5 297.135H207V308.511H218.5V297.135Z" fill="#A84944"/>
<path d="M207 297.135H195.5V308.511H207V297.135Z" fill="#D16158"/>
<path d="M195.5 297.135H184V308.511H195.5V297.135Z" fill="#FE7266"/>
<path d="M184 297.135H172.5V308.511H184V297.135Z" fill="#FE7266"/>
<path d="M172.5 297.135H161V308.511H172.5V297.135Z" fill="#FD7167"/>
<path d="M161 297.135H149.5V308.511H161V297.135Z" fill="#E26159"/>
<path d="M149.5 297.135H138V308.511H149.5V297.135Z" fill="#C9524D"/>
<path d="M138 297.135H126.5V308.511H138V297.135Z" fill="#C9544E"/>
<path d="M126.5 297.135H115V308.511H126.5V297.135Z" fill="#CC554E"/>
<path d="M115 297.135H103.5V308.511H115V297.135Z" fill="#C6544E"/>
<path d="M103.5 297.135H92V308.511H103.5V297.135Z" fill="#BC4C46"/>
<path d="M92 297.135H80.5V308.511H92V297.135Z" fill="#F2665E"/>
<path d="M80.5 297.135H69V308.511H80.5V297.135Z" fill="#F67F6F"/>
<path d="M69 297.135H57.5V308.511H69V297.135Z" fill="#F86B63"/>
<path d="M57.5 297.135H46V308.511H57.5V297.135Z" fill="#FB6862"/>
<path d="M46 297.135H34.5V308.511H46V297.135Z" fill="#B04843"/>
<path d="M34.5 297.135H23V308.511H34.5V297.135Z" fill="#A94641"/>
<path d="M23 297.135H11.5V308.511H23V297.135Z" fill="#AA4642"/>
<path d="M11.5 297.135H0V308.511H11.5V297.135Z" fill="#F8645E"/>
<path d="M230 285.759H218.5V297.135H230V285.759Z" fill="#F17166"/>
<path d="M218.5 285.759H207V297.135H218.5V285.759Z" fill="#AA4845"/>
<path d="M207 285.759H195.5V297.135H207V285.759Z" fill="#B24C47"/>
<path d="M195.5 285.759H184V297.135H195.5V285.759Z" fill="#FC7065"/>
<path d="M184 285.759H172.5V297.135H184V285.759Z" fill="#FD776C"/>
<path d="M172.5 285.759H161V297.135H172.5V285.759Z" fill="#FC9587"/>
<path d="M161 285.759H149.5V297.135H161V285.759Z" fill="#FA9080"/>
<path d="M149.5 285.759H138V297.135H149.5V285.759Z" fill="#FE766A"/>
<path d="M138 285.759H126.5V297.135H138V285.759Z" fill="#FE766A"/>
<path d="M126.5 285.759H115V297.135H126.5V285.759Z" fill="#FC776A"/>
<path d="M115 285.759H103.5V297.135H115V285.759Z" fill="#F77469"/>
<path d="M103.5 285.759H92V297.135H103.5V285.759Z" fill="#F47368"/>
<path d="M92 285.759H80.5V297.135H92V285.759Z" fill="#F8766B"/>
<path d="M80.5 285.759H69V297.135H80.5V285.759Z" fill="#DB625A"/>
<path d="M69 285.759H57.5V297.135H69V285.759Z" fill="#E1625A"/>
<path d="M57.5 285.759H46V297.135H57.5V285.759Z" fill="#F88375"/>
<path d="M46 285.759H34.5V297.135H46V285.759Z" fill="#FC6D60"/>
<path d="M34.5 285.759H23V297.135H34.5V285.759Z" fill="#B64B45"/>
<path d="M23 285.759H11.5V297.135H23V285.759Z" fill="#CD5852"/>
<path d="M11.5 285.759H0V297.135H11.5V285.759Z" fill="#F06F6A"/>
<path d="M230 274.27H218.5V285.646H230V274.27Z" fill="#F87265"/>
<path d="M218.5 274.27H207V285.646H218.5V274.27Z" fill="#AB4944"/>
<path d="M207 274.27H195.5V285.646H207V274.27Z" fill="#EF6B60"/>
<path d="M195.5 274.27H184V285.646H195.5V274.27Z" fill="#FA8173"/>
<path d="M184 274.27H172.5V285.646H184V274.27Z" fill="#FDA293"/>
<path d="M172.5 274.27H161V285.646H172.5V274.27Z" fill="#FB9788"/>
<path d="M161 274.27H149.5V285.646H161V274.27Z" fill="#FC766A"/>
<path d="M149.5 274.27H138V285.646H149.5V274.27Z" fill="#F06F67"/>
<path d="M138 274.27H126.5V285.646H138V274.27Z" fill="#EC6C65"/>
<path d="M126.5 274.27H115V285.646H126.5V274.27Z" fill="#DF625D"/>
<path d="M115 274.27H103.5V285.646H115V274.27Z" fill="#DD5F5B"/>
<path d="M103.5 274.27H92V285.646H103.5V274.27Z" fill="#D75D59"/>
<path d="M92 274.27H80.5V285.646H92V274.27Z" fill="#CF5853"/>
<path d="M80.5 274.27H69V285.646H80.5V274.27Z" fill="#D85F5A"/>
<path d="M69 274.27H57.5V285.646H69V274.27Z" fill="#CE5B53"/>
<path d="M57.5 274.27H46V285.646H57.5V274.27Z" fill="#EB7063"/>
<path d="M46 274.27H34.5V285.646H46V274.27Z" fill="#FA6D60"/>
<path d="M34.5 274.27H23V285.646H34.5V274.27Z" fill="#DE5F56"/>
<path d="M23 274.27H11.5V285.646H23V274.27Z" fill="#DF6159"/>
<path d="M11.5 274.27H0V285.646H11.5V274.27Z" fill="#F28D87"/>
<path d="M230 262.893H218.5V274.27H230V262.893Z" fill="#FB7366"/>
<path d="M218.5 262.893H207V274.27H218.5V262.893Z" fill="#B64E48"/>
<path d="M207 262.893H195.5V274.27H207V262.893Z" fill="#FD7266"/>
<path d="M195.5 262.893H184V274.27H195.5V262.893Z" fill="#EB6761"/>
<path d="M184 262.893H172.5V274.27H184V262.893Z" fill="#E1605D"/>
<path d="M172.5 262.893H161V274.27H172.5V262.893Z" fill="#DC5E59"/>
<path d="M161 262.893H149.5V274.27H161V262.893Z" fill="#D65C57"/>
<path d="M149.5 262.893H138V274.27H149.5V262.893Z" fill="#C85652"/>
<path d="M138 262.893H126.5V274.27H138V262.893Z" fill="#C2504D"/>
<path d="M126.5 262.893H115V274.27H126.5V262.893Z" fill="#C3514D"/>
<path d="M115 262.893H103.5V274.27H115V262.893Z" fill="#B94C47"/>
<path d="M103.5 262.893H92V274.27H103.5V262.893Z" fill="#B74A45"/>
<path d="M92 262.893H80.5V274.27H92V262.893Z" fill="#CD5B54"/>
<path d="M80.5 262.893H69V274.27H80.5V262.893Z" fill="#F7786A"/>
<path d="M69 262.893H57.5V274.27H69V262.893Z" fill="#FD756B"/>
<path d="M57.5 262.893H46V274.27H57.5V262.893Z" fill="#FB7467"/>
<path d="M46 262.893H34.5V274.27H46V262.893Z" fill="#C4524A"/>
<path d="M34.5 262.893H23V274.27H34.5V262.893Z" fill="#E96A60"/>
<path d="M23 262.893H11.5V274.27H23V262.893Z" fill="#FA6F64"/>
<path d="M230 251.404H218.5V262.781H230V251.404Z" fill="#FA7366"/>
<path d="M218.5 251.404H207V262.781H218.5V251.404Z" fill="#CF615B"/>
<path d="M207 251.404H195.5V262.781H207V251.404Z" fill="#FA7167"/>
<path d="M195.5 251.404H184V262.781H195.5V251.404Z" fill="#E7645F"/>
<path d="M184 251.404H172.5V262.781H184V251.404Z" fill="#EA655E"/>
<path d="M172.5 251.404H161V262.781H172.5V251.404Z" fill="#FB7067"/>
<path d="M161 251.404H149.5V262.781H161V251.404Z" fill="#E7665E"/>
<path d="M149.5 251.404H138V262.781H149.5V251.404Z" fill="#C3514B"/>
<path d="M138 251.404H126.5V262.781H138V251.404Z" fill="#BA4C48"/>
<path d="M126.5 251.404H115V262.781H126.5V251.404Z" fill="#BA4B46"/>
<path d="M115 251.404H103.5V262.781H115V251.404Z" fill="#B94A46"/>
<path d="M103.5 251.404H92V262.781H103.5V251.404Z" fill="#F1766E"/>
<path d="M92 251.404H80.5V262.781H92V251.404Z" fill="#FD8075"/>
<path d="M80.5 251.404H69V262.781H80.5V251.404Z" fill="#FE7469"/>
<path d="M69 251.404H57.5V262.781H69V251.404Z" fill="#FD7669"/>
<path d="M57.5 251.404H46V262.781H57.5V251.404Z" fill="#FE7569"/>
<path d="M46 251.404H34.5V262.781H46V251.404Z" fill="#FE7569"/>
<path d="M34.5 251.404H23V262.781H34.5V251.404Z" fill="#FE7467"/>
<path d="M23 251.404H11.5V262.781H23V251.404Z" fill="#FC7165"/>
<path d="M230 240.028H218.5V251.404H230V240.028Z" fill="#FB7568"/>
<path d="M218.5 240.028H207V251.404H218.5V240.028Z" fill="#C95D57"/>
<path d="M207 240.028H195.5V251.404H207V240.028Z" fill="#FE7368"/>
<path d="M195.5 240.028H184V251.404H195.5V240.028Z" fill="#FD7366"/>
<path d="M184 240.028H172.5V251.404H184V240.028Z" fill="#FD7365"/>
<path d="M172.5 240.028H161V251.404H172.5V240.028Z" fill="#C3504B"/>
<path d="M161 240.028H149.5V251.404H161V240.028Z" fill="#C8534C"/>
<path d="M149.5 240.028H138V251.404H149.5V240.028Z" fill="#D25C57"/>
<path d="M138 240.028H126.5V251.404H138V240.028Z" fill="#E46A61"/>
<path d="M126.5 240.028H115V251.404H126.5V240.028Z" fill="#F2796A"/>
<path d="M115 240.028H103.5V251.404H115V240.028Z" fill="#FB988B"/>
<path d="M92 240.028H80.5V251.404H92V240.028Z" fill="#FD7569"/>
<path d="M80.5 240.028H69V251.404H80.5V240.028Z" fill="#FE7467"/>
<path d="M69 240.028H57.5V251.404H69V240.028Z" fill="#FE7669"/>
<path d="M57.5 240.028H46V251.404H57.5V240.028Z" fill="#FA8C7E"/>
<path d="M46 240.028H34.5V251.404H46V240.028Z" fill="#FE7568"/>
<path d="M34.5 240.028H23V251.404H34.5V240.028Z" fill="#FE7668"/>
<path d="M23 240.028H11.5V251.404H23V240.028Z" fill="#F46D64"/>
<path d="M230 228.539H218.5V239.916H230V228.539Z" fill="#FB7366"/>
<path d="M218.5 228.539H207V239.916H218.5V228.539Z" fill="#BD564E"/>
<path d="M207 228.539H195.5V239.916H207V228.539Z" fill="#FE7267"/>
<path d="M195.5 228.539H184V239.916H195.5V228.539Z" fill="#FD7366"/>
<path d="M184 228.539H172.5V239.916H184V228.539Z" fill="#FC7365"/>
<path d="M172.5 228.539H161V239.916H172.5V228.539Z" fill="#BF4D47"/>
<path d="M161 228.539H149.5V239.916H161V228.539Z" fill="#C8524C"/>
<path d="M149.5 228.539H138V239.916H149.5V228.539Z" fill="#EC6B5F"/>
<path d="M138 228.539H126.5V239.916H138V228.539Z" fill="#FD7C6E"/>
<path d="M126.5 228.539H115V239.916H126.5V228.539Z" fill="#FD8273"/>
<path d="M115 228.539H103.5V239.916H115V228.539Z" fill="#F9B3A6"/>
<path d="M103.5 228.539H92V239.916H103.5V228.539Z" fill="#FA9384"/>
<path d="M92 228.539H80.5V239.916H92V228.539Z" fill="#FE7569"/>
<path d="M80.5 228.539H69V239.916H80.5V228.539Z" fill="#FE7467"/>
<path d="M69 228.539H57.5V239.916H69V228.539Z" fill="#FD7668"/>
<path d="M57.5 228.539H46V239.916H57.5V228.539Z" fill="#FAA192"/>
<path d="M46 228.539H34.5V239.916H46V228.539Z" fill="#FE7669"/>
<path d="M34.5 228.539H23V239.916H34.5V228.539Z" fill="#FE7668"/>
<path d="M23 228.539H11.5V239.916H23V228.539Z" fill="#F56B63"/>
<path d="M218.5 217.163H207V228.539H218.5V217.163Z" fill="#B75650"/>
<path d="M207 217.163H195.5V228.539H207V217.163Z" fill="#FA7464"/>
<path d="M195.5 217.163H184V228.539H195.5V217.163Z" fill="#E6675C"/>
<path d="M184 217.163H172.5V228.539H184V217.163Z" fill="#BE4945"/>
<path d="M172.5 217.163H161V228.539H172.5V217.163Z" fill="#C9524D"/>
<path d="M161 217.163H149.5V228.539H161V217.163Z" fill="#FD7267"/>
<path d="M149.5 217.163H138V228.539H149.5V217.163Z" fill="#FD786B"/>
<path d="M138 217.163H126.5V228.539H138V217.163Z" fill="#FE8072"/>
<path d="M126.5 217.163H115V228.539H126.5V217.163Z" fill="#FE8475"/>
<path d="M115 217.163H103.5V228.539H115V217.163Z" fill="#FD8475"/>
<path d="M103.5 217.163H92V228.539H103.5V217.163Z" fill="#FD8475"/>
<path d="M92 217.163H80.5V228.539H92V217.163Z" fill="#FD776A"/>
<path d="M80.5 217.163H69V228.539H80.5V217.163Z" fill="#FE7569"/>
<path d="M69 217.163H57.5V228.539H69V217.163Z" fill="#FB796A"/>
<path d="M57.5 217.163H46V228.539H57.5V217.163Z" fill="#F7AE9F"/>
<path d="M46 217.163H34.5V228.539H46V217.163Z" fill="#FE7569"/>
<path d="M34.5 217.163H23V228.539H34.5V217.163Z" fill="#FD7568"/>
<path d="M23 217.163H11.5V228.539H23V217.163Z" fill="#FC6D64"/>
<path d="M218.5 205.674H207V217.05H218.5V205.674Z" fill="#AA4A44"/>
<path d="M207 205.674H195.5V217.05H207V205.674Z" fill="#FD7A6D"/>
<path d="M195.5 205.674H184V217.05H195.5V205.674Z" fill="#C24743"/>
<path d="M184 205.674H172.5V217.05H184V205.674Z" fill="#DD685E"/>
<path d="M172.5 205.674H161V217.05H172.5V205.674Z" fill="#FE7568"/>
<path d="M161 205.674H149.5V217.05H161V205.674Z" fill="#FDAEA1"/>
<path d="M149.5 205.674H138V217.05H149.5V205.674Z" fill="#FD7D6F"/>
<path d="M138 205.674H126.5V217.05H138V205.674Z" fill="#FE8173"/>
<path d="M126.5 205.674H115V217.05H126.5V205.674Z" fill="#FB9081"/>
<path d="M115 205.674H103.5V217.05H115V205.674Z" fill="#FC8677"/>
<path d="M103.5 205.674H92V217.05H103.5V205.674Z" fill="#FCA494"/>
<path d="M92 205.674H80.5V217.05H92V205.674Z" fill="#FD8171"/>
<path d="M80.5 205.674H69V217.05H80.5V205.674Z" fill="#FD806F"/>
<path d="M69 205.674H57.5V217.05H69V205.674Z" fill="#FB796A"/>
<path d="M57.5 205.674H46V217.05H57.5V205.674Z" fill="#FB9688"/>
<path d="M23 205.674H11.5V217.05H23V205.674Z" fill="#FB6C63"/>
<path d="M218.5 194.298H207V205.674H218.5V194.298Z" fill="#AA4A43"/>
<path d="M207 194.298H195.5V205.674H207V194.298Z" fill="#FE7567"/>
<path d="M195.5 194.298H184V205.674H195.5V194.298Z" fill="#FD7666"/>
<path d="M184 194.298H172.5V205.674H184V194.298Z" fill="#FE7668"/>
<path d="M172.5 194.298H161V205.674H172.5V194.298Z" fill="#FCA396"/>
<path d="M161 194.298H149.5V205.674H161V194.298Z" fill="#FB8F81"/>
<path d="M149.5 194.298H138V205.674H149.5V194.298Z" fill="#FE7E70"/>
<path d="M138 194.298H126.5V205.674H138V194.298Z" fill="#FE8273"/>
<path d="M126.5 194.298H115V205.674H126.5V194.298Z" fill="#FA9F92"/>
<path d="M34.5 205.674H23V217.05H34.5V205.674Z" fill="#FA9F92"/>
<path d="M34.5 194.298H23V205.674H34.5V194.298Z" fill="#FA9F92"/>
<path d="M46 205.674H34.5V217.05H46V205.674Z" fill="#FA9F92"/>
<path d="M103.5 240.028H92V251.404H103.5V240.028Z" fill="#FA9F92"/>
<path d="M46 194.298H34.5V205.674H46V194.298Z" fill="#FA9F92"/>
<path d="M115 194.298H103.5V205.674H115V194.298Z" fill="#FD8578"/>
<path d="M103.5 194.298H92V205.674H103.5V194.298Z" fill="#F99D8E"/>
<path d="M92 194.298H80.5V205.674H92V194.298Z" fill="#FC8577"/>
<path d="M80.5 194.298H69V205.674H80.5V194.298Z" fill="#FD7E6F"/>
<path d="M69 194.298H57.5V205.674H69V194.298Z" fill="#FD7669"/>
<path d="M57.5 194.298H46V205.674H57.5V194.298Z" fill="#FD7366"/>
<path d="M23 194.298H11.5V205.674H23V194.298Z" fill="#FC6B62"/>
<path d="M218.5 182.922H207V194.298H218.5V182.922Z" fill="#AA4C43"/>
<path d="M207 182.922H195.5V194.298H207V182.922Z" fill="#FE7567"/>
<path d="M195.5 182.922H184V194.298H195.5V182.922Z" fill="#FE7768"/>
<path d="M184 182.922H172.5V194.298H184V182.922Z" fill="#FD7768"/>
<path d="M172.5 182.922H161V194.298H172.5V182.922Z" fill="#FEAA9D"/>
<path d="M161 182.922H149.5V194.298H161V182.922Z" fill="#FD7A6A"/>
<path d="M149.5 182.922H138V194.298H149.5V182.922Z" fill="#FE7F70"/>
<path d="M138 182.922H126.5V194.298H138V182.922Z" fill="#FD8273"/>
<path d="M126.5 182.922H115V194.298H126.5V182.922Z" fill="#FA887A"/>
<path d="M115 182.922H103.5V194.298H115V182.922Z" fill="#FD8476"/>
<path d="M103.5 182.922H92V194.298H103.5V182.922Z" fill="#FA9382"/>
<path d="M46 182.922H34.5V194.298H46V182.922Z" fill="#FA9382"/>
<path d="M92 182.922H80.5V194.298H92V182.922Z" fill="#FB9B8E"/>
<path d="M92 171.433H80.5V182.809H92V171.433Z" fill="#FB9B8E"/>
<path d="M80.5 160.056H69V171.433H80.5V160.056Z" fill="#FB9B8E"/>
<path d="M80.5 182.922H69V194.298H80.5V182.922Z" fill="#FE7D6F"/>
<path d="M69 182.922H57.5V194.298H69V182.922Z" fill="#FD7265"/>
<path d="M57.5 182.922H46V194.298H57.5V182.922Z" fill="#FE7365"/>
<path d="M34.5 182.922H23V194.298H34.5V182.922Z" fill="#F99D92"/>
<path d="M92 160.056H80.5V171.433H92V160.056Z" fill="#F99D92"/>
<path d="M23 182.922H11.5V194.298H23V182.922Z" fill="#FA6A63"/>
<path d="M218.5 171.433H207V182.809H218.5V171.433Z" fill="#CC635A"/>
<path d="M207 171.433H195.5V182.809H207V171.433Z" fill="#FD7365"/>
<path d="M195.5 171.433H184V182.809H195.5V171.433Z" fill="#FC9482"/>
<path d="M184 171.433H172.5V182.809H184V171.433Z" fill="#FD7869"/>
<path d="M172.5 171.433H161V182.809H172.5V171.433Z" fill="#FA8274"/>
<path d="M161 171.433H149.5V182.809H161V171.433Z" fill="#FD7D6D"/>
<path d="M149.5 171.433H138V182.809H149.5V171.433Z" fill="#FE8071"/>
<path d="M138 171.433H126.5V182.809H138V171.433Z" fill="#E36E64"/>
<path d="M126.5 171.433H115V182.809H126.5V171.433Z" fill="#CC5F57"/>
<path d="M115 171.433H103.5V182.809H115V171.433Z" fill="#FE8374"/>
<path d="M103.5 171.433H92V182.809H103.5V171.433Z" fill="#FC9E8E"/>
<path d="M80.5 171.433H69V182.809H80.5V171.433Z" fill="#FD9084"/>
<path d="M69 171.433H57.5V182.809H69V171.433Z" fill="#FD7767"/>
<path d="M57.5 171.433H46V182.809H57.5V171.433Z" fill="#FD7264"/>
<path d="M46 171.433H34.5V182.809H46V171.433Z" fill="#F79287"/>
<path d="M34.5 171.433H23V182.809H34.5V171.433Z" fill="#F7685E"/>
<path d="M218.5 160.056H207V171.433H218.5V160.056Z" fill="#EA6B61"/>
<path d="M207 160.056H195.5V171.433H207V160.056Z" fill="#FD7A6B"/>
<path d="M195.5 160.056H184V171.433H195.5V160.056Z" fill="#FC8B76"/>
<path d="M184 160.056H172.5V171.433H184V160.056Z" fill="#FE776A"/>
<path d="M172.5 160.056H161V171.433H172.5V160.056Z" fill="#FD7767"/>
<path d="M161 160.056H149.5V171.433H161V160.056Z" fill="#F88374"/>
<path d="M149.5 160.056H138V171.433H149.5V160.056Z" fill="#FE8171"/>
<path d="M138 160.056H126.5V171.433H138V160.056Z" fill="#E16B62"/>
<path d="M126.5 160.056H115V171.433H126.5V160.056Z" fill="#CD5D58"/>
<path d="M115 160.056H103.5V171.433H115V160.056Z" fill="#FD7F72"/>
<path d="M103.5 160.056H92V171.433H103.5V160.056Z" fill="#FB9889"/>
<path d="M69 160.056H57.5V171.433H69V160.056Z" fill="#FC786A"/>
<path d="M57.5 160.056H46V171.433H57.5V160.056Z" fill="#FC7162"/>
<path d="M46 160.056H34.5V171.433H46V160.056Z" fill="#F68880"/>
<path d="M34.5 160.056H23V171.433H34.5V160.056Z" fill="#F8685F"/>
<path d="M218.5 148.567H207V159.944H218.5V148.567Z" fill="#FD7365"/>
<path d="M207 148.567H195.5V159.944H207V148.567Z" fill="#FD7767"/>
<path d="M195.5 148.567H184V159.944H195.5V148.567Z" fill="#FE7768"/>
<path d="M184 148.567H172.5V159.944H184V148.567Z" fill="#FC7F6D"/>
<path d="M172.5 148.567H161V159.944H172.5V148.567Z" fill="#FE7866"/>
<path d="M161 148.567H149.5V159.944H161V148.567Z" fill="#FA7E6D"/>
<path d="M149.5 148.567H138V159.944H149.5V148.567Z" fill="#FE8171"/>
<path d="M138 148.567H126.5V159.944H138V148.567Z" fill="#DB665E"/>
<path d="M126.5 148.567H115V159.944H126.5V148.567Z" fill="#CE5D58"/>
<path d="M115 148.567H103.5V159.944H115V148.567Z" fill="#FE7D6F"/>
<path d="M103.5 148.567H92V159.944H103.5V148.567Z" fill="#FC8A7B"/>
<path d="M92 148.567H80.5V159.944H92V148.567Z" fill="#FDB5AA"/>
<path d="M80.5 148.567H69V159.944H80.5V148.567Z" fill="#FDB2A9"/>
<path d="M69 148.567H57.5V159.944H69V148.567Z" fill="#FA9D90"/>
<path d="M57.5 148.567H46V159.944H57.5V148.567Z" fill="#FC7264"/>
<path d="M46 148.567H34.5V159.944H46V148.567Z" fill="#FA675F"/>
<path d="M218.5 137.191H207V148.567H218.5V137.191Z" fill="#FC7265"/>
<path d="M207 137.191H195.5V148.567H207V137.191Z" fill="#FE7565"/>
<path d="M195.5 137.191H184V148.567H195.5V137.191Z" fill="#FE7769"/>
<path d="M184 137.191H172.5V148.567H184V137.191Z" fill="#FE786A"/>
<path d="M172.5 137.191H161V148.567H172.5V137.191Z" fill="#FC7A6A"/>
<path d="M161 137.191H149.5V148.567H161V137.191Z" fill="#FC9180"/>
<path d="M149.5 137.191H138V148.567H149.5V137.191Z" fill="#FE8071"/>
<path d="M138 137.191H126.5V148.567H138V137.191Z" fill="#D25E58"/>
<path d="M126.5 137.191H115V148.567H126.5V137.191Z" fill="#D15D58"/>
<path d="M115 137.191H103.5V148.567H115V137.191Z" fill="#FE7C6F"/>
<path d="M103.5 137.191H92V148.567H103.5V137.191Z" fill="#FC8778"/>
<path d="M92 137.191H80.5V148.567H92V137.191Z" fill="#FEAEA4"/>
<path d="M80.5 137.191H69V148.567H80.5V137.191Z" fill="#FDB0A6"/>
<path d="M69 137.191H57.5V148.567H69V137.191Z" fill="#FCAEA3"/>
<path d="M57.5 137.191H46V148.567H57.5V137.191Z" fill="#FB786B"/>
<path d="M46 137.191H34.5V148.567H46V137.191Z" fill="#F87772"/>
<path d="M207 125.702H195.5V137.078H207V125.702Z" fill="#FE7567"/>
<path d="M195.5 125.702H184V137.078H195.5V125.702Z" fill="#D25F5A"/>
<path d="M184 125.702H172.5V137.078H184V125.702Z" fill="#D0665F"/>
<path d="M172.5 125.702H161V137.078H172.5V125.702Z" fill="#F57669"/>
<path d="M161 125.702H149.5V137.078H161V125.702Z" fill="#FBAE9D"/>
<path d="M149.5 125.702H138V137.078H149.5V125.702Z" fill="#FA7D6C"/>
<path d="M138 125.702H126.5V137.078H138V125.702Z" fill="#D35C58"/>
<path d="M126.5 125.702H115V137.078H126.5V125.702Z" fill="#C45A55"/>
<path d="M115 125.702H103.5V137.078H115V125.702Z" fill="#FE7C6E"/>
<path d="M103.5 125.702H92V137.078H103.5V125.702Z" fill="#FC8A78"/>
<path d="M92 125.702H80.5V137.078H92V125.702Z" fill="#FEA99D"/>
<path d="M80.5 125.702H69V137.078H80.5V125.702Z" fill="#FEAAA0"/>
<path d="M69 125.702H57.5V137.078H69V125.702Z" fill="#FA9287"/>
<path d="M57.5 125.702H46V137.078H57.5V125.702Z" fill="#F67870"/>
<path d="M207 114.326H195.5V125.702H207V114.326Z" fill="#FE7467"/>
<path d="M195.5 114.326H184V125.702H195.5V114.326Z" fill="#D05D59"/>
<path d="M184 114.326H172.5V125.702H184V114.326Z" fill="#C05650"/>
<path d="M172.5 114.326H161V125.702H172.5V114.326Z" fill="#C65D56"/>
<path d="M161 114.326H149.5V125.702H161V114.326Z" fill="#FE7C6F"/>
<path d="M149.5 114.326H138V125.702H149.5V114.326Z" fill="#F17767"/>
<path d="M138 114.326H126.5V125.702H138V114.326Z" fill="#CF5F5A"/>
<path d="M126.5 114.326H115V125.702H126.5V114.326Z" fill="#D16259"/>
<path d="M115 114.326H103.5V125.702H115V114.326Z" fill="#FE7B6B"/>
<path d="M103.5 114.326H92V125.702H103.5V114.326Z" fill="#FD7869"/>
<path d="M92 114.326H80.5V125.702H92V114.326Z" fill="#FB887B"/>
<path d="M80.5 114.326H69V125.702H80.5V114.326Z" fill="#FD7264"/>
<path d="M69 114.326H57.5V125.702H69V114.326Z" fill="#F9756C"/>
<path d="M207 102.837H195.5V114.213H207V102.837Z" fill="#EF7166"/>
<path d="M195.5 102.837H184V114.213H195.5V102.837Z" fill="#D05D59"/>
<path d="M184 102.837H172.5V114.213H184V102.837Z" fill="#D05E59"/>
<path d="M172.5 102.837H161V114.213H172.5V102.837Z" fill="#B8524D"/>
<path d="M161 102.837H149.5V114.213H161V102.837Z" fill="#DB6C64"/>
<path d="M149.5 102.837H138V114.213H149.5V102.837Z" fill="#EA7062"/>
<path d="M138 102.837H126.5V114.213H138V102.837Z" fill="#D5655E"/>
<path d="M126.5 102.837H115V114.213H126.5V102.837Z" fill="#DC6A5F"/>
<path d="M115 102.837H103.5V114.213H115V102.837Z" fill="#DC6F61"/>
<path d="M103.5 102.837H92V114.213H103.5V102.837Z" fill="#FD7366"/>
<path d="M92 102.837H80.5V114.213H92V102.837Z" fill="#EF6D62"/>
<path d="M80.5 102.837H69V114.213H80.5V102.837Z" fill="#EA6A66"/>
<path d="M195.5 91.4608H184V102.837H195.5V91.4608Z" fill="#D45F5C"/>
<path d="M184 91.4608H172.5V102.837H184V91.4608Z" fill="#CF5E5A"/>
<path d="M172.5 91.4608H161V102.837H172.5V91.4608Z" fill="#BD5952"/>
<path d="M161 91.4608H149.5V102.837H161V91.4608Z" fill="#CE625A"/>
<path d="M149.5 91.4608H138V102.837H149.5V91.4608Z" fill="#E0675C"/>
<path d="M138 91.4608H126.5V102.837H138V91.4608Z" fill="#D3645D"/>
<path d="M126.5 91.4608H115V102.837H126.5V91.4608Z" fill="#E57063"/>
<path d="M115 91.4608H103.5V102.837H115V91.4608Z" fill="#B85B54"/>
<path d="M103.5 91.4608H92V102.837H103.5V91.4608Z" fill="#FB6E65"/>
<path d="M92 91.4608H80.5V102.837H92V91.4608Z" fill="#E26F6D"/>
<path d="M184 79.9719H172.5V91.3481H184V79.9719Z" fill="#DD6762"/>
<path d="M172.5 79.9719H161V91.3481H172.5V79.9719Z" fill="#D15F5B"/>
<path d="M161 79.9719H149.5V91.3481H161V79.9719Z" fill="#BA5953"/>
<path d="M149.5 79.9719H138V91.3481H149.5V79.9719Z" fill="#CF5D57"/>
<path d="M138 79.9719H126.5V91.3481H138V79.9719Z" fill="#C75852"/>
<path d="M126.5 79.9719H115V91.3481H126.5V79.9719Z" fill="#EF7468"/>
<path d="M115 79.9719H103.5V91.3481H115V79.9719Z" fill="#DF655C"/>
<path d="M149.5 68.5956H138V79.9719H149.5V68.5956Z" fill="#AA6766"/>
<path d="M138 68.5956H126.5V79.9719H138V68.5956Z" fill="#845557"/>
<path d="M126.5 68.5956H115V79.9719H126.5V68.5956Z" fill="#685054"/>
<path d="M161 57.1066H149.5V68.4829H161V57.1066Z" fill="#9F5654"/>
<path d="M149.5 57.1066H138V68.4829H149.5V57.1066Z" fill="#B55551"/>
<path d="M138 57.1066H126.5V68.4829H138V57.1066Z" fill="#A44847"/>
<path d="M126.5 57.1066H115V68.4829H126.5V57.1066Z" fill="#D6625B"/>
<path d="M172.5 45.7303H161V57.1066H172.5V45.7303Z" fill="#B9685D"/>
<path d="M161 45.7303H149.5V57.1066H161V45.7303Z" fill="#9B5655"/>
<path d="M149.5 45.7303H138V57.1066H149.5V45.7303Z" fill="#BD4D4B"/>
<path d="M138 45.7303H126.5V57.1066H138V45.7303Z" fill="#BD524D"/>
<path d="M126.5 45.7303H115V57.1066H126.5V45.7303Z" fill="#D36057"/>
<path d="M115 45.7303H103.5V57.1066H115V45.7303Z" fill="#FB9184"/>
<path d="M195.5 34.2415H184V45.6177H195.5V34.2415Z" fill="#655758"/>
<path d="M184 34.2415H172.5V45.6177H184V34.2415Z" fill="#8C5554"/>
<path d="M172.5 34.2415H161V45.6177H172.5V34.2415Z" fill="#F97262"/>
<path d="M161 34.2415H149.5V45.6177H161V34.2415Z" fill="#B74E47"/>
<path d="M149.5 34.2415H138V45.6177H149.5V34.2415Z" fill="#B44E48"/>
<path d="M138 34.2415H126.5V45.6177H138V34.2415Z" fill="#B34F48"/>
<path d="M126.5 34.2415H115V45.6177H126.5V34.2415Z" fill="#D9655A"/>
<path d="M115 34.2415H103.5V45.6177H115V34.2415Z" fill="#FA8572"/>
<path d="M103.5 34.2415H92V45.6177H103.5V34.2415Z" fill="#FA7B71"/>
<path d="M195.5 22.8652H184V34.2414H195.5V22.8652Z" fill="#FC7468"/>
<path d="M184 22.8652H172.5V34.2414H184V22.8652Z" fill="#FD7366"/>
<path d="M172.5 22.8652H161V34.2414H172.5V22.8652Z" fill="#F77A68"/>
<path d="M161 22.8652H149.5V34.2414H161V22.8652Z" fill="#BC4F4B"/>
<path d="M149.5 22.8652H138V34.2414H149.5V22.8652Z" fill="#B9544C"/>
<path d="M138 22.8652H126.5V34.2414H138V22.8652Z" fill="#B8564E"/>
<path d="M126.5 22.8652H115V34.2414H126.5V22.8652Z" fill="#D56359"/>
<path d="M115 22.8652H103.5V34.2414H115V22.8652Z" fill="#FC7E6B"/>
<path d="M103.5 22.8652H92V34.2414H103.5V22.8652Z" fill="#F4766C"/>
<path d="M195.5 11.3763H184V22.7526H195.5V11.3763Z" fill="#FD786D"/>
<path d="M184 11.3763H172.5V22.7526H184V11.3763Z" fill="#EE6C61"/>
<path d="M172.5 11.3763H161V22.7526H172.5V11.3763Z" fill="#FD796B"/>
<path d="M161 11.3763H149.5V22.7526H161V11.3763Z" fill="#FD7465"/>
<path d="M149.5 11.3763H138V22.7526H149.5V11.3763Z" fill="#FB7666"/>
<path d="M138 11.3763H126.5V22.7526H138V11.3763Z" fill="#FD7466"/>
<path d="M126.5 11.3763H115V22.7526H126.5V11.3763Z" fill="#FD7F72"/>
<path d="M115 11.3763H103.5V22.7526H115V11.3763Z" fill="#FD8173"/>
<path d="M103.5 11.3763H92V22.7526H103.5V11.3763Z" fill="#F89386"/>
<path d="M172.5 0H161V11.3763H172.5V0Z" fill="#9B3F40"/>
<path d="M161 0H149.5V11.3763H161V0Z" fill="#DD675C"/>
<path d="M149.5 0H138V11.3763H149.5V0Z" fill="#FD7566"/>
<path d="M138 0H126.5V11.3763H138V0Z" fill="#FB7666"/>
<path d="M126.5 0H115V11.3763H126.5V0Z" fill="#FA9D90"/>
</g>
<defs>
<clipPath id="clip0_2_428">
<rect width="230" height="320" fill="white"/>
</clipPath>
</defs>
</svg>
