<svg width="50" height="73" viewBox="0 0 50 73" fill="none" xmlns="http://www.w3.org/2000/svg">
<path d="M31.9883 46.4375C31.5977 47.6745 31.3861 49.595 31.3535 52.1992H18.1699C18.3652 46.6979 18.8861 42.9056 19.7324 40.8223C20.5788 38.7064 22.7598 36.2812 26.2754 33.5469L29.8398 30.7637C31.0117 29.8848 31.9557 28.9245 32.6719 27.8828C33.974 26.0924 34.625 24.123 34.625 21.9746C34.625 19.5006 33.8926 17.2546 32.4277 15.2363C30.9954 13.1855 28.3587 12.1602 24.5176 12.1602C20.7415 12.1602 18.056 13.4134 16.4609 15.9199C14.8984 18.4264 14.1172 21.0306 14.1172 23.7324H0.00585902C0.396484 14.4551 3.63542 7.87956 9.72266 4.00586C13.5638 1.5319 18.2839 0.294921 23.8828 0.294921C31.2396 0.294921 37.3431 2.05273 42.1934 5.56836C47.0762 9.08398 49.5176 14.2923 49.5176 21.1934C49.5176 25.4251 48.4596 28.9896 46.3437 31.8867C45.1068 33.6445 42.7305 35.8906 39.2148 38.625L35.748 41.3105C33.86 42.7754 32.6068 44.4844 31.9883 46.4375ZM32.3789 73H17.8281V58.8887H32.3789V73Z" fill="black"/>
</svg>
