<svg width="1525" height="990" viewBox="0 0 1525 990" fill="none" xmlns="http://www.w3.org/2000/svg">
<path d="M392.418 590.645C393.466 599.664 397.615 612.537 404.866 629.264L320.659 667.023C306.15 631.326 298.615 605.612 298.054 589.881C297.4 573.942 304.384 552.206 319.008 524.671L333.804 496.685C338.771 487.715 342.051 478.878 343.642 470.173C346.83 455.009 345.348 440.565 339.195 426.842C332.109 411.041 320.998 398.792 305.861 390.096C290.839 381.1 271.061 382.102 246.527 393.104C222.408 403.919 208.844 419.615 205.835 440.193C203.034 460.678 205.503 479.549 213.241 496.806L123.109 537.223C99.0323 476.847 100.887 425.571 128.673 383.394C146.122 356.591 172.727 335.172 208.489 319.136C255.478 298.065 299.498 291.811 340.547 300.375C381.803 308.845 412.315 335.12 432.08 379.198C444.2 406.228 447.652 432.025 442.435 456.59C439.568 471.36 430.823 492.512 416.2 520.047L401.748 547.129C393.884 561.893 390.774 576.398 392.418 590.645ZM470.991 759.187L378.051 800.862L337.635 710.729L430.574 669.054L470.991 759.187Z" fill="black"/>
<path d="M1034.99 648.043L982.553 772.771L954.591 764.707L976.251 631.102L996.493 560.916L1055.23 577.856L1034.99 648.043ZM989.866 798.867L974.225 853.102L918.301 836.973L933.942 782.738L989.866 798.867Z" fill="black"/>
<path d="M1248.96 742.856L1306.18 727.744L1321.04 784.018L1263.82 799.129L1248.96 742.856Z" fill="black"/>
<path d="M717.784 842.427C717.978 852.341 715.889 861.512 711.515 869.939C706.772 879.003 700.35 886.557 692.25 892.602C684.309 898.74 678.639 902.257 675.24 903.155L669.754 882.383C679.782 876.502 686.384 869.372 689.557 860.992C692.857 852.579 693.206 841.915 690.603 829L657.934 837.628L643.072 781.355L701.234 765.994L714.101 814.714C716.362 823.275 717.59 832.512 717.784 842.427Z" fill="black"/>
<path d="M1374.45 421.841L1394.58 476.45L1339.06 496.923L1318.92 442.314L1374.45 421.841ZM1288.45 359.666L1268.31 305.057L1323.84 284.584L1343.97 339.194L1288.45 359.666Z" fill="black"/>
<path d="M1037.91 310.416L985.867 329.605L971.61 290.938C964.718 272.246 963.756 256.087 968.724 242.459C973.768 228.664 983.929 217.077 999.205 207.698L1006.23 226.756C995 235.061 989.154 244.988 988.694 256.537C988.355 262.768 989.308 268.176 991.553 272.761L1020.14 262.22L1037.91 310.416Z" fill="black"/>
<path d="M627.847 590.797C622.789 590.346 619.453 589.696 617.839 588.848L622.835 579.339C629.535 580.726 635.157 579.893 639.703 576.839C642.537 574.945 645.488 571.568 648.556 566.708L633.6 558.85L647.136 533.088L673.762 547.078L662.044 569.382C659.954 573.359 657.286 577.178 654.038 580.84C650.76 584.56 646.891 587.234 642.432 588.863C637.767 590.603 632.905 591.248 627.847 590.797ZM693.815 507.862L667.621 494.099L681.156 468.337L707.351 482.099L693.815 507.862Z" fill="black"/>
<path d="M715.652 192.198L730.884 219.092C738.103 231.838 740.79 243.616 738.944 254.426C737.013 265.284 730.877 275.156 720.535 284.044L713.027 270.788C720.154 263.16 723.328 255.19 722.548 246.877C722.104 242.527 720.696 238.555 718.323 234.96L698.312 246.294L679.326 212.772L715.652 192.198ZM652.611 305.007C659.701 297.512 662.784 289.481 661.86 280.913C661.49 276.297 660.172 272.386 657.907 269.179L637.896 280.513L618.91 246.991L655.236 226.417L670.468 253.311C677.784 266.227 680.409 278.095 678.345 288.916C676.196 299.785 670.121 309.568 660.118 318.263L652.611 305.007Z" fill="black"/>
</svg>
