<svg width="157" height="85" viewBox="0 0 157 85" fill="none" xmlns="http://www.w3.org/2000/svg">
<path d="M71.2739 0.359998C77.5139 0.359998 82.3139 7.04 82.3139 16C82.3139 24.96 77.5139 31.64 71.2739 31.64C65.0739 31.64 60.2339 24.96 60.2339 16C60.2339 7.04 65.0739 0.359998 71.2739 0.359998ZM71.2739 1.64C66.3139 1.64 63.7539 7.92 63.7539 16C63.7539 24.08 66.3139 30.36 71.2739 30.36C76.2339 30.36 78.8339 24.08 78.8339 16C78.8339 7.92 76.2339 1.64 71.2739 1.64ZM98.353 17.32V28.64C98.353 29.68 98.873 30.36 99.993 30.36H100.513V31H93.273V30.36H93.713C94.873 30.36 95.393 29.68 95.393 28.64V17.72C95.393 14.68 94.633 12.88 92.113 12.88C90.353 12.88 88.993 13.8 87.993 15.16V28.64C87.993 29.68 88.433 30.36 89.673 30.36H90.073V31H82.833V30.36H83.313C84.513 30.36 84.993 29.68 84.993 28.64V14.64H82.873V14.16C84.593 13.32 86.273 11.92 87.593 10.2H87.993V14C89.233 12.12 90.953 10.36 93.513 10.36C96.873 10.36 98.353 13.28 98.353 17.32ZM10.4708 54C15.5108 54 18.2708 57.64 18.2708 62.52C18.2708 67.28 15.4308 71.12 10.2308 71.12H6.83079V80.96C6.83079 82.4 7.47079 83.32 8.99079 83.32H9.67079V84H0.790788V83.32H1.27079C2.91079 83.32 3.59079 82.4 3.59079 80.96V57.04C3.59079 55.64 2.91079 54.68 1.27079 54.68H0.790788V54H10.4708ZM10.0708 55.32H6.83079V69.8H9.99079C13.3908 69.8 14.7908 66.68 14.7908 62.52C14.7908 58.2 13.4308 55.32 10.0708 55.32ZM29.6058 80.96C28.3658 82.96 26.8458 84.6 24.3258 84.6C21.0858 84.6 19.6858 81.96 19.6858 78.24V67.64H17.5658V67.16C19.2858 66.32 20.9658 64.92 22.2858 63.2H22.6858V77.76C22.6858 80.52 23.3658 82.2 25.7658 82.2C27.4058 82.2 28.4058 81.56 29.6058 79.88V67.64H27.4858V67.16C29.2058 66.32 30.8858 64.92 32.2058 63.2H32.5658V81.48L34.7258 81.92V82.44C33.0858 83.12 31.5258 83.84 29.9658 84.8H29.6058V80.96ZM50.1186 70.32V81.64C50.1186 82.68 50.6386 83.36 51.7586 83.36H52.2786V84H45.0386V83.36H45.4786C46.6386 83.36 47.1586 82.68 47.1586 81.64V70.72C47.1586 67.68 46.3986 65.88 43.8786 65.88C42.1186 65.88 40.7586 66.8 39.7586 68.16V81.64C39.7586 82.68 40.1986 83.36 41.4386 83.36H41.8386V84H34.5986V83.36H35.0786C36.2786 83.36 36.7586 82.68 36.7586 81.64V67.64H34.6386V67.16C36.3586 66.32 38.0386 64.92 39.3586 63.2H39.7586V67C40.9986 65.12 42.7186 63.36 45.2786 63.36C48.6386 63.36 50.1186 66.28 50.1186 70.32ZM59.9317 64.48C57.2117 64.48 55.3317 67.88 55.3317 72.76C55.3317 78.64 57.2917 82.2 60.5317 82.2C62.4117 82.2 63.8917 81 64.8117 78.56L65.4917 78.8C64.3717 82.36 62.5717 84.64 59.4117 84.64C55.1317 84.64 52.2517 80.44 52.2517 74.4C52.2517 68.12 55.2517 63.36 59.9317 63.36C63.2117 63.36 65.4117 66.16 65.4117 69C65.4117 70 64.9717 70.6 64.0517 70.6C63.0517 70.6 62.6117 69.72 62.6117 68.28C62.6117 66.04 61.8117 64.48 59.9317 64.48ZM70.3223 64H74.3223L74.0423 65.52H70.3223V79.8C70.3223 81.6 70.8423 82.36 72.0823 82.36C73.0423 82.36 73.6423 81.88 74.3223 81.04L74.7623 81.4C73.7623 83.28 72.4423 84.4 70.5223 84.4C68.4823 84.4 67.3623 83.04 67.3623 80.16V65.52H65.5223V65.16C67.3223 63.8 68.8023 62.12 69.9223 59.96H70.3223V64ZM85.5511 80.96C84.3111 82.96 82.7911 84.6 80.2711 84.6C77.0311 84.6 75.6311 81.96 75.6311 78.24V67.64H73.5111V67.16C75.2311 66.32 76.9111 64.92 78.2311 63.2H78.6311V77.76C78.6311 80.52 79.3111 82.2 81.7111 82.2C83.3511 82.2 84.3511 81.56 85.5511 79.88V67.64H83.4311V67.16C85.1511 66.32 86.8311 64.92 88.1511 63.2H88.5111V81.48L90.6711 81.92V82.44C89.0311 83.12 87.4711 83.84 85.9111 84.8H85.5511V80.96ZM98.0239 68.36C98.0239 65.88 97.4639 65 96.0639 65C94.1839 65 93.0239 66.76 92.6639 69.6C92.5439 70.72 92.1839 70.92 91.6639 70.92C91.1839 70.92 90.9439 70.6 90.9439 70.08C90.9439 68 93.6239 63.4 97.1439 63.4C99.4239 63.4 100.984 64.72 100.984 68V79.96C100.984 81.64 101.184 82.44 102.104 82.44C102.664 82.44 103.064 82.12 103.544 81.44L103.944 81.8C103.224 83.4 102.264 84.6 100.704 84.6C99.1839 84.6 98.2239 83.56 98.0639 81.32C96.0639 83.8 94.9039 84.6 93.4639 84.6C91.7039 84.6 90.8239 83.32 90.8239 81.36C90.8239 78.16 93.2239 76.12 96.5039 73.8L98.0239 72.72V68.36ZM93.7839 80.16C93.7839 81.36 94.3439 82.04 95.1039 82.04C95.9839 82.04 96.8639 81.6 98.0239 80.44V73.72L97.4639 74.2C94.6239 76.56 93.7839 78.36 93.7839 80.16ZM108.15 64H112.15L111.87 65.52H108.15V79.8C108.15 81.6 108.67 82.36 109.91 82.36C110.87 82.36 111.47 81.88 112.15 81.04L112.59 81.4C111.59 83.28 110.27 84.4 108.35 84.4C106.31 84.4 105.19 83.04 105.19 80.16V65.52H103.35V65.16C105.15 63.8 106.63 62.12 107.75 59.96H108.15V64ZM115.655 59.2C114.535 59.2 113.775 58.48 113.775 57.36C113.775 56.24 114.535 55.48 115.655 55.48C116.695 55.48 117.495 56.24 117.495 57.36C117.495 58.48 116.695 59.2 115.655 59.2ZM117.135 81.64C117.135 82.68 117.575 83.36 118.815 83.36H119.295V84H112.015V83.36H112.495C113.655 83.36 114.175 82.68 114.175 81.64V67.64H112.055V67.16C113.775 66.32 115.415 64.92 116.775 63.2H117.135V81.64ZM126.991 84.64C122.631 84.64 119.431 80.08 119.431 74C119.431 67.92 122.631 63.36 126.991 63.36C131.311 63.36 134.551 67.92 134.551 74C134.551 80.08 131.311 84.64 126.991 84.64ZM126.991 64.48C123.911 64.48 122.671 68.76 122.671 74C122.671 79.24 123.911 83.52 126.991 83.52C130.031 83.52 131.271 79.24 131.271 74C131.271 68.76 130.031 64.48 126.991 64.48ZM150.33 70.32V81.64C150.33 82.68 150.85 83.36 151.97 83.36H152.49V84H145.25V83.36H145.69C146.85 83.36 147.37 82.68 147.37 81.64V70.72C147.37 67.68 146.61 65.88 144.09 65.88C142.33 65.88 140.97 66.8 139.97 68.16V81.64C139.97 82.68 140.41 83.36 141.65 83.36H142.05V84H134.81V83.36H135.29C136.49 83.36 136.97 82.68 136.97 81.64V67.64H134.85V67.16C136.57 66.32 138.25 64.92 139.57 63.2H139.97V67C141.21 65.12 142.93 63.36 145.49 63.36C148.85 63.36 150.33 66.28 150.33 70.32ZM154.823 84.4C153.663 84.4 152.823 83.6 152.823 82.36C152.823 81.16 153.663 80.32 154.823 80.32C156.023 80.32 156.863 81.16 156.863 82.36C156.863 83.6 156.023 84.4 154.823 84.4Z" fill="black"/>
</svg>
