<?xml version="1.0" encoding="UTF-8"?>
<svg id="Layer_2" data-name="Layer 2" xmlns="http://www.w3.org/2000/svg" viewBox="0 0 39.1 45.66">
  <defs>
    <style>
      .cls-1 {
        fill: #4b5a66;
      }

      .cls-1, .cls-2, .cls-3, .cls-4, .cls-5, .cls-6, .cls-7, .cls-8, .cls-9, .cls-10, .cls-11, .cls-12, .cls-13, .cls-14, .cls-15, .cls-16, .cls-17, .cls-18, .cls-19, .cls-20, .cls-21, .cls-22, .cls-23, .cls-24, .cls-25, .cls-26, .cls-27, .cls-28, .cls-29, .cls-30, .cls-31, .cls-32, .cls-33, .cls-34, .cls-35, .cls-36, .cls-37, .cls-38, .cls-39, .cls-40, .cls-41, .cls-42, .cls-43, .cls-44, .cls-45, .cls-46, .cls-47, .cls-48, .cls-49, .cls-50, .cls-51, .cls-52, .cls-53, .cls-54, .cls-55, .cls-56, .cls-57, .cls-58, .cls-59, .cls-60, .cls-61, .cls-62, .cls-63, .cls-64, .cls-65, .cls-66, .cls-67, .cls-68, .cls-69, .cls-70, .cls-71, .cls-72, .cls-73, .cls-74, .cls-75, .cls-76, .cls-77, .cls-78, .cls-79, .cls-80, .cls-81, .cls-82, .cls-83, .cls-84, .cls-85, .cls-86, .cls-87, .cls-88, .cls-89, .cls-90, .cls-91, .cls-92, .cls-93, .cls-94, .cls-95, .cls-96, .cls-97, .cls-98, .cls-99, .cls-100, .cls-101, .cls-102, .cls-103, .cls-104, .cls-105, .cls-106, .cls-107, .cls-108, .cls-109, .cls-110, .cls-111, .cls-112, .cls-113, .cls-114, .cls-115, .cls-116, .cls-117, .cls-118, .cls-119, .cls-120, .cls-121, .cls-122, .cls-123, .cls-124, .cls-125, .cls-126, .cls-127, .cls-128, .cls-129, .cls-130, .cls-131, .cls-132, .cls-133, .cls-134, .cls-135, .cls-136, .cls-137, .cls-138, .cls-139, .cls-140, .cls-141, .cls-142, .cls-143, .cls-144, .cls-145, .cls-146, .cls-147, .cls-148, .cls-149, .cls-150, .cls-151, .cls-152, .cls-153, .cls-154, .cls-155, .cls-156, .cls-157, .cls-158, .cls-159, .cls-160, .cls-161, .cls-162, .cls-163, .cls-164, .cls-165, .cls-166, .cls-167, .cls-168, .cls-169, .cls-170, .cls-171, .cls-172, .cls-173, .cls-174, .cls-175, .cls-176, .cls-177, .cls-178, .cls-179, .cls-180, .cls-181, .cls-182, .cls-183, .cls-184, .cls-185, .cls-186, .cls-187, .cls-188, .cls-189, .cls-190, .cls-191, .cls-192, .cls-193, .cls-194, .cls-195, .cls-196, .cls-197, .cls-198, .cls-199, .cls-200, .cls-201, .cls-202, .cls-203, .cls-204, .cls-205, .cls-206, .cls-207, .cls-208, .cls-209, .cls-210, .cls-211, .cls-212, .cls-213, .cls-214, .cls-215, .cls-216, .cls-217, .cls-218, .cls-219, .cls-220, .cls-221, .cls-222, .cls-223, .cls-224, .cls-225, .cls-226, .cls-227, .cls-228, .cls-229, .cls-230, .cls-231, .cls-232, .cls-233, .cls-234, .cls-235, .cls-236, .cls-237, .cls-238, .cls-239, .cls-240, .cls-241, .cls-242, .cls-243, .cls-244, .cls-245, .cls-246, .cls-247, .cls-248, .cls-249, .cls-250, .cls-251, .cls-252, .cls-253, .cls-254, .cls-255, .cls-256, .cls-257, .cls-258, .cls-259, .cls-260, .cls-261, .cls-262, .cls-263, .cls-264, .cls-265, .cls-266, .cls-267, .cls-268, .cls-269, .cls-270, .cls-271, .cls-272, .cls-273, .cls-274, .cls-275, .cls-276, .cls-277, .cls-278, .cls-279, .cls-280, .cls-281, .cls-282, .cls-283, .cls-284, .cls-285, .cls-286, .cls-287, .cls-288, .cls-289, .cls-290, .cls-291, .cls-292, .cls-293, .cls-294, .cls-295, .cls-296, .cls-297, .cls-298 {
        stroke-width: 0px;
      }

      .cls-2 {
        fill: #4b5b65;
      }

      .cls-3 {
        fill: #4b5b66;
      }

      .cls-4 {
        fill: #4b5863;
      }

      .cls-5 {
        fill: #4b5862;
      }

      .cls-6 {
        fill: #4b5962;
      }

      .cls-7 {
        fill: #4b5964;
      }

      .cls-8 {
        fill: #4b5963;
      }

      .cls-9 {
        fill: #4c5b65;
      }

      .cls-10 {
        fill: #4c5a64;
      }

      .cls-11 {
        fill: #4c5a65;
      }

      .cls-12 {
        fill: #4c5d66;
      }

      .cls-13 {
        fill: #4c5c66;
      }

      .cls-14 {
        fill: #70808d;
      }

      .cls-15 {
        fill: #495761;
      }

      .cls-16 {
        fill: #495762;
      }

      .cls-17 {
        fill: #5e6e7b;
      }

      .cls-18 {
        fill: #53626d;
      }

      .cls-19 {
        fill: #61717c;
      }

      .cls-20 {
        fill: #495862;
      }

      .cls-21 {
        fill: #495661;
      }

      .cls-22 {
        fill: #495964;
      }

      .cls-23 {
        fill: #495763;
      }

      .cls-24 {
        fill: #54646e;
      }

      .cls-25 {
        fill: #748490;
      }

      .cls-26 {
        fill: #5d6b75;
      }

      .cls-27 {
        fill: #606b71;
      }

      .cls-28 {
        fill: #4c5964;
      }

      .cls-29 {
        fill: #4c5963;
      }

      .cls-30 {
        fill: #4f5c66;
      }

      .cls-31 {
        fill: #82919f;
      }

      .cls-32 {
        fill: #4d5f69;
      }

      .cls-33 {
        fill: #4d5b64;
      }

      .cls-34 {
        fill: #4d5b65;
      }

      .cls-35 {
        fill: #4d5b66;
      }

      .cls-36 {
        fill: #4d5c66;
      }

      .cls-37 {
        fill: #505d65;
      }

      .cls-38 {
        fill: #505e68;
      }

      .cls-39 {
        fill: #4f5e68;
      }

      .cls-40 {
        fill: #4f5e69;
      }

      .cls-41 {
        fill: #273948;
      }

      .cls-42 {
        fill: #273b4f;
      }

      .cls-43 {
        fill: #273b4a;
      }

      .cls-44 {
        fill: #273b49;
      }

      .cls-45 {
        fill: #4e5c65;
      }

      .cls-46 {
        fill: #4e5c67;
      }

      .cls-47 {
        fill: #354754;
      }

      .cls-48 {
        fill: #354857;
      }

      .cls-49 {
        fill: #354856;
      }

      .cls-50 {
        fill: #354451;
      }

      .cls-51 {
        fill: #354a55;
      }

      .cls-52 {
        fill: #354550;
      }

      .cls-53 {
        fill: #354552;
      }

      .cls-54 {
        fill: #263847;
      }

      .cls-55 {
        fill: #26394b;
      }

      .cls-56 {
        fill: #263c49;
      }

      .cls-57 {
        fill: #263a4c;
      }

      .cls-58 {
        fill: #263a4b;
      }

      .cls-59 {
        fill: #263c4d;
      }

      .cls-60 {
        fill: #263b4d;
      }

      .cls-61 {
        fill: #2c414e;
      }

      .cls-62 {
        fill: #2c4453;
      }

      .cls-63 {
        fill: #2c4452;
      }

      .cls-64 {
        fill: #2c4352;
      }

      .cls-65 {
        fill: #2c4351;
      }

      .cls-66 {
        fill: #2c3f4d;
      }

      .cls-67 {
        fill: #2c4556;
      }

      .cls-68 {
        fill: #475761;
      }

      .cls-69 {
        fill: #475661;
      }

      .cls-70 {
        fill: #475660;
      }

      .cls-71 {
        fill: #47555f;
      }

      .cls-72 {
        fill: #475561;
      }

      .cls-73 {
        fill: #475560;
      }

      .cls-74 {
        fill: #2d4453;
      }

      .cls-75 {
        fill: #485863;
      }

      .cls-76 {
        fill: #485963;
      }

      .cls-77 {
        fill: #485661;
      }

      .cls-78 {
        fill: #485966;
      }

      .cls-79 {
        fill: #485762;
      }

      .cls-80 {
        fill: #485763;
      }

      .cls-81 {
        fill: #293f4d;
      }

      .cls-82 {
        fill: #293f50;
      }

      .cls-83 {
        fill: #4a5863;
      }

      .cls-84 {
        fill: #4a5a64;
      }

      .cls-85 {
        fill: #4a5862;
      }

      .cls-86 {
        fill: #4a5962;
      }

      .cls-87 {
        fill: #4a5965;
      }

      .cls-88 {
        fill: #4a5964;
      }

      .cls-89 {
        fill: #4a5761;
      }

      .cls-90 {
        fill: #2d414e;
      }

      .cls-91 {
        fill: #2d414f;
      }

      .cls-92 {
        fill: #2d4352;
      }

      .cls-93 {
        fill: #2d4553;
      }

      .cls-94 {
        fill: #2d4452;
      }

      .cls-95 {
        fill: #56626a;
      }

      .cls-96 {
        fill: #566570;
      }

      .cls-97 {
        fill: #2b3d4a;
      }

      .cls-98 {
        fill: #2b4050;
      }

      .cls-99 {
        fill: #2b4353;
      }

      .cls-100 {
        fill: #2b4251;
      }

      .cls-101 {
        fill: #2b4252;
      }

      .cls-102 {
        fill: #2a4254;
      }

      .cls-103 {
        fill: #2a4256;
      }

      .cls-104 {
        fill: #2a3b4a;
      }

      .cls-105 {
        fill: #586874;
      }

      .cls-106 {
        fill: #283d4b;
      }

      .cls-107 {
        fill: #283c4c;
      }

      .cls-108 {
        fill: #284052;
      }

      .cls-109 {
        fill: #5a6b76;
      }

      .cls-110 {
        fill: #5a6872;
      }

      .cls-111 {
        fill: #5a6a75;
      }

      .cls-112 {
        fill: #5a6a77;
      }

      .cls-113 {
        fill: #55636d;
      }

      .cls-114 {
        fill: #808f9c;
      }

      .cls-115 {
        fill: #46545f;
      }

      .cls-116 {
        fill: #46545d;
      }

      .cls-117 {
        fill: #46545e;
      }

      .cls-118 {
        fill: #465561;
      }

      .cls-119 {
        fill: #465560;
      }

      .cls-120 {
        fill: #46555f;
      }

      .cls-121 {
        fill: #465661;
      }

      .cls-122 {
        fill: #465660;
      }

      .cls-123 {
        fill: #465965;
      }

      .cls-124 {
        fill: #465460;
      }

      .cls-125 {
        fill: #45545e;
      }

      .cls-126 {
        fill: #45545d;
      }

      .cls-127 {
        fill: #45545f;
      }

      .cls-128 {
        fill: #45555e;
      }

      .cls-129 {
        fill: #455560;
      }

      .cls-130 {
        fill: #6d7f8c;
      }

      .cls-131 {
        fill: #2f4653;
      }

      .cls-132 {
        fill: #2f4654;
      }

      .cls-133 {
        fill: #2f4350;
      }

      .cls-134 {
        fill: #2f4351;
      }

      .cls-135 {
        fill: #2f4552;
      }

      .cls-136 {
        fill: #2f404b;
      }

      .cls-137 {
        fill: #2e424f;
      }

      .cls-138 {
        fill: #384c56;
      }

      .cls-139 {
        fill: #384c59;
      }

      .cls-140 {
        fill: #384c5a;
      }

      .cls-141 {
        fill: #314553;
      }

      .cls-142 {
        fill: #314350;
      }

      .cls-143 {
        fill: #31434f;
      }

      .cls-144 {
        fill: #314854;
      }

      .cls-145 {
        fill: #314656;
      }

      .cls-146 {
        fill: #314550;
      }

      .cls-147 {
        fill: #314753;
      }

      .cls-148 {
        fill: #3a4a57;
      }

      .cls-149 {
        fill: #314451;
      }

      .cls-150 {
        fill: #31414d;
      }

      .cls-151 {
        fill: #384b59;
      }

      .cls-152 {
        fill: #384653;
      }

      .cls-153 {
        fill: #384651;
      }

      .cls-154 {
        fill: #3b4854;
      }

      .cls-155 {
        fill: #3b4a57;
      }

      .cls-156 {
        fill: #3b4a55;
      }

      .cls-157 {
        fill: #3b4b57;
      }

      .cls-158 {
        fill: #3b4c59;
      }

      .cls-159 {
        fill: #3a4e5c;
      }

      .cls-160 {
        fill: #3a4d57;
      }

      .cls-161 {
        fill: #3a4c5a;
      }

      .cls-162 {
        fill: #344451;
      }

      .cls-163 {
        fill: #344351;
      }

      .cls-164 {
        fill: #344350;
      }

      .cls-165 {
        fill: #34434f;
      }

      .cls-166 {
        fill: #344957;
      }

      .cls-167 {
        fill: #344855;
      }

      .cls-168 {
        fill: #273c4d;
      }

      .cls-169 {
        fill: #394854;
      }

      .cls-170 {
        fill: #394b58;
      }

      .cls-171 {
        fill: #576671;
      }

      .cls-172 {
        fill: #82909c;
      }

      .cls-173 {
        fill: #3c4c56;
      }

      .cls-174 {
        fill: #3c505d;
      }

      .cls-175 {
        fill: #3c4c58;
      }

      .cls-176 {
        fill: #3c4d59;
      }

      .cls-177 {
        fill: #3c4d58;
      }

      .cls-178 {
        fill: #3c4d5a;
      }

      .cls-179 {
        fill: #3c4a56;
      }

      .cls-180 {
        fill: #2e4451;
      }

      .cls-181 {
        fill: #3e4c59;
      }

      .cls-182 {
        fill: #3e4c56;
      }

      .cls-183 {
        fill: #3e4d5a;
      }

      .cls-184 {
        fill: #3e4d58;
      }

      .cls-185 {
        fill: #3e4e59;
      }

      .cls-186 {
        fill: #3e4e58;
      }

      .cls-187 {
        fill: #3e4e5a;
      }

      .cls-188 {
        fill: #3d4e5a;
      }

      .cls-189 {
        fill: #3d4f5b;
      }

      .cls-190 {
        fill: #3d4e59;
      }

      .cls-191 {
        fill: #3d4d59;
      }

      .cls-192 {
        fill: #3d4d57;
      }

      .cls-193 {
        fill: #3d4d58;
      }

      .cls-194 {
        fill: #3f4e59;
      }

      .cls-195 {
        fill: #3f4d58;
      }

      .cls-196 {
        fill: #3f505a;
      }

      .cls-197 {
        fill: #3f505b;
      }

      .cls-198 {
        fill: #3f4f59;
      }

      .cls-199 {
        fill: #3f4f5a;
      }

      .cls-200 {
        fill: #364652;
      }

      .cls-201 {
        fill: #364753;
      }

      .cls-202 {
        fill: #364752;
      }

      .cls-203 {
        fill: #364754;
      }

      .cls-204 {
        fill: #364551;
      }

      .cls-205 {
        fill: #364451;
      }

      .cls-206 {
        fill: #364552;
      }

      .cls-207 {
        fill: #364a58;
      }

      .cls-208 {
        fill: #374652;
      }

      .cls-209 {
        fill: #364955;
      }

      .cls-210 {
        fill: #445765;
      }

      .cls-211 {
        fill: #44525d;
      }

      .cls-212 {
        fill: #44535e;
      }

      .cls-213 {
        fill: #44535f;
      }

      .cls-214 {
        fill: #374753;
      }

      .cls-215 {
        fill: #374957;
      }

      .cls-216 {
        fill: #374552;
      }

      .cls-217 {
        fill: #374b55;
      }

      .cls-218 {
        fill: #374b56;
      }

      .cls-219 {
        fill: #44555e;
      }

      .cls-220 {
        fill: #44545f;
      }

      .cls-221 {
        fill: #44545c;
      }

      .cls-222 {
        fill: #44545e;
      }

      .cls-223 {
        fill: #374a56;
      }

      .cls-224 {
        fill: #374854;
      }

      .cls-225 {
        fill: #374855;
      }

      .cls-226 {
        fill: #42545c;
      }

      .cls-227 {
        fill: #414f5a;
      }

      .cls-228 {
        fill: #414f5b;
      }

      .cls-229 {
        fill: #40515a;
      }

      .cls-230 {
        fill: #41535b;
      }

      .cls-231 {
        fill: #41515c;
      }

      .cls-232 {
        fill: #41525c;
      }

      .cls-233 {
        fill: #41505b;
      }

      .cls-234 {
        fill: #41505a;
      }

      .cls-235 {
        fill: #414e5a;
      }

      .cls-236 {
        fill: #404f5a;
      }

      .cls-237 {
        fill: #404e59;
      }

      .cls-238 {
        fill: #40505a;
      }

      .cls-239 {
        fill: #404f5b;
      }

      .cls-240 {
        fill: #40505b;
      }

      .cls-241 {
        fill: #42505b;
      }

      .cls-242 {
        fill: #425059;
      }

      .cls-243 {
        fill: #42515a;
      }

      .cls-244 {
        fill: #425259;
      }

      .cls-245 {
        fill: #42535c;
      }

      .cls-246 {
        fill: #42515d;
      }

      .cls-247 {
        fill: #42515c;
      }

      .cls-248 {
        fill: #42515b;
      }

      .cls-249 {
        fill: #43515a;
      }

      .cls-250 {
        fill: #43535f;
      }

      .cls-251 {
        fill: #43535d;
      }

      .cls-252 {
        fill: #43525f;
      }

      .cls-253 {
        fill: #43525d;
      }

      .cls-254 {
        fill: #42525d;
      }

      .cls-255 {
        fill: #42525e;
      }

      .cls-256 {
        fill: #223346;
      }

      .cls-257 {
        fill: #243748;
      }

      .cls-258 {
        fill: #233548;
      }

      .cls-259 {
        fill: #203345;
      }

      .cls-260 {
        fill: #203347;
      }

      .cls-261 {
        fill: #213346;
      }

      .cls-262 {
        fill: #213347;
      }

      .cls-263 {
        fill: #213246;
      }

      .cls-264 {
        fill: #213245;
      }

      .cls-265 {
        fill: #253a4c;
      }

      .cls-266 {
        fill: #667581;
      }

      .cls-267 {
        fill: #667178;
      }

      .cls-268 {
        fill: #324350;
      }

      .cls-269 {
        fill: #324450;
      }

      .cls-270 {
        fill: #324653;
      }

      .cls-271 {
        fill: #324555;
      }

      .cls-272 {
        fill: #324753;
      }

      .cls-273 {
        fill: #334855;
      }

      .cls-274 {
        fill: #334753;
      }

      .cls-275 {
        fill: #33434f;
      }

      .cls-276 {
        fill: #33424e;
      }

      .cls-277 {
        fill: #334251;
      }

      .cls-278 {
        fill: #334555;
      }

      .cls-279 {
        fill: #334a56;
      }

      .cls-280 {
        fill: #334554;
      }

      .cls-281 {
        fill: #304452;
      }

      .cls-282 {
        fill: #30424f;
      }

      .cls-283 {
        fill: #304854;
      }

      .cls-284 {
        fill: #303f4c;
      }

      .cls-285 {
        fill: #304654;
      }

      .cls-286 {
        fill: #304653;
      }

      .cls-287 {
        fill: #304350;
      }

      .cls-288 {
        fill: #304351;
      }

      .cls-289 {
        fill: #30414e;
      }

      .cls-290 {
        fill: #6c7d89;
      }

      .cls-291 {
        fill: #6b767d;
      }

      .cls-292 {
        fill: #657581;
      }

      .cls-293 {
        fill: #81909e;
      }

      .cls-294 {
        fill: #6a7984;
      }

      .cls-295 {
        fill: #687681;
      }

      .cls-296 {
        fill: #677683;
      }

      .cls-297 {
        fill: #6a7b88;
      }

      .cls-298 {
        fill: #697682;
      }
    </style>
  </defs>
  <g id="Layer_1-2" data-name="Layer 1">
    <g>
      <rect class="cls-59" x="34" y="43.97" width="1.7" height="1.69"/>
      <rect class="cls-82" x="32.3" y="43.97" width="1.7" height="1.69"/>
      <rect class="cls-62" x="30.6" y="43.97" width="1.7" height="1.69"/>
      <rect class="cls-101" x="28.9" y="43.97" width="1.7" height="1.69"/>
      <rect class="cls-265" x="27.2" y="43.97" width="1.7" height="1.69"/>
      <rect class="cls-58" x="25.5" y="43.97" width="1.7" height="1.69"/>
      <rect class="cls-57" x="23.8" y="43.97" width="1.7" height="1.69"/>
      <rect class="cls-60" x="22.1" y="43.97" width="1.7" height="1.69"/>
      <rect class="cls-55" x="20.4" y="43.97" width="1.7" height="1.69"/>
      <rect class="cls-108" x="18.7" y="43.97" width="1.7" height="1.69"/>
      <rect class="cls-102" x="17" y="43.97" width="1.7" height="1.69"/>
      <rect class="cls-67" x="15.3" y="43.97" width="1.7" height="1.69"/>
      <rect class="cls-159" x="13.6" y="43.97" width="1.7" height="1.69"/>
      <rect class="cls-210" x="11.9" y="43.97" width="1.7" height="1.69"/>
      <rect class="cls-123" x="10.2" y="43.97" width="1.7" height="1.69"/>
      <rect class="cls-151" x="8.5" y="43.97" width="1.7" height="1.69"/>
      <rect class="cls-273" x="6.8" y="43.97" width="1.7" height="1.69"/>
      <rect class="cls-145" x="5.1" y="43.97" width="1.7" height="1.69"/>
      <rect class="cls-207" x="3.4" y="43.97" width="1.7" height="1.69"/>
      <rect class="cls-140" x="1.7" y="43.97" width="1.7" height="1.69"/>
      <rect class="cls-259" x="35.7" y="42.28" width="1.7" height="1.69"/>
      <rect class="cls-258" x="34" y="42.28" width="1.7" height="1.69"/>
      <rect class="cls-63" x="32.3" y="42.28" width="1.7" height="1.69"/>
      <rect class="cls-74" x="30.6" y="42.28" width="1.7" height="1.69"/>
      <rect class="cls-99" x="28.9" y="42.28" width="1.7" height="1.69"/>
      <rect class="cls-260" x="27.2" y="42.28" width="1.7" height="1.69"/>
      <rect class="cls-263" x="25.5" y="42.28" width="1.7" height="1.69"/>
      <rect class="cls-256" x="23.8" y="42.28" width="1.7" height="1.69"/>
      <rect class="cls-261" x="22.1" y="42.28" width="1.7" height="1.69"/>
      <rect class="cls-42" x="20.4" y="42.28" width="1.7" height="1.69"/>
      <rect class="cls-103" x="18.7" y="42.28" width="1.7" height="1.69"/>
      <rect class="cls-166" x="17" y="42.28" width="1.7" height="1.69"/>
      <rect class="cls-170" x="15.3" y="42.28" width="1.7" height="1.69"/>
      <rect class="cls-158" x="13.6" y="42.28" width="1.7" height="1.69"/>
      <rect class="cls-161" x="11.9" y="42.28" width="1.7" height="1.69"/>
      <rect class="cls-48" x="10.2" y="42.28" width="1.7" height="1.69"/>
      <rect class="cls-278" x="8.5" y="42.28" width="1.7" height="1.69"/>
      <rect class="cls-167" x="6.8" y="42.28" width="1.7" height="1.69"/>
      <rect class="cls-139" x="5.1" y="42.28" width="1.7" height="1.69"/>
      <rect class="cls-159" x="3.4" y="42.28" width="1.7" height="1.69"/>
      <rect class="cls-174" x="1.7" y="42.28" width="1.7" height="1.69"/>
      <rect class="cls-78" y="42.28" width="1.7" height="1.69"/>
      <rect class="cls-54" x="37.4" y="40.59" width="1.7" height="1.69"/>
      <rect class="cls-264" x="35.7" y="40.59" width="1.7" height="1.69"/>
      <rect class="cls-65" x="34" y="40.59" width="1.7" height="1.69"/>
      <rect class="cls-64" x="32.3" y="40.59" width="1.7" height="1.69"/>
      <rect class="cls-65" x="30.6" y="40.59" width="1.7" height="1.69"/>
      <rect class="cls-168" x="28.9" y="40.59" width="1.7" height="1.69"/>
      <rect class="cls-262" x="27.2" y="40.59" width="1.7" height="1.69"/>
      <rect class="cls-258" x="25.5" y="40.59" width="1.7" height="1.69"/>
      <rect class="cls-107" x="23.8" y="40.59" width="1.7" height="1.69"/>
      <rect class="cls-49" x="22.1" y="40.59" width="1.7" height="1.69"/>
      <rect class="cls-232" x="20.4" y="40.59" width="1.7" height="1.69"/>
      <rect class="cls-231" x="18.7" y="40.59" width="1.7" height="1.69"/>
      <rect class="cls-192" x="17" y="40.59" width="1.7" height="1.69"/>
      <rect class="cls-193" x="15.3" y="40.59" width="1.7" height="1.69"/>
      <rect class="cls-193" x="13.6" y="40.59" width="1.7" height="1.69"/>
      <rect class="cls-173" x="11.9" y="40.59" width="1.7" height="1.69"/>
      <rect class="cls-184" x="10.2" y="40.59" width="1.7" height="1.69"/>
      <rect class="cls-156" x="8.5" y="40.59" width="1.7" height="1.69"/>
      <rect class="cls-47" x="6.8" y="40.59" width="1.7" height="1.69"/>
      <rect class="cls-141" x="5.1" y="40.59" width="1.7" height="1.69"/>
      <rect class="cls-280" x="3.4" y="40.59" width="1.7" height="1.69"/>
      <rect class="cls-32" x="1.7" y="40.59" width="1.7" height="1.69"/>
      <rect class="cls-189" y="40.59" width="1.7" height="1.69"/>
      <rect class="cls-257" x="37.4" y="38.9" width="1.7" height="1.69"/>
      <rect class="cls-65" x="35.7" y="38.9" width="1.7" height="1.69"/>
      <rect class="cls-94" x="34" y="38.9" width="1.7" height="1.69"/>
      <rect class="cls-94" x="32.3" y="38.9" width="1.7" height="1.69"/>
      <rect class="cls-94" x="30.6" y="38.9" width="1.7" height="1.69"/>
      <rect class="cls-98" x="28.9" y="38.9" width="1.7" height="1.69"/>
      <rect class="cls-270" x="27.2" y="38.9" width="1.7" height="1.69"/>
      <rect class="cls-185" x="25.5" y="38.9" width="1.7" height="1.69"/>
      <rect class="cls-238" x="23.8" y="38.9" width="1.7" height="1.69"/>
      <rect class="cls-236" x="22.1" y="38.9" width="1.7" height="1.69"/>
      <rect class="cls-239" x="20.4" y="38.9" width="1.7" height="1.69"/>
      <rect class="cls-237" x="18.7" y="38.9" width="1.7" height="1.69"/>
      <rect class="cls-184" x="17" y="38.9" width="1.7" height="1.69"/>
      <rect class="cls-184" x="15.3" y="38.9" width="1.7" height="1.69"/>
      <rect class="cls-195" x="13.6" y="38.9" width="1.7" height="1.69"/>
      <rect class="cls-195" x="11.9" y="38.9" width="1.7" height="1.69"/>
      <rect class="cls-195" x="10.2" y="38.9" width="1.7" height="1.69"/>
      <rect class="cls-195" x="8.5" y="38.9" width="1.7" height="1.69"/>
      <rect class="cls-193" x="6.8" y="38.9" width="1.7" height="1.69"/>
      <rect class="cls-250" x="5.1" y="38.9" width="1.7" height="1.69"/>
      <rect class="cls-190" x="3.4" y="38.9" width="1.7" height="1.69"/>
      <rect class="cls-12" x="1.7" y="38.9" width="1.7" height="1.69"/>
      <rect class="cls-229" y="38.9" width="1.7" height="1.69"/>
      <rect class="cls-64" x="37.4" y="37.21" width="1.7" height="1.69"/>
      <rect class="cls-94" x="35.7" y="37.21" width="1.7" height="1.69"/>
      <rect class="cls-92" x="34" y="37.21" width="1.7" height="1.69"/>
      <rect class="cls-94" x="32.3" y="37.21" width="1.7" height="1.69"/>
      <rect class="cls-62" x="30.6" y="37.21" width="1.7" height="1.69"/>
      <rect class="cls-191" x="28.9" y="37.21" width="1.7" height="1.69"/>
      <rect class="cls-187" x="27.2" y="37.21" width="1.7" height="1.69"/>
      <rect class="cls-186" x="25.5" y="37.21" width="1.7" height="1.69"/>
      <rect class="cls-194" x="23.8" y="37.21" width="1.7" height="1.69"/>
      <rect class="cls-237" x="22.1" y="37.21" width="1.7" height="1.69"/>
      <rect class="cls-194" x="20.4" y="37.21" width="1.7" height="1.69"/>
      <rect class="cls-194" x="18.7" y="37.21" width="1.7" height="1.69"/>
      <rect class="cls-194" x="17" y="37.21" width="1.7" height="1.69"/>
      <rect class="cls-194" x="15.3" y="37.21" width="1.7" height="1.69"/>
      <rect class="cls-194" x="13.6" y="37.21" width="1.7" height="1.69"/>
      <rect class="cls-237" x="11.9" y="37.21" width="1.7" height="1.69"/>
      <rect class="cls-236" x="10.2" y="37.21" width="1.7" height="1.69"/>
      <rect class="cls-236" x="8.5" y="37.21" width="1.7" height="1.69"/>
      <rect class="cls-198" x="6.8" y="37.21" width="1.7" height="1.69"/>
      <rect class="cls-196" x="5.1" y="37.21" width="1.7" height="1.69"/>
      <rect class="cls-236" x="3.4" y="37.21" width="1.7" height="1.69"/>
      <rect class="cls-245" x="1.7" y="37.21" width="1.7" height="1.69"/>
      <rect class="cls-230" y="37.21" width="1.7" height="1.69"/>
      <rect class="cls-100" x="37.4" y="35.51" width="1.7" height="1.69"/>
      <rect class="cls-64" x="35.7" y="35.51" width="1.7" height="1.69"/>
      <rect class="cls-132" x="34" y="35.51" width="1.7" height="1.69"/>
      <rect class="cls-93" x="32.3" y="35.51" width="1.7" height="1.69"/>
      <rect class="cls-285" x="30.6" y="35.51" width="1.7" height="1.69"/>
      <rect class="cls-199" x="28.9" y="35.51" width="1.7" height="1.69"/>
      <rect class="cls-185" x="27.2" y="35.51" width="1.7" height="1.69"/>
      <rect class="cls-233" x="25.5" y="35.51" width="1.7" height="1.69"/>
      <rect class="cls-121" x="23.8" y="35.51" width="1.7" height="1.69"/>
      <rect class="cls-199" x="22.1" y="35.51" width="1.7" height="1.69"/>
      <rect class="cls-199" x="20.4" y="35.51" width="1.7" height="1.69"/>
      <rect class="cls-199" x="18.7" y="35.51" width="1.7" height="1.69"/>
      <rect class="cls-192" x="17" y="35.51" width="1.7" height="1.69"/>
      <rect class="cls-157" x="15.3" y="35.51" width="1.7" height="1.69"/>
      <rect class="cls-227" x="13.6" y="35.51" width="1.7" height="1.69"/>
      <rect class="cls-235" x="11.9" y="35.51" width="1.7" height="1.69"/>
      <rect class="cls-227" x="10.2" y="35.51" width="1.7" height="1.69"/>
      <rect class="cls-228" x="8.5" y="35.51" width="1.7" height="1.69"/>
      <rect class="cls-236" x="6.8" y="35.51" width="1.7" height="1.69"/>
      <rect class="cls-199" x="5.1" y="35.51" width="1.7" height="1.69"/>
      <rect class="cls-87" x="3.4" y="35.51" width="1.7" height="1.69"/>
      <rect class="cls-245" x="1.7" y="35.51" width="1.7" height="1.69"/>
      <rect class="cls-226" y="35.51" width="1.7" height="1.69"/>
      <rect class="cls-283" x="37.4" y="33.82" width="1.7" height="1.69"/>
      <rect class="cls-279" x="35.7" y="33.82" width="1.7" height="1.69"/>
      <rect class="cls-93" x="34" y="33.82" width="1.7" height="1.69"/>
      <rect class="cls-223" x="32.3" y="33.82" width="1.7" height="1.69"/>
      <rect class="cls-240" x="30.6" y="33.82" width="1.7" height="1.69"/>
      <rect class="cls-240" x="28.9" y="33.82" width="1.7" height="1.69"/>
      <rect class="cls-255" x="27.2" y="33.82" width="1.7" height="1.69"/>
      <rect class="cls-2" x="25.5" y="33.82" width="1.7" height="1.69"/>
      <rect class="cls-3" x="23.8" y="33.82" width="1.7" height="1.69"/>
      <rect class="cls-122" x="22.1" y="33.82" width="1.7" height="1.69"/>
      <rect class="cls-247" x="20.4" y="33.82" width="1.7" height="1.69"/>
      <rect class="cls-222" x="18.7" y="33.82" width="1.7" height="1.69"/>
      <rect class="cls-125" x="17" y="33.82" width="1.7" height="1.69"/>
      <rect class="cls-125" x="15.3" y="33.82" width="1.7" height="1.69"/>
      <rect class="cls-247" x="13.6" y="33.82" width="1.7" height="1.69"/>
      <rect class="cls-209" x="11.9" y="33.82" width="1.7" height="1.69"/>
      <rect class="cls-185" x="10.2" y="33.82" width="1.7" height="1.69"/>
      <rect class="cls-215" x="8.5" y="33.82" width="1.7" height="1.69"/>
      <rect class="cls-271" x="6.8" y="33.82" width="1.7" height="1.69"/>
      <rect class="cls-49" x="5.1" y="33.82" width="1.7" height="1.69"/>
      <rect class="cls-112" x="3.4" y="33.82" width="1.7" height="1.69"/>
      <rect class="cls-122" x="1.7" y="33.82" width="1.7" height="1.69"/>
      <rect class="cls-147" x="37.4" y="32.13" width="1.7" height="1.69"/>
      <rect class="cls-144" x="35.7" y="32.13" width="1.7" height="1.69"/>
      <rect class="cls-135" x="34" y="32.13" width="1.7" height="1.69"/>
      <rect class="cls-241" x="32.3" y="32.13" width="1.7" height="1.69"/>
      <rect class="cls-248" x="30.6" y="32.13" width="1.7" height="1.69"/>
      <rect class="cls-253" x="28.9" y="32.13" width="1.7" height="1.69"/>
      <rect class="cls-253" x="27.2" y="32.13" width="1.7" height="1.69"/>
      <rect class="cls-122" x="25.5" y="32.13" width="1.7" height="1.69"/>
      <rect class="cls-76" x="23.8" y="32.13" width="1.7" height="1.69"/>
      <rect class="cls-13" x="22.1" y="32.13" width="1.7" height="1.69"/>
      <rect class="cls-118" x="20.4" y="32.13" width="1.7" height="1.69"/>
      <rect class="cls-70" x="18.7" y="32.13" width="1.7" height="1.69"/>
      <rect class="cls-72" x="17" y="32.13" width="1.7" height="1.69"/>
      <rect class="cls-119" x="15.3" y="32.13" width="1.7" height="1.69"/>
      <rect class="cls-124" x="13.6" y="32.13" width="1.7" height="1.69"/>
      <rect class="cls-119" x="11.9" y="32.13" width="1.7" height="1.69"/>
      <rect class="cls-127" x="10.2" y="32.13" width="1.7" height="1.69"/>
      <rect class="cls-212" x="8.5" y="32.13" width="1.7" height="1.69"/>
      <rect class="cls-111" x="6.8" y="32.13" width="1.7" height="1.69"/>
      <rect class="cls-197" x="5.1" y="32.13" width="1.7" height="1.69"/>
      <rect class="cls-176" x="3.4" y="32.13" width="1.7" height="1.69"/>
      <rect class="cls-146" x="37.4" y="30.44" width="1.7" height="1.69"/>
      <rect class="cls-131" x="35.7" y="30.44" width="1.7" height="1.69"/>
      <rect class="cls-180" x="34" y="30.44" width="1.7" height="1.69"/>
      <rect class="cls-106" x="32.3" y="30.44" width="1.7" height="1.69"/>
      <rect class="cls-43" x="30.6" y="30.44" width="1.7" height="1.69"/>
      <rect class="cls-81" x="28.9" y="30.44" width="1.7" height="1.69"/>
      <rect class="cls-254" x="27.2" y="30.44" width="1.7" height="1.69"/>
      <rect class="cls-72" x="25.5" y="30.44" width="1.7" height="1.69"/>
      <rect class="cls-69" x="23.8" y="30.44" width="1.7" height="1.69"/>
      <rect class="cls-122" x="22.1" y="30.44" width="1.7" height="1.69"/>
      <rect class="cls-72" x="20.4" y="30.44" width="1.7" height="1.69"/>
      <rect class="cls-105" x="18.7" y="30.44" width="1.7" height="1.69"/>
      <rect class="cls-129" x="17" y="30.44" width="1.7" height="1.69"/>
      <rect class="cls-127" x="15.3" y="30.44" width="1.7" height="1.69"/>
      <rect class="cls-120" x="13.6" y="30.44" width="1.7" height="1.69"/>
      <rect class="cls-72" x="11.9" y="30.44" width="1.7" height="1.69"/>
      <rect class="cls-73" x="10.2" y="30.44" width="1.7" height="1.69"/>
      <rect class="cls-119" x="8.5" y="30.44" width="1.7" height="1.69"/>
      <rect class="cls-119" x="6.8" y="30.44" width="1.7" height="1.69"/>
      <rect class="cls-129" x="5.1" y="30.44" width="1.7" height="1.69"/>
      <rect class="cls-39" x="3.4" y="30.44" width="1.7" height="1.69"/>
      <rect class="cls-286" x="35.7" y="28.75" width="1.7" height="1.69"/>
      <rect class="cls-137" x="34" y="28.75" width="1.7" height="1.69"/>
      <rect class="cls-66" x="32.3" y="28.75" width="1.7" height="1.69"/>
      <rect class="cls-90" x="30.6" y="28.75" width="1.7" height="1.69"/>
      <rect class="cls-61" x="28.9" y="28.75" width="1.7" height="1.69"/>
      <rect class="cls-77" x="27.2" y="28.75" width="1.7" height="1.69"/>
      <rect class="cls-69" x="25.5" y="28.75" width="1.7" height="1.69"/>
      <rect class="cls-121" x="23.8" y="28.75" width="1.7" height="1.69"/>
      <rect class="cls-121" x="22.1" y="28.75" width="1.7" height="1.69"/>
      <rect class="cls-79" x="20.4" y="28.75" width="1.7" height="1.69"/>
      <rect class="cls-84" x="18.7" y="28.75" width="1.7" height="1.69"/>
      <rect class="cls-130" x="17" y="28.75" width="1.7" height="1.69"/>
      <rect class="cls-297" x="15.3" y="28.75" width="1.7" height="1.69"/>
      <rect class="cls-24" x="13.6" y="28.75" width="1.7" height="1.69"/>
      <rect class="cls-75" x="11.9" y="28.75" width="1.7" height="1.69"/>
      <rect class="cls-79" x="10.2" y="28.75" width="1.7" height="1.69"/>
      <rect class="cls-69" x="8.5" y="28.75" width="1.7" height="1.69"/>
      <rect class="cls-70" x="6.8" y="28.75" width="1.7" height="1.69"/>
      <rect class="cls-69" x="5.1" y="28.75" width="1.7" height="1.69"/>
      <rect class="cls-219" x="3.4" y="28.75" width="1.7" height="1.69"/>
      <rect class="cls-272" x="35.7" y="27.06" width="1.7" height="1.69"/>
      <rect class="cls-90" x="34" y="27.06" width="1.7" height="1.69"/>
      <rect class="cls-137" x="32.3" y="27.06" width="1.7" height="1.69"/>
      <rect class="cls-137" x="30.6" y="27.06" width="1.7" height="1.69"/>
      <rect class="cls-137" x="28.9" y="27.06" width="1.7" height="1.69"/>
      <rect class="cls-16" x="27.2" y="27.06" width="1.7" height="1.69"/>
      <rect class="cls-266" x="25.5" y="27.06" width="1.7" height="1.69"/>
      <rect class="cls-293" x="23.8" y="27.06" width="1.7" height="1.69"/>
      <rect class="cls-109" x="22.1" y="27.06" width="1.7" height="1.69"/>
      <rect class="cls-80" x="20.4" y="27.06" width="1.7" height="1.69"/>
      <rect class="cls-247" x="18.7" y="27.06" width="1.7" height="1.69"/>
      <rect class="cls-251" x="17" y="27.06" width="1.7" height="1.69"/>
      <rect class="cls-220" x="15.3" y="27.06" width="1.7" height="1.69"/>
      <rect class="cls-68" x="13.6" y="27.06" width="1.7" height="1.69"/>
      <rect class="cls-14" x="11.9" y="27.06" width="1.7" height="1.69"/>
      <rect class="cls-290" x="10.2" y="27.06" width="1.7" height="1.69"/>
      <rect class="cls-40" x="8.5" y="27.06" width="1.7" height="1.69"/>
      <rect class="cls-233" x="6.8" y="27.06" width="1.7" height="1.69"/>
      <rect class="cls-211" x="5.1" y="27.06" width="1.7" height="1.69"/>
      <rect class="cls-222" x="3.4" y="27.06" width="1.7" height="1.69"/>
      <rect class="cls-91" x="34" y="25.37" width="1.7" height="1.69"/>
      <rect class="cls-274" x="32.3" y="25.37" width="1.7" height="1.69"/>
      <rect class="cls-218" x="30.6" y="25.37" width="1.7" height="1.69"/>
      <rect class="cls-288" x="28.9" y="25.37" width="1.7" height="1.69"/>
      <rect class="cls-178" x="27.2" y="25.37" width="1.7" height="1.69"/>
      <rect class="cls-120" x="25.5" y="25.37" width="1.7" height="1.69"/>
      <rect class="cls-18" x="23.8" y="25.37" width="1.7" height="1.69"/>
      <rect class="cls-31" x="22.1" y="25.37" width="1.7" height="1.69"/>
      <rect class="cls-296" x="20.4" y="25.37" width="1.7" height="1.69"/>
      <rect class="cls-88" x="18.7" y="25.37" width="1.7" height="1.69"/>
      <rect class="cls-213" x="17" y="25.37" width="1.7" height="1.69"/>
      <rect class="cls-155" x="15.3" y="25.37" width="1.7" height="1.69"/>
      <rect class="cls-157" x="13.6" y="25.37" width="1.7" height="1.69"/>
      <rect class="cls-177" x="11.9" y="25.37" width="1.7" height="1.69"/>
      <rect class="cls-252" x="10.2" y="25.37" width="1.7" height="1.69"/>
      <rect class="cls-17" x="8.5" y="25.37" width="1.7" height="1.69"/>
      <rect class="cls-25" x="6.8" y="25.37" width="1.7" height="1.69"/>
      <rect class="cls-20" x="5.1" y="25.37" width="1.7" height="1.69"/>
      <rect class="cls-128" x="3.4" y="25.37" width="1.7" height="1.69"/>
      <rect class="cls-51" x="34" y="23.68" width="1.7" height="1.69"/>
      <rect class="cls-217" x="32.3" y="23.68" width="1.7" height="1.69"/>
      <rect class="cls-138" x="30.6" y="23.68" width="1.7" height="1.69"/>
      <rect class="cls-160" x="28.9" y="23.68" width="1.7" height="1.69"/>
      <rect class="cls-177" x="27.2" y="23.68" width="1.7" height="1.69"/>
      <rect class="cls-125" x="25.5" y="23.68" width="1.7" height="1.69"/>
      <rect class="cls-23" x="23.8" y="23.68" width="1.7" height="1.69"/>
      <rect class="cls-7" x="22.1" y="23.68" width="1.7" height="1.69"/>
      <rect class="cls-96" x="20.4" y="23.68" width="1.7" height="1.69"/>
      <rect class="cls-19" x="18.7" y="23.68" width="1.7" height="1.69"/>
      <rect class="cls-35" x="17" y="23.68" width="1.7" height="1.69"/>
      <rect class="cls-35" x="15.3" y="23.68" width="1.7" height="1.69"/>
      <rect class="cls-119" x="13.6" y="23.68" width="1.7" height="1.69"/>
      <rect class="cls-162" x="11.9" y="23.68" width="1.7" height="1.69"/>
      <rect class="cls-277" x="10.2" y="23.68" width="1.7" height="1.69"/>
      <rect class="cls-164" x="8.5" y="23.68" width="1.7" height="1.69"/>
      <rect class="cls-175" x="6.8" y="23.68" width="1.7" height="1.69"/>
      <rect class="cls-234" x="5.1" y="23.68" width="1.7" height="1.69"/>
      <rect class="cls-37" x="3.4" y="23.68" width="1.7" height="1.69"/>
      <rect class="cls-149" x="32.3" y="21.99" width="1.7" height="1.69"/>
      <rect class="cls-281" x="30.6" y="21.99" width="1.7" height="1.69"/>
      <rect class="cls-274" x="28.9" y="21.99" width="1.7" height="1.69"/>
      <rect class="cls-233" x="27.2" y="21.99" width="1.7" height="1.69"/>
      <rect class="cls-220" x="25.5" y="21.99" width="1.7" height="1.69"/>
      <rect class="cls-119" x="23.8" y="21.99" width="1.7" height="1.69"/>
      <rect class="cls-88" x="22.1" y="21.99" width="1.7" height="1.69"/>
      <rect class="cls-1" x="20.4" y="21.99" width="1.7" height="1.69"/>
      <rect class="cls-292" x="18.7" y="21.99" width="1.7" height="1.69"/>
      <rect class="cls-46" x="17" y="21.99" width="1.7" height="1.69"/>
      <rect class="cls-34" x="15.3" y="21.99" width="1.7" height="1.69"/>
      <rect class="cls-9" x="13.6" y="21.99" width="1.7" height="1.69"/>
      <rect class="cls-183" x="11.9" y="21.99" width="1.7" height="1.69"/>
      <rect class="cls-163" x="10.2" y="21.99" width="1.7" height="1.69"/>
      <rect class="cls-165" x="8.5" y="21.99" width="1.7" height="1.69"/>
      <rect class="cls-276" x="6.8" y="21.99" width="1.7" height="1.69"/>
      <rect class="cls-243" x="5.1" y="21.99" width="1.7" height="1.69"/>
      <rect class="cls-133" x="30.6" y="20.29" width="1.7" height="1.69"/>
      <rect class="cls-146" x="28.9" y="20.29" width="1.7" height="1.69"/>
      <rect class="cls-71" x="27.2" y="20.29" width="1.7" height="1.69"/>
      <rect class="cls-171" x="25.5" y="20.29" width="1.7" height="1.69"/>
      <rect class="cls-24" x="23.8" y="20.29" width="1.7" height="1.69"/>
      <rect class="cls-15" x="22.1" y="20.29" width="1.7" height="1.69"/>
      <rect class="cls-16" x="20.4" y="20.29" width="1.7" height="1.69"/>
      <rect class="cls-88" x="18.7" y="20.29" width="1.7" height="1.69"/>
      <rect class="cls-36" x="17" y="20.29" width="1.7" height="1.69"/>
      <rect class="cls-45" x="15.3" y="20.29" width="1.7" height="1.69"/>
      <rect class="cls-33" x="13.6" y="20.29" width="1.7" height="1.69"/>
      <rect class="cls-33" x="11.9" y="20.29" width="1.7" height="1.69"/>
      <rect class="cls-117" x="10.2" y="20.29" width="1.7" height="1.69"/>
      <rect class="cls-206" x="8.5" y="20.29" width="1.7" height="1.69"/>
      <rect class="cls-284" x="6.8" y="20.29" width="1.7" height="1.69"/>
      <rect class="cls-242" x="5.1" y="20.29" width="1.7" height="1.69"/>
      <rect class="cls-282" x="28.9" y="18.6" width="1.7" height="1.69"/>
      <rect class="cls-191" x="27.2" y="18.6" width="1.7" height="1.69"/>
      <rect class="cls-110" x="25.5" y="18.6" width="1.7" height="1.69"/>
      <rect class="cls-110" x="23.8" y="18.6" width="1.7" height="1.69"/>
      <rect class="cls-227" x="22.1" y="18.6" width="1.7" height="1.69"/>
      <rect class="cls-85" x="20.4" y="18.6" width="1.7" height="1.69"/>
      <rect class="cls-16" x="18.7" y="18.6" width="1.7" height="1.69"/>
      <rect class="cls-10" x="17" y="18.6" width="1.7" height="1.69"/>
      <rect class="cls-30" x="15.3" y="18.6" width="1.7" height="1.69"/>
      <rect class="cls-26" x="13.6" y="18.6" width="1.7" height="1.69"/>
      <rect class="cls-295" x="11.9" y="18.6" width="1.7" height="1.69"/>
      <rect class="cls-10" x="10.2" y="18.6" width="1.7" height="1.69"/>
      <rect class="cls-179" x="8.5" y="18.6" width="1.7" height="1.69"/>
      <rect class="cls-150" x="6.8" y="18.6" width="1.7" height="1.69"/>
      <rect class="cls-244" x="5.1" y="18.6" width="1.7" height="1.69"/>
      <rect class="cls-142" x="28.9" y="16.91" width="1.7" height="1.69"/>
      <rect class="cls-269" x="27.2" y="16.91" width="1.7" height="1.69"/>
      <rect class="cls-15" x="25.5" y="16.91" width="1.7" height="1.69"/>
      <rect class="cls-113" x="23.8" y="16.91" width="1.7" height="1.69"/>
      <rect class="cls-15" x="22.1" y="16.91" width="1.7" height="1.69"/>
      <rect class="cls-154" x="20.4" y="16.91" width="1.7" height="1.69"/>
      <rect class="cls-5" x="18.7" y="16.91" width="1.7" height="1.69"/>
      <rect class="cls-34" x="17" y="16.91" width="1.7" height="1.69"/>
      <rect class="cls-298" x="15.3" y="16.91" width="1.7" height="1.69"/>
      <rect class="cls-172" x="13.6" y="16.91" width="1.7" height="1.69"/>
      <rect class="cls-114" x="11.9" y="16.91" width="1.7" height="1.69"/>
      <rect class="cls-83" x="10.2" y="16.91" width="1.7" height="1.69"/>
      <rect class="cls-205" x="8.5" y="16.91" width="1.7" height="1.69"/>
      <rect class="cls-162" x="6.8" y="16.91" width="1.7" height="1.69"/>
      <rect class="cls-221" x="5.1" y="16.91" width="1.7" height="1.69"/>
      <rect class="cls-268" x="28.9" y="15.22" width="1.7" height="1.69"/>
      <rect class="cls-136" x="27.2" y="15.22" width="1.7" height="1.69"/>
      <rect class="cls-70" x="25.5" y="15.22" width="1.7" height="1.69"/>
      <rect class="cls-86" x="23.8" y="15.22" width="1.7" height="1.69"/>
      <rect class="cls-4" x="22.1" y="15.22" width="1.7" height="1.69"/>
      <rect class="cls-50" x="20.4" y="15.22" width="1.7" height="1.69"/>
      <rect class="cls-8" x="18.7" y="15.22" width="1.7" height="1.69"/>
      <rect class="cls-33" x="17" y="15.22" width="1.7" height="1.69"/>
      <rect class="cls-7" x="15.3" y="15.22" width="1.7" height="1.69"/>
      <rect class="cls-45" x="13.6" y="15.22" width="1.7" height="1.69"/>
      <rect class="cls-294" x="11.9" y="15.22" width="1.7" height="1.69"/>
      <rect class="cls-246" x="10.2" y="15.22" width="1.7" height="1.69"/>
      <rect class="cls-206" x="8.5" y="15.22" width="1.7" height="1.69"/>
      <rect class="cls-224" x="6.8" y="15.22" width="1.7" height="1.69"/>
      <rect class="cls-27" x="5.1" y="15.22" width="1.7" height="1.69"/>
      <rect class="cls-52" x="27.2" y="13.53" width="1.7" height="1.69"/>
      <rect class="cls-268" x="25.5" y="13.53" width="1.7" height="1.69"/>
      <rect class="cls-126" x="23.8" y="13.53" width="1.7" height="1.69"/>
      <rect class="cls-38" x="22.1" y="13.53" width="1.7" height="1.69"/>
      <rect class="cls-228" x="20.4" y="13.53" width="1.7" height="1.69"/>
      <rect class="cls-216" x="18.7" y="13.53" width="1.7" height="1.69"/>
      <rect class="cls-29" x="17" y="13.53" width="1.7" height="1.69"/>
      <rect class="cls-29" x="15.3" y="13.53" width="1.7" height="1.69"/>
      <rect class="cls-153" x="13.6" y="13.53" width="1.7" height="1.69"/>
      <rect class="cls-71" x="11.9" y="13.53" width="1.7" height="1.69"/>
      <rect class="cls-200" x="10.2" y="13.53" width="1.7" height="1.69"/>
      <rect class="cls-152" x="8.5" y="13.53" width="1.7" height="1.69"/>
      <rect class="cls-213" x="6.8" y="13.53" width="1.7" height="1.69"/>
      <rect class="cls-202" x="25.5" y="11.84" width="1.7" height="1.69"/>
      <rect class="cls-143" x="23.8" y="11.84" width="1.7" height="1.69"/>
      <rect class="cls-86" x="22.1" y="11.84" width="1.7" height="1.69"/>
      <rect class="cls-83" x="20.4" y="11.84" width="1.7" height="1.69"/>
      <rect class="cls-53" x="18.7" y="11.84" width="1.7" height="1.69"/>
      <rect class="cls-33" x="17" y="11.84" width="1.7" height="1.69"/>
      <rect class="cls-116" x="15.3" y="11.84" width="1.7" height="1.69"/>
      <rect class="cls-35" x="13.6" y="11.84" width="1.7" height="1.69"/>
      <rect class="cls-208" x="11.9" y="11.84" width="1.7" height="1.69"/>
      <rect class="cls-233" x="10.2" y="11.84" width="1.7" height="1.69"/>
      <rect class="cls-11" x="8.5" y="11.84" width="1.7" height="1.69"/>
      <rect class="cls-196" x="23.8" y="10.15" width="1.7" height="1.69"/>
      <rect class="cls-289" x="22.1" y="10.15" width="1.7" height="1.69"/>
      <rect class="cls-86" x="20.4" y="10.15" width="1.7" height="1.69"/>
      <rect class="cls-204" x="18.7" y="10.15" width="1.7" height="1.69"/>
      <rect class="cls-28" x="17" y="10.15" width="1.7" height="1.69"/>
      <rect class="cls-249" x="15.3" y="10.15" width="1.7" height="1.69"/>
      <rect class="cls-175" x="13.6" y="10.15" width="1.7" height="1.69"/>
      <rect class="cls-15" x="11.9" y="10.15" width="1.7" height="1.69"/>
      <rect class="cls-225" x="22.1" y="8.46" width="1.7" height="1.69"/>
      <rect class="cls-185" x="20.4" y="8.46" width="1.7" height="1.69"/>
      <rect class="cls-182" x="18.7" y="8.46" width="1.7" height="1.69"/>
      <rect class="cls-181" x="17" y="8.46" width="1.7" height="1.69"/>
      <rect class="cls-9" x="15.3" y="8.46" width="1.7" height="1.69"/>
      <rect class="cls-70" x="13.6" y="8.46" width="1.7" height="1.69"/>
      <rect class="cls-104" x="20.4" y="6.76" width="1.7" height="1.69"/>
      <rect class="cls-41" x="18.7" y="6.76" width="1.7" height="1.69"/>
      <rect class="cls-44" x="17" y="6.76" width="1.7" height="1.69"/>
      <rect class="cls-134" x="15.3" y="6.76" width="1.7" height="1.69"/>
      <rect class="cls-97" x="20.4" y="5.07" width="1.7" height="1.69"/>
      <rect class="cls-148" x="18.7" y="5.07" width="1.7" height="1.69"/>
      <rect class="cls-191" x="17" y="5.07" width="1.7" height="1.69"/>
      <rect class="cls-201" x="15.3" y="5.07" width="1.7" height="1.69"/>
      <rect class="cls-7" x="13.6" y="5.07" width="1.7" height="1.69"/>
      <rect class="cls-56" x="22.1" y="3.38" width="1.7" height="1.69"/>
      <rect class="cls-214" x="20.4" y="3.38" width="1.7" height="1.69"/>
      <rect class="cls-6" x="18.7" y="3.38" width="1.7" height="1.69"/>
      <rect class="cls-169" x="17" y="3.38" width="1.7" height="1.69"/>
      <rect class="cls-275" x="15.3" y="3.38" width="1.7" height="1.69"/>
      <rect class="cls-11" x="13.6" y="3.38" width="1.7" height="1.69"/>
      <rect class="cls-22" x="11.9" y="3.38" width="1.7" height="1.69"/>
      <rect class="cls-188" x="23.8" y="1.69" width="1.7" height="1.69"/>
      <rect class="cls-287" x="22.1" y="1.69" width="1.7" height="1.69"/>
      <rect class="cls-203" x="20.4" y="1.69" width="1.7" height="1.69"/>
      <rect class="cls-89" x="18.7" y="1.69" width="1.7" height="1.69"/>
      <rect class="cls-275" x="17" y="1.69" width="1.7" height="1.69"/>
      <rect class="cls-162" x="15.3" y="1.69" width="1.7" height="1.69"/>
      <rect class="cls-10" x="13.6" y="1.69" width="1.7" height="1.69"/>
      <rect class="cls-46" x="11.9" y="1.69" width="1.7" height="1.69"/>
      <rect class="cls-291" x="10.2" y="1.69" width="1.7" height="1.69"/>
      <rect class="cls-95" x="18.7" width="1.7" height="1.69"/>
      <rect class="cls-21" x="17" width="1.7" height="1.69"/>
      <rect class="cls-115" x="15.3" width="1.7" height="1.69"/>
      <rect class="cls-35" x="13.6" width="1.7" height="1.69"/>
      <rect class="cls-10" x="11.9" width="1.7" height="1.69"/>
      <rect class="cls-267" x="10.2" width="1.7" height="1.69"/>
    </g>
  </g>
</svg>